/* XPM */
static char *c7262055bd514fd4c07ea473d171ac65L17tZcx7229vu151[] = {
/* columns rows colors chars-per-pixel */
"65 65 2 1 ",
"  c None",
". c black",
/* pixels */
"                                                                 ",
"                                                                 ",
"                                                                 ",
"                                                                 ",
"                                                                 ",
"                                                                 ",
"                                                                 ",
"                                                                 ",
"                                                                 ",
"                                                                 ",
"                                                                 ",
"                                                                 ",
"                                                                 ",
"                                                                 ",
"                                                                 ",
"                                                                 ",
"                                                                 ",
"                   .                                             ",
"                     .. .                                        ",
"                       .      .               .                  ",
"                        .   .   ..                               ",
"                           .   ..        .                       ",
"                        .     ...        ..         .            ",
"                         ..  ....     .....        .             ",
"                        ...................     . .              ",
"                       ......................... ..              ",
"                   ...............................               ",
"          .        ...............................               ",
"          .    .  ...............................                ",
"          .    ...................................        . .    ",
"          ....................................... .              ",
"           .. ....................................               ",
"          .   .....................................    .         ",
"             .....................................   ....        ",
"     .    ......................................... .....        ",
"     .        .................................. ......          ",
"        . ........................................ ..            ",
"         ... ...............................   .  .     .        ",
"                .............................                    ",
"        ..    ............................ ..                    ",
"            .............................. ..                    ",
"         ....  .  ..................... .  ...                   ",
"        ....      .........  ........                            ",
"                       ...      .....                            ",
"                       .        .  .                             ",
"                       .        .  .                             ",
"                     ..          ...                             ",
"                                . ..                             ",
"                                  .   .                          ",
"                                    .  ..                        ",
"                                                                 ",
"                                                                 ",
"                                                                 ",
"                                                                 ",
"                                                                 ",
"                                                                 ",
"                                                                 ",
"                                                                 ",
"                                                                 ",
"                                                                 ",
"                                                                 ",
"                                                                 ",
"                                                                 ",
"                                                                 ",
"                                                                 "
};
