/* XPM */
static char *_63dde2a7ffb4d20934ed549f868584bQQWC8UdjGnnaw3W9[] = {
/* columns rows colors chars-per-pixel */
"65 65 2 1 ",
"  c None",
". c black",
/* pixels */
"                                                                 ",
"                                                                 ",
"                                                                 ",
"                                                                 ",
"                                                                 ",
"                                                                 ",
"                                                                 ",
"                                                                 ",
"                                                                 ",
"                                                                 ",
"                                                                 ",
"                                    .                            ",
"     .                           ... .                           ",
"                                ..   .                           ",
"                               .     .                           ",
"                              .      .                           ",
"                             .                                   ",
"                             .                                   ",
"           ........         .                                    ",
"           ....... .         .                                   ",
"           ...... ...        .                                   ",
"          .....      ..      .                                   ",
"          .....            . .                .                  ",
"          ....            ....     .                             ",
"           ....        .......                                   ",
"            ..     .   ..............                            ",
"             ..       ................                           ",
"             .  .     ................                           ",
"             ....     ................. .                        ",
"              . ... ...................                          ",
"              .  ......................... .    .. .             ",
"               ..........................       ........         ",
"                .........................            ...  .      ",
"                ...........................          ...         ",
"    .. .       .............................        ...          ",
"    .          ..............................      ...           ",
"    .        ................................ ......             ",
"    ..       .... .................................              ",
"      ...         ..............................                 ",
"         ..        ......................... .                   ",
"           .............................  .                      ",
"                .....................      .                     ",
"                       ..............      .                     ",
"                     . .................   .                     ",
"                          ....  .. .........   .                 ",
"                          ...        ........                    ",
"                           ..           ...                      ",
"                           ..                                    ",
"                           ..     .                              ",
"                           ...                                   ",
"                         .  ..   ..                              ",
"                            ..                                   ",
"                         .  ..            .                      ",
"                            ...   .                              ",
"                             ..                                  ",
"                          .  ..    .                             ",
"                              .    .                             ",
"                                .  .                             ",
"                                   .                             ",
"                               ..  .                             ",
"                                . ..                             ",
"                                 ..                              ",
"                                                                 ",
"                                                                 ",
"                                                                 "
};
