/* XPM */
static char *_5fa65d2f7f6474cfe5fa1b3225b5a231oZ3c9awArj09TOX[] = {
/* columns rows colors chars-per-pixel */
"65 65 2 1 ",
"  c None",
". c black",
/* pixels */
"                                                                 ",
"                                                                 ",
"                                                                 ",
"                                                                 ",
"                                                                 ",
"                                                                 ",
"                                                                 ",
"                                                                 ",
"                                                                 ",
"                                                                 ",
"                                                                 ",
"                                                                 ",
"                                                                 ",
"                                                                 ",
"                                                                 ",
"                                                                 ",
"                   ..                                            ",
"                                                                 ",
"                  .    .  ..                     .......         ",
"                                 ...   ..            ....        ",
"                      .         ..........            ....       ",
"                           ..   .............          . .       ",
"                            .................          ...       ",
"                  .         ....................       ...       ",
"                   .  .   ..................... .      ...       ",
"                   .  .  .. .....................      ...       ",
"                       . ........................   .  ..        ",
"                     .  .........................  .. ..         ",
"                      .......................... ......          ",
"                       ...............................           ",
"                        ..............................           ",
"                         ............................            ",
"                        ...........................              ",
"                       ..........................                ",
"                       .............................   ...       ",
"               .  .  .   .............................   .       ",
"              ..           ...........................  ...      ",
"             .             .................  ............       ",
"             ..           ..................      .   ...        ",
"             ..     .... ................. .  ....               ",
"                ..................................               ",
"                    ....     .   ... ...........                 ",
"                ..  . .      .    .. .  .......                  ",
"                                    .       .                    ",
"           .                     .                               ",
"                                                                 ",
"                                       .                         ",
"                                                                 ",
"                                                                 ",
"                                                                 ",
"                                                                 ",
"                                                                 ",
"                                                                 ",
"                                                                 ",
"                                                                 ",
"                                                                 ",
"                                                                 ",
"                                                                 ",
"                                                                 ",
"                                                                 ",
"                                                                 ",
"                                                                 ",
"                                                                 ",
"                                                                 ",
"                                                                 "
};
