/* XPM */
static char *_884f393ab764b73fe6a91a58e3f5c28SiKxTFk1nd9w4Vi9[] = {
/* columns rows colors chars-per-pixel */
"65 65 2 1 ",
"  c None",
". c black",
/* pixels */
"                                                                 ",
"                                                                 ",
"                                                                 ",
"                                                                 ",
"                                                                 ",
"                                                                 ",
"                                                                 ",
"                                                                 ",
"                                                                 ",
"                                                                 ",
"                                                                 ",
"                                                                 ",
"                                                                 ",
"                                                                 ",
"                                                                 ",
"                           ..  ...              .    .           ",
"                         .........                               ",
"                        . ........                               ",
"                       .. ........... .         .                ",
"                     .................       .....               ",
"       ... .       ................... .   ... ...    .          ",
"      .... .     .........................     ...               ",
"       .        ..........................    ...                ",
"       ...       ..........................  ...                 ",
"          ..     .........................   ...                 ",
"          . .     ........................ ....     .            ",
"           .....  ....................... ...                    ",
"              ................................                   ",
"                ............................. .    .             ",
"                  ........................  ....                 ",
"                   ......................      ......            ",
"                   .......................       . ...           ",
"                  ............................... .......        ",
"                  .......................................        ",
"                    ...................................          ",
"                    .................  ........... .             ",
"                     ................ .    ..                    ",
"                     .............. . ....                       ",
"          .  .       ...............    ..        .              ",
"      ......        .........   ...........                      ",
"      ..          .....          ..........                      ",
"                .....              .......                       ",
"    ....  .........                       .                      ",
"    ...........                .                                 ",
"     .....                                     .                 ",
"                                                                 ",
"                                   .                             ",
"                                   .       .                     ",
"                                                                 ",
"                                                                 ",
"                                                                 ",
"                                                                 ",
"                                                                 ",
"                                                                 ",
"                                                                 ",
"                                                                 ",
"                                                                 ",
"                                                                 ",
"                                                                 ",
"                                                                 ",
"                                                                 ",
"                                                                 ",
"                                                                 ",
"                                                                 ",
"                                                                 "
};
