/* XPM */
static char *result[] = {
/* columns rows colors chars-per-pixel */
"65 65 187 2 ",
"   c black",
".  c gray5",
"X  c #161616",
"o  c gray9",
"O  c gray11",
"+  c #222222",
"@  c gray15",
"#  c #2A2A2A",
"$  c gray18",
"%  c #2F2F2F",
"&  c #313131",
"*  c #323232",
"=  c #353535",
"-  c gray22",
";  c gray23",
":  c gray24",
">  c gray25",
",  c gray26",
"<  c gray27",
"1  c gray28",
"2  c #494949",
"3  c #4B4B4B",
"4  c gray30",
"5  c #4E4E4E",
"6  c gray31",
"7  c #515151",
"8  c #535353",
"9  c #555555",
"0  c #565656",
"q  c #585858",
"w  c #5A5A5A",
"e  c gray36",
"r  c #5D5D5D",
"t  c #5F5F5F",
"y  c #606060",
"u  c #626262",
"i  c gray39",
"p  c #656565",
"a  c gray40",
"s  c #686868",
"d  c DimGray",
"f  c #6A6A6A",
"g  c #6C6C6C",
"h  c #6D6D6D",
"j  c gray43",
"k  c gray44",
"l  c #717171",
"z  c #727272",
"x  c gray45",
"c  c gray46",
"v  c #767676",
"b  c #777777",
"n  c gray47",
"m  c #797979",
"M  c gray48",
"N  c #7C7C7C",
"B  c gray49",
"V  c #7E7E7E",
"C  c gray50",
"Z  c #808080",
"A  c #818181",
"S  c gray51",
"D  c #838383",
"F  c #848484",
"G  c gray52",
"H  c #868686",
"J  c gray53",
"K  c #888888",
"L  c #898989",
"P  c gray54",
"I  c #8B8B8B",
"U  c gray55",
"Y  c #8D8D8D",
"T  c #8E8E8E",
"R  c gray56",
"E  c #909090",
"W  c gray57",
"Q  c #929292",
"!  c #939393",
"~  c gray58",
"^  c #959595",
"/  c gray59",
"(  c #979797",
")  c #989898",
"_  c gray60",
"`  c #9A9A9A",
"'  c #9B9B9B",
"]  c gray61",
"[  c #9D9D9D",
"{  c gray62",
"}  c #9F9F9F",
"|  c #A0A0A0",
" . c gray63",
".. c #A2A2A2",
"X. c gray64",
"o. c #A4A4A4",
"O. c #A5A5A5",
"+. c gray65",
"@. c #A7A7A7",
"#. c gray66",
"$. c #A9A9A9",
"%. c #AAAAAA",
"&. c gray67",
"*. c #ACACAC",
"=. c gray68",
"-. c #AEAEAE",
";. c #AFAFAF",
":. c gray69",
">. c #B1B1B1",
",. c #B2B2B2",
"<. c gray70",
"1. c #B4B4B4",
"2. c gray71",
"3. c #B6B6B6",
"4. c #B7B7B7",
"5. c gray72",
"6. c #B9B9B9",
"7. c gray73",
"8. c #BBBBBB",
"9. c #BCBCBC",
"0. c gray74",
"q. c gray",
"w. c gray75",
"e. c #C0C0C0",
"r. c #C1C1C1",
"t. c gray76",
"y. c #C3C3C3",
"u. c gray77",
"i. c #C5C5C5",
"p. c #C6C6C6",
"a. c gray78",
"s. c #C8C8C8",
"d. c gray79",
"f. c #CACACA",
"g. c #CBCBCB",
"h. c gray80",
"j. c #CDCDCD",
"k. c #CECECE",
"l. c gray81",
"z. c #D0D0D0",
"x. c gray82",
"c. c #D2D2D2",
"v. c LightGray",
"b. c gray83",
"n. c #D5D5D5",
"m. c gray84",
"M. c #D7D7D7",
"N. c #D8D8D8",
"B. c gray85",
"V. c #DADADA",
"C. c gray86",
"Z. c gainsboro",
"A. c #DDDDDD",
"S. c gray87",
"D. c #DFDFDF",
"F. c gray88",
"G. c #E1E1E1",
"H. c #E2E2E2",
"J. c gray89",
"K. c #E4E4E4",
"L. c gray90",
"P. c #E6E6E6",
"I. c #E7E7E7",
"U. c gray91",
"Y. c #E9E9E9",
"T. c #EAEAEA",
"R. c gray92",
"E. c #ECECEC",
"W. c gray93",
"Q. c #EEEEEE",
"!. c #EFEFEF",
"~. c gray94",
"^. c #F1F1F1",
"/. c gray95",
"(. c #F3F3F3",
"). c #F4F4F4",
"_. c gray96",
"`. c #F6F6F6",
"'. c gray97",
"]. c #F8F8F8",
"[. c #F9F9F9",
"{. c gray98",
"}. c #FBFBFB",
"|. c gray99",
" X c #FDFDFD",
".X c #FEFEFE",
"XX c white",
/* pixels */
"XXXXXXXXXXXXXXXXXXXXXXXXXXXXXXXXXXXXXXXXXXXXXXXXXXXXXXXXXXXXXXXXXXXXXXXXXXXXXXXXXXXXXXXXXXXXXXXXXXXXXXXXXXXXXXXXXXXXXXXXXXXXXXXXXX",
"XXXXXXXXXXXXXXXXXXXXXXXXXXXXXXXXXXXXXXXXXXXXXXXXXXXXXXXXXXXXXXXXXXXXXXXXXXXXXXXXXXXXXXXXXXXXXXXXXXXXXXXXXXXXXXXXXXXXXXXXXXXXXXXXXX",
"XXXXXXXXXXXXXXXXXXXXXXXXXXXXXXXXXXXXXXXXXXXXXXXXXXXXXXXXXXXXXXXXXXXXXXXXXXXXXXXXXXXXXXXXXXXXXXXXXXXXXXXXXXXXXXXXXXXXXXXXXXXXXXXXXX",
"XXXXXXXXXXXXXXXXXXXXXXXXXXXXXXXXXXXXXXXXXXXXXXXXXXXXXXXXXXXXXXXXXX[.S.Q.J.Q.XXXXXXXXXXXXXXXXXXXXXXXXXXXXXXXXXXXXXXXXXXXXXXXXXXXXXX",
"XXXXXXXXXXXXXXXXXXXXXXXXXXXXXXXXXXXXXXXXXXXXXXXXXXXXXXXX[.^.P.J.A.b.z.Q.[.Q.Z.Q.XXXXXXXXXXXXXXXXXXXXXXXXXXXXXXXXXXXXXXXXXXXXXXXXXX",
"XXXXXXXXXXXXXXXXXXXXXXXXXXXXXXXXXXXXXXXXXXXXXXXXXXXXQ.J.b.s.s.N.N.J.B.J.J.Q.[.Q.J.XXXXXXXXXXXXXXXXXXXXXXXXXXXXXXXXXXXXXXXXXXXXXXXX",
"XXXXXXXXXXXXXXXXXXXXXXXXXXXXXXXXXXXXXXXXXXXXXXXXJ.s.-.-.p.&.X.@...@.F f n ' i.l.b.J.[.XXXXXXXXXXXXXXXXXXXXXXXXXXXXXXXXXXXXXXXXXXXX",
"XXXXXXXXXXXXXXXXXXXXXXXXXXXXXXXXXXXXXXXXXXXXXXQ.5.H 1.) ^ b F e i d H m r.` R f.;.>.p.[.XXXXXXXXXXXXXXXXXXXXXXXXXXXXXXXXXXXXXXXXXX",
"XXXXXXXXXXXXXXXXXXXXXXXXXXXXXXXXXXXXXXXXXXXXb.=.Y ~ N N b K ~ >.4.4.) P Y } 8.) 6.3.1.@.[.XXXXXXXXXXXXXXXXXXXXXXXXXXXXXXXXXXXXXXXX",
"XXXXXXXXXXXXXXXXXXXXXXXXXXXXXXXXXXXXXXXXJ.A.R Y k k U &.y.6.p.J.J.f.l.0.A.f.-.&.b.s.8.i.` `.XXXXXXXXXXXXXXXXXXXXXXXXXXXXXXXXXXXXXX",
"XXXXXXXXXXXXXXXXXXXXXXXXXXXXXXXXXXXXXXJ.( N s 0 K Q i.0.*.%.e.Q.Q.XXXXXXA.S.m.+.i.N.m.b.( 1.XXXXXXXXXXXXXXXXXXXXXXXXXXXXXXXXXXXXXX",
"XXXXXXXXXXXXXXXXXXXXXXXXXXXXXXXXXXXXA.+.{ B n g z r h U } ` @.:.b.u.b.V.Q.S.u.t.*.5.N.b.<. .J.XXXXXXXXXXXXXXXXXXXXXXXXXXXXXXXXXXXX",
"XXXXXXXXXXXXXXXXXXXXXXXXXXXXXXXXXXS.1.B j i P =.a.} e.q.p.q.b.j.u.r.-.*.( 6.A.i.{ b.] l.9.! N.Q.XXXXXXXXXXXXXXXXXXXXXXXXXXXXXXXXXX",
"XXXXXXXXXXXXXXXXXXXXXXXXXXXXXXXXZ.o.>.c O.} i.e.j.U.A.Q.l.] 0.r.i.3.z.z.v.8.s.Y.f.X.f._ 4.K y.Z.XXXXXXXXXXXXXXXXXXXXXXXXXXXXXXXXXX",
"XXXXXXXXXXXXXXXXXXXXXXXXXXXXXXZ.x.+.t g D &.5.| 5.1.$.b.W.6.P R _ 3.j.b.b.Q.S.p.6.J.<.<.` Q +.S.Q.XXXXXXXXXXXXXXXXXXXXXXXXXXXXXXXX",
"XXXXXXXXXXXXXXXXXXXXXXXXXXXXQ.v.B k > ~ U B ..8.X.6.W s r M ;.r.l.w.:.u.8.6.6.1.5.} 6.o.| ' [ +.Z.XXXXXXXXXXXXXXXXXXXXXXXXXXXXXXXX",
"XXXXXXXXXXXXXXXXXXXXXXXXXX[.J.<.M 7 _ R E *.e.q.t d Y } 5.8.<.z.l.i.w.%.l.f.f.f.5.r.1.` H j N Q ] b.XXXXXXXXXXXXXXXXXXXXXXXXXXXXXX",
"XXXXXXXXXXXXXXXXXXXXXXXXXXU.e.u 8 j U Y 6.t.t.5.W } X.H F ] ] 6.i.d.l.u.2.z.k.k.y.p.Q.U.r.E 9 @.] Q J.XXXXXXXXXXXXXXXXXXXXXXXXXXXX",
"XXXXXXXXXXXXXXXXXXXXXXXX^.w.C p e P g e.J.<.r.s.p.N.N.A.e.| 1.,.O.1.<.o.3.@.l.N.A.Q.XXXXXXM.k U =.] v.XXXXXXXXXXXXXXXXXXXXXXXXXXXX",
"XXXXXXXXXXXXXXXXXXXXXXXXI.] f < j P %.2.5._ S.XXQ.Q.(.b.l.j.Z.m.N.k.4.9.8.l.j.b.J.Z.J.J.Q.[.,.0.8.' f.XXXXXXXXXXXXXXXXXXXXXXXXXXXX",
"XXXXXXXXXXXXXXXXXXXXXXXXb.<.d u r Y &.' v.1.N.Q.J.0.f.j.k.H.J.S.Q.Q.Y.J.XXQ.Z.S.Q.XX[.[.Q.s.i.R L u.S.XXXXXXXXXXXXXXXXXXXXXXXXXXXX",
"XXXXXXXXXXXXXXXXXXXXXXXX8.} u G } Y s.l.v.>._ S.(.XXXXXX[.^.F.z.Q.Q.Q.XXQ.Q.XXQ.b.b.[.Q.j.z.q.8.~ s.j.XXXXXXXXXXXXXXXXXXXXXXXXXXXX",
"XXXXXXXXXXXXXXXXXXXXXXS.R b s h c { j._ u.s.#.r.N.Z.Q.XXXX'.I.Q.Z.J.Q.XXXXXXXXXX[.1.K.Y.S.l.XXXX3.J.%.!.XXXXXXXXXXXXXXXXXXXXXXXXXX",
"XXXXXXXXXXXXXXXXXXXXXXr.z x h Z I ] X.#.Q.Q.l.c.f.z.B.Q.Q.^.^.XXXX[.Q.XXXXXXXXXXZ.z.Q.j.Z.Z.m.b.s.b.;.a.XXXXXXXXXXXXXXXXXXXXXXXXXX",
"XXXXXXXXXXXXXXXXXXXXXXi.C 8.=.s.z.%.` X.b.Q.g.8.J.N.A.S.Q.m.u.j.Q.[.[.[./.E.Q.J.Z.Q.V.l.I.S.b.1.p.Y.R.f.XXXXXXXXXXXXXXXXXXXXXXXXXX",
"XXXXXXXXXXXXXXXXXXXXXX8.S t.f.J.A.XXJ.N.(.XX[.J.[.[.Q.Q.XXXXXXQ.Q.J.J.J./.R.Q.[.XXXX[.I.,.u.Q.U.Q.Q.u.u.Z.XXXXXXXXXXXXXXXXXXXXXXXX",
"XXXXXXXXXXXXXXXXXXXXXXl.k.B.@.J.u.b.Q.Z.XXXXXXXXXXXXXXXXXXXXXXXXXX[.T.XXXXXXXXXXXXXXXXQ.XXXXXX[.J.e.r.S.XXXXXXXXXXXXXXXXXXXXXXXXXX",
"XXXXXXXXXXXXXXXXXX'.e.m 7 @ 5 a [ 7.A. XT.^.P.0   @ `.XXXXXXXXXXXX.X[.L.    [ XXXXXXXXC.3.V 0 & o = f X.Z.XXXXXXXXXXXXXXXXXXXXXXXX",
"XXXXXXXXXXXXXXXXn.1               x L.Z.S.`.I...    i.XXXXXXXXXXXXXXXX*.    A.XXXXXX}.                    / }.XXXXXXXXXXXXXXXXXXXX",
"XXXXXXXXXXXXXXk..                   N  X[.XXXXQ.    c H.Y.V.Q.XXXXXX|.2   u .XXXXXXX}.                      $.XXXXXXXXXXXXXXXXXXXX",
"XXXXXXXXXXXXW.*     ! A.'. X(.z.y     a.XXXXXXXXJ     k.W.l.s.Z.XXXXm.    0.XXXXXXXX}.w X.x.R.{. X`.H.-..   X `.XXXXXXXXXXXXXXXXXX",
"XXXXXXXXXXXX|     7.XXXXXXXXXXXX(.6   d [.XXXXXXz.    :.XXXXXXXXXXXX~   X /.XXXXXXXXXXXXQ.XXXXXXXXXXXXXX*.    N.XXXXXXXXXXXXXXXXXX",
"XXXXXXXXXX}.#   V XXXXXXXXXXXXXXXX6.    B.Q.XXXX}.,   7  XXXXXXXXX_.+   W XXXXXXXXXX[.Y.V.H.XXXXXXXXXXXXn.    g.XXXXXXXXXXXXXXXXXX",
"XXXXXXXXXXF.    i.XXXXXXXXXXXXXXXXM.    V.H.b.XXXX%.    N.XXXXXXXXi.    m.XXXXXXXXJ.u.b.V.T.c.2._ A a 3 O     s.XXXXXXXXXXXXXXXXXX",
"XXXXXXXXXXz.                            z./.U.XXXXP.    ( XXXXXXXXb   8  XXXXXXX[.L./.W.^ O                   s.XXXXXXXXXXXXXXXXXX",
"XXXXXXXXXXp.                            g.XXXXXXXXXXc   @ `.XXXXT.    <.XXXXXXJ.J.R.m.-                       s.XXXXXXXXXXXXXXXXXX",
"XXXXXXXXXXj.                            f.XXXXXXXXXXp.    i.XXXX,.    E.XXXXXX[.XX Xr     * ] s.Z.U.~.].m.    s.XXXXXXXXXXXXXXXXXX",
"XXXXXXXXXXC.    g.XXXXXXXXXXXXXXXXXXXXXX[.J.XXXXXXXX`.$   b XX X9   D .XXXXXXXXXXXM.    s ^.XXXXXXXXXXXXN.    s.XXXXXXXXXXXXXXXXXX",
"XXXXXXXXXX'.X   _ XXXXXXXXXXXXXXXXXXXXXXXXJ.[.XXXXXXXX[     Y.C.    j..XXXXXXXXXXX,.    a.XXXXXXXXXXXXXXN.    s.XXXXXXXXXXXXXXXXXX",
"XXXXXXXXXXXXR     f.XXXXXXXXXXXXXXXXXXXXXXXXZ.XXXXXXXXA.    :.]   > }.XXXXXXXX[.J.s.    3.XXXXXXXXXXXX|.3.    s.XXXXXXXXXXXXXXXXXX",
"XXXXXXXXXXXXL.O     T b.R.'. X].T.n.,.g `.XXXX'.'.XXXX.Xy   4 $   %.XXXXXXXXXXXXXXL.    # u.~.|.[.U.w.q       s.XXXXXXXXXXXXXXXXXX",
"XXXXXXXXXXXXXXi.                        `.XXQ.I.Z.XXXXXX8.        P.XXXXXXXXXXXXJ.[.D                   O     s.XXXXXXXXXXXXXXXXXX",
"XXXXXXXXXXXXXXXXn.3                   6 ].Q.Q.Q.[.|.|.XX^.X     v XXXXXXXXXXXXXXA.A./.d               } h.    s.XXXXXXXXXXXXXXXXXX",
"XXXXXXXXXXXXXXXXXX{.f.) 0 % + 4 S ,.G..XXXj.Q.Q.XX/./.XXXXT     a.XXXXXXXXXX].Y.Q.Q.Q.Y.8.j # * g -.I.XXN.    s.XXXXXXXXXXXXXXXXXX",
"XXXXXXXXXXXXXXXXXXXXXXXXV.r.}.[.XXXXXXXXXXXXS.b.q.r.J.XXXX[.Q.Q.XXXXXXXX.XY.S.V.Q.Q.Q.S.m.Q.U.J.XXQ.Q.XXXXXXXXXXXXXXXXXXXXXXXXXXXX",
"XXXXXXXXXXXXXXXXXXXXXXZ.U.T u.j.E.[.XXXXXX|.t.N.U.l.Q.J.Z.J.Q.Q.XXXXXXXX[.V.Z.J.Q.Q.b.j.H.Q.r.[ J.3.XXXXXXXX{.XXXXXXXXXXXXXXXXXXXX",
"XXXXXXXXXXXXXXXXXXXXXXZ.Q.G Q q.x.b.S.z.B.F.P.N.j.S.U.[.XXXXXXXXXXXXXXXXQ.Y.Y.Y.S.S.B.;.l.U.1.$.r.U.[.a.4.1.<./.XXXXXXXXXXXXXXXXXX",
"XXXXXXXXXXXXXXXXXXXXXXQ.Q.] 8 K J.U.S.l.p.;.f.J.XXQ.S.T.XXXXXXXXXXXXXXXXQ.b.b.h.b.s.@./ 0.l.| &.i.Q.R f A ~ j V n.T.XXXXXXXXXXXXXX",
"XXXXXXXXXXXXXXXXXXXXXXXXJ.J.U 6 ! p.(.XXXXh.u.U.Y.(.Q.E.|.XXXXXXXXXXXXXXQ.Q.u.j.s.p.1.,.2._ @.u.E.i./ l 9 0 , ; e.n.XXXXXXXXXXXXXX",
"XXXXXXXXXXXXXXXXXXXXXXXXXXJ.k.=.d ;.6.k.Q.Q.(.b.0.0.e.d.L.Y.(.].[.XXXXXX(.x.Y.U.Q.Q.Q.^ K b.XXZ.M.Q v 8 3 @ O + k Z.XXXXXXXXXXXXXX",
"XXXXXXXXXXXXXXXXXXXXXXXXXX[.p.] b N 3.r.i.J.A.M.0.1.' 0.p.b.f.w.z.b.S.p.3 ..b.f.A.f.5.S | k.s.H.' a 8 u 4 $ = X : 4.`.XXXXXXXXXXXX",
"XXXXXXXXXXXXXXXXXXXXXXXXXXXXQ.s./ k  .+.( / ] k.g.E : > ` (.XXXX[.9.r # C X.h.8.( ' $._ } 6.F.>.- @ u *     X $ 0 X.k.XXXXXXXXXXXX",
"XXXXXXXXXXXXXXXXXXXXXXXXXXXXXXQ.*.E V Q ( 1.r.~ v.k.p * * Z X._ l 2 > s v X.B d ] e.&./ y.C.*.3 @ * , O O * * 1 9 n.(.XXXXXXXXXXXX",
"XXXXXXXXXXXXXXXXXXXXXXXXXXXXXXXXQ.&.S x C U 2.+.C R E C * O X + $ * w t F ,.X.T ..d I 9.L.C 7 $ + $ = # * 3 # + h c.XXXXXXXXXXXXXX",
"XXXXXXXXXXXXXXXXXXXXXXXXXXXXXXXXXXs.N.%.w j v o.` ] ~ X.D 8 9 * > p d } I k n M g { l. XM.d r $ + * O X + # O + M :.XXXXXXXXXXXXXX",
"XXXXXXXXXXXXXXXXXXXXXXXXXXXXXXXXXXXXs.6.1.y j v c m c g g y 7 3 7 u u d k t s u f.[.].4.3 - = O X . . X + X . f I.XXXXXXXXXXXXXXXX",
"XXXXXXXXXXXXXXXXXXXXXXXXXXXXXXXXXXXXXXl.;.X.g v d j p L Q %.;.4.%.[ X.-.c q S Q.D.W , + O = $ O O O X 9 > O * 0.|.XXXXXXXXXXXXXXXX",
"XXXXXXXXXXXXXXXXXXXXXXXXXXXXXXXXXXXXXXXXN.0.~ 3 9 q 3 t q p p a F J r 3 S i.A.+.d 4 $ @ ; : O X . . . $ * 1 %.C.XXXXXXXXXXXXXXXXXX",
"XXXXXXXXXXXXXXXXXXXXXXXXXXXXXXXXXXXXXXXXXX(.[.i.u : w x F t 3 e S M d ~ =.&.u # . . . .               u e.W._..XXXXXXXXXXXXXXXXXXX",
"XXXXXXXXXXXXXXXXXXXXXXXXXXXXXXXXXXXXXXXXXXXXXXXX[.@.N d 4 s J P D A ..H : X O # $ O       X O q -.O.y.Q.).W.XXXXXXXXXXXXXXXXXXXXXX",
"XXXXXXXXXXXXXXXXXXXXXXXXXXXXXXXXXXXXXXXXXXXXXXXXXXXXXX[.J.{ L P ` [ * X + * * * @ # 8 h > ! c.E.I.T.[.|.'.XXXXXXXXXXXXXXXXXXXXXXXX",
"XXXXXXXXXXXXXXXXXXXXXXXXXXXXXXXXXXXXXXXXXXXXXXXXXXXXXXXXXXJ.m Y ` i ; $ O 4 - d , L @.j.L.Q.E.{..X|.(._.}.XXXXXXXXXXXXXXXXXXXXXXXX",
"XXXXXXXXXXXXXXXXXXXXXXXXXXXXXXXXXXXXXXXXXXXXXXXXXXXXXXXXXX`.Q.K.` h : R } y.| A.T.!.Y.^.'.}. X X[.`.XXXXXXXXXXXXXXXXXXXXXXXXXXXXXX",
"XXXXXXXXXXXXXXXXXXXXXXXXXXXXXXXXXXXXXXXXXXXXXXXXXXXXXXXXXXXXXX_.Y.T.{.[.R.].{.}. X X X.XXXXXXXXXXXXXXXXXXXXXXXXXXXXXXXXXXXXXXXXXXX",
"XXXXXXXXXXXXXXXXXXXXXXXXXXXXXXXXXXXXXXXXXXXXXXXXXXXXXXXXXXXXXX_.}.|. X.X|.|. X.X.XXXXXXXXXXXXXXXXXXXXXXXXXXXXXXXXXXXXXXXXXXXXXXXXX"
};
