/* XPM */
static char *fac3ba57849e4152c2c213d64d4f2de1zkgBjQbDOn9jx3bq[] = {
/* columns rows colors chars-per-pixel */
"65 65 2 1 ",
"  c None",
". c black",
/* pixels */
"                                                                 ",
"                                                                 ",
"                                                                 ",
"                                                                 ",
"                            ........                             ",
"                          ...........                            ",
"                         ....      ...                           ",
"                         ..          ...                         ",
"                        ..            ..                         ",
"                        ..             ..                        ",
"                        ..             ..                        ",
"                        .   ..     .    .                        ",
"                       ..          .    .                        ",
"                       ..               .                        ",
"                       ..               .                        ",
"                        .     .    .    .                        ",
"                        ..    ..   ..   .                        ",
"                         .    ......   ..                        ",
"                         ..      .   ...                         ",
"                         ...       ....                          ",
"                           ..     ....                           ",
"                            ........                             ",
"                                 .                               ",
"                                 ..                              ",
"                              .....                              ",
"                              .........                          ",
"                            ..............                       ",
"                    ............... .......                      ",
"                  ..... .......  ..     ...                      ",
"       ..       .....            ..      ..                      ",
"        ...... .....             ..      ..                      ",
"         .........               ..      ...          .          ",
"           .                     ..      ..... ...... .          ",
"                                 ..        ............          ",
"                                 ..         ..       ...         ",
"                                 ..                   ..         ",
"                                 ..                              ",
"                                 ..                              ",
"                                 ..                              ",
"                                 ..                              ",
"                                 ..                              ",
"                                 ..                              ",
"                                .....                            ",
"                                .....                            ",
"                               ......                            ",
"                              ...   ..                           ",
"                              ...    .                           ",
"                             ...     ..                          ",
"                             ..      ..                          ",
"                            ..       ..                          ",
"                           ..        ...                         ",
"                           ..         ..                         ",
"                          ..          . .                        ",
"                         ...           ..                        ",
"                         ..            ...                       ",
"                         ..             ...                      ",
"                         ..              ..                      ",
"                         ..              ...                     ",
"                         ..               ..                     ",
"                         ..               ..      ..             ",
"                        ...           ...... .  .                ",
"                     ......           ....                       ",
"                     . ..                                        ",
"                                                                 ",
"                                                                 "
};
