/* XPM */
static char *_69c84503fd140c3a39f48abbe830228BIy0AXh8Ttf5rZVM[] = {
/* columns rows colors chars-per-pixel */
"65 65 2 1 ",
"  c None",
". c black",
/* pixels */
"                                                                 ",
"                                                                 ",
"                                                                 ",
"                                                                 ",
"                              .......                            ",
"                           ...     ....                          ",
"                          ..         ....                        ",
"                         ..            ..                        ",
"                        ..              ..                       ",
"                        ..               .                       ",
"                        .               ..                       ",
"                       ..               ..                       ",
"                       ..   ..     .    ..                       ",
"                       .                .                        ",
"                       .                .                        ",
"                       .                ..                       ",
"                       ..               ..                       ",
"                       ..     ..        .                        ",
"                        ..     .....   ..                        ",
"                          ..    ...    ..                        ",
"                          ...        ...                         ",
"                            ......   ..                          ",
"                             ........                            ",
"                                 .                               ",
"                  .           .  ..                              ",
"              .....     ..... .....                              ",
"              ......   ............                              ",
"             ..  ........ ....   ...                             ",
"             .    .......        ...                             ",
"                       ..        ...                             ",
"                    .. ...       ...                             ",
"                                 ....                            ",
"                                 ....                            ",
"                                 ..... ..                        ",
"                                 ... ........                    ",
"                                 ..  ........                    ",
"                                 ..      .  .                    ",
"                                 ..        . .                   ",
"                                 ..        . .                   ",
"                                ...          .                   ",
"                               ....        .                     ",
"                           .........                             ",
"                        .......   ..                             ",
"                      ....         ..         ..                 ",
"                     ...           ...      ....                 ",
"                     ...             ..    ... ..                ",
"                     ..              ........  ..                ",
"                     ..                ...     ..                ",
"                     ..                 .      .                 ",
"                    ...                        .                 ",
"                    ..                                           ",
"                    ..                                           ",
"                    ..                                           ",
"                    ..                                           ",
"             .........                                           ",
"             .......                                             ",
"                                                                 ",
"                                                                 ",
"                                                                 ",
"                                                                 ",
"                                                                 ",
"                     .  ....                                     ",
"                                        ....                     ",
"                                                                 ",
"                                                                 "
};
