/* XPM */
static char *dc7e311292f64a0cf329ba121006436fFD3ikn2szFgAXO3z[] = {
/* columns rows colors chars-per-pixel */
"65 65 2 1 ",
"  c None",
". c black",
/* pixels */
"                                                                 ",
"                                                                 ",
"                                                                 ",
"                                                                 ",
"                            ......                               ",
"                         ..............                          ",
"                         ...        ...                          ",
"                        ..            ..                         ",
"                        ..              ..                       ",
"                        .               ..                       ",
"                        .                .                       ",
"                       ..   ..    .      .                       ",
"                       ..   ..    .      .                       ",
"                       ..                .                       ",
"                       .                ..                       ",
"                       .                .                        ",
"                       ..    ..         .                        ",
"                        .    ..  ...    .                        ",
"                        ..   .......   ..                        ",
"                          .            .                         ",
"                           ..         ..                         ",
"                           ............                          ",
"                              ........                           ",
"                                ..                               ",
"                              ......                             ",
"                             .......                             ",
"                             .......                             ",
"                            ... .....                            ",
"                           .... .. ...                           ",
"              .     ....  ..   ...   ..       ....               ",
"              .    .. ... ..    ..   ...    ......               ",
"               ..  ..  ...      ..    .......    ..              ",
"               ... ..           ..      ..       .               ",
"                ....            ..               ..              ",
"                 ...            ..                ..             ",
"                 . .            ..                               ",
"                                ..                               ",
"                                ..                               ",
"                                ..                               ",
"                               ....                              ",
"                               ....                              ",
"                               . ..                              ",
"                             ..  ...                             ",
"                             ..   ..                             ",
"                            ..    ..                             ",
"                           ..     ..                             ",
"                          ..      ..                             ",
"                         ...      ..                             ",
"                         ..        .                             ",
"                         ..        .                             ",
"                          ..       ..                            ",
"                          ..       ......                        ",
"                           .        .........                    ",
"                           ..           .....                    ",
"                           ..              ..                    ",
"                           ..              ..                    ",
"                            ..            ..                     ",
"                           . .            ..   ...               ",
"                         ....             .                      ",
"                       .....              .                      ",
"                      ...   ..                                   ",
"                      ..                                         ",
"                                                                 ",
"                                                                 ",
"                                                                 "
};
