/* XPM */
static char *_aba50a402fd4372e6883bfb34d01014xD9f1NAAgPCNKZgb[] = {
/* columns rows colors chars-per-pixel */
"65 65 2 1 ",
"  c None",
". c black",
/* pixels */
"                                                                 ",
"                                                                 ",
"                                                                 ",
"                                                                 ",
"                                                                 ",
"                             .........                           ",
"                           ... ...   ..                          ",
"                         ....         ...                        ",
"                        ...             .                        ",
"                       ...              ..                       ",
"                      ...                .                       ",
"                      ..                 .                       ",
"                      ..     ..    .     .                       ",
"                      .       .          ..                      ",
"                     ..                  ..                      ",
"                     ..                 ...                      ",
"                     ...                ..                       ",
"                      ..     ...        ..                       ",
"                       ..     .....    ..                        ",
"                        ...           ...                        ",
"                         ...         ...                         ",
"                           ....     .....                        ",
"                             ..........                          ",
"                             .......                             ",
"                                 ...                             ",
"                                ....                             ",
"                              ........                           ",
"                  ...         .. .......                         ",
"                ......       ..  .. .....                        ",
"               ..   ..       ..  ..    ..                        ",
"              .      ..      ..  ..     ...                      ",
"              .      ...     .   ..      ..                      ",
"                      ..    ..   .       ....                    ",
"                      ..   ...   .        ...                    ",
"                       .....     ..        ...                   ",
"                         ..      ..          ..                  ",
"                                 .           ...                 ",
"                                 .            ...                ",
"                                 .              ....             ",
"                                 .                               ",
"                                 .                               ",
"                                ...                              ",
"                                ...                              ",
"                               ....                              ",
"                              .....                              ",
"                              .. ...                             ",
"                             ...  ... .                          ",
"                             ...   ....                          ",
"                           ....     .....                        ",
"                           ....       ....                       ",
"                           ....        ........                  ",
"                             ..         .......                  ",
"                              ..        ..    ..                 ",
"                              ..              ...                ",
"                              ...              ..                ",
"                               ..              ....             .",
"                                .              ....        ....  ",
"                               ..              . .      .        ",
"                              ..                . ...            ",
"                             ...      ..       ..                ",
"                            ... ...                              ",
"                            .. .                                 ",
"                          .                                      ",
"                                                                 ",
"                                                                 "
};
