/* XPM */
static char *result[] = {
/* columns rows colors chars-per-pixel */
"65 65 202 2 ",
"   c black",
".  c gray5",
"X  c #1B1B1B",
"o  c gray11",
"O  c #202020",
"+  c #222222",
"@  c gray15",
"#  c gray16",
"$  c #2A2A2A",
"%  c gray17",
"&  c gray18",
"*  c gray19",
"=  c #323232",
"-  c gray20",
";  c #343434",
":  c #353535",
">  c #373737",
",  c gray22",
"<  c #3A3A3A",
"1  c gray23",
"2  c gray24",
"3  c #3F3F3F",
"4  c gray25",
"5  c #414141",
"6  c gray26",
"7  c #444444",
"8  c gray27",
"9  c #464646",
"0  c gray28",
"q  c #484848",
"w  c #494949",
"e  c #4B4B4B",
"r  c #4C4C4C",
"t  c gray30",
"y  c #4E4E4E",
"u  c gray31",
"i  c #515151",
"p  c gray32",
"a  c #535353",
"s  c gray33",
"d  c #555555",
"f  c #565656",
"g  c #585858",
"h  c gray35",
"j  c #5A5A5A",
"k  c #5B5B5B",
"l  c gray36",
"z  c #5D5D5D",
"x  c gray37",
"c  c #5F5F5F",
"v  c #606060",
"b  c #626262",
"n  c gray39",
"m  c #646464",
"M  c #656565",
"N  c gray40",
"B  c #686868",
"V  c DimGray",
"C  c #6A6A6A",
"Z  c #6C6C6C",
"A  c #6D6D6D",
"S  c gray43",
"D  c gray44",
"F  c #717171",
"G  c #727272",
"H  c gray45",
"J  c #747474",
"K  c gray46",
"L  c #767676",
"P  c #777777",
"I  c gray47",
"U  c #797979",
"Y  c gray48",
"T  c #7C7C7C",
"R  c gray49",
"E  c #7E7E7E",
"W  c gray50",
"Q  c #808080",
"!  c #818181",
"~  c gray51",
"^  c #838383",
"/  c #848484",
"(  c gray52",
")  c #868686",
"_  c gray53",
"`  c #888888",
"'  c #898989",
"]  c gray54",
"[  c #8B8B8B",
"{  c gray55",
"}  c #8D8D8D",
"|  c #8E8E8E",
" . c gray56",
".. c #909090",
"X. c gray57",
"o. c #929292",
"O. c #939393",
"+. c gray58",
"@. c gray59",
"#. c #979797",
"$. c #989898",
"%. c gray60",
"&. c #9A9A9A",
"*. c #9B9B9B",
"=. c gray61",
"-. c #9D9D9D",
";. c gray62",
":. c #9F9F9F",
">. c #A0A0A0",
",. c gray63",
"<. c #A2A2A2",
"1. c gray64",
"2. c #A4A4A4",
"3. c #A5A5A5",
"4. c gray65",
"5. c #A7A7A7",
"6. c gray66",
"7. c #A9A9A9",
"8. c #AAAAAA",
"9. c gray67",
"0. c #ACACAC",
"q. c gray68",
"w. c #AEAEAE",
"e. c #AFAFAF",
"r. c #B1B1B1",
"t. c #B2B2B2",
"y. c gray70",
"u. c #B4B4B4",
"i. c gray71",
"p. c #B6B6B6",
"a. c #B7B7B7",
"s. c gray72",
"d. c #B9B9B9",
"f. c gray73",
"g. c #BBBBBB",
"h. c #BCBCBC",
"j. c gray74",
"k. c gray",
"l. c gray75",
"z. c #C0C0C0",
"x. c #C1C1C1",
"c. c gray76",
"v. c gray77",
"b. c #C5C5C5",
"n. c #C6C6C6",
"m. c gray78",
"M. c #C8C8C8",
"N. c gray79",
"B. c #CACACA",
"V. c #CBCBCB",
"C. c gray80",
"Z. c #CDCDCD",
"A. c #CECECE",
"S. c gray81",
"D. c #D0D0D0",
"F. c gray82",
"G. c #D2D2D2",
"H. c LightGray",
"J. c gray83",
"K. c #D5D5D5",
"L. c gray84",
"P. c #D7D7D7",
"I. c #D8D8D8",
"U. c gray85",
"Y. c #DADADA",
"T. c gray86",
"R. c gainsboro",
"E. c #DDDDDD",
"W. c gray87",
"Q. c #DFDFDF",
"!. c gray88",
"~. c #E1E1E1",
"^. c #E2E2E2",
"/. c gray89",
"(. c #E4E4E4",
"). c gray90",
"_. c #E6E6E6",
"`. c #E7E7E7",
"'. c gray91",
"]. c #E9E9E9",
"[. c #EAEAEA",
"{. c gray92",
"}. c #ECECEC",
"|. c gray93",
" X c #EEEEEE",
".X c #EFEFEF",
"XX c gray94",
"oX c #F1F1F1",
"OX c gray95",
"+X c #F3F3F3",
"@X c #F4F4F4",
"#X c gray96",
"$X c #F6F6F6",
"%X c gray97",
"&X c #F8F8F8",
"*X c #F9F9F9",
"=X c gray98",
"-X c #FBFBFB",
";X c gray99",
":X c #FDFDFD",
">X c #FEFEFE",
",X c white",
/* pixels */
",X,X,X,X,X,X,X,X,X,X,X,X,X,X,X,X,X,X,X,X,X,X,X,X,X,X,X,X,X,X,X,X,X,X,X,X,X,X,X,X,X,X,X,X,X,X,X,X,X,X,X,X,X,X,X,X,X,X,X,X,X,X,X,X,X",
",X,X,X,X,X,X,X,X,X,X,X,X,X,X,X,X,X,X,X,X,X,X,X,X,X,X,X,X,X,X,X,X,X,X,X,X,X,X,X,X,X,X,X,X,X,X,X,X,X,X,X,X,X,X,X,X,X,X,X,X,X,X,X,X,X",
",X,X,X,X,X,X,X,X,X,X,X,X,X,X,X,X,X,X,X,X,X,X,X,X,X,X,X,X,X,X,X,X,X,X,X,X,X,X,X,X,X,X,X,X,X,X,X,X,X,X,X,X,X,X,X,X,X,X,X,X,X,X,X,X,X",
",X:X*X=X*X*X&X%X=X=X=X;X;X;X;X;X;X;X;X;X;X;X;X;X;X;X;X-X-X-X-X-X=X=X=X=X*X|.}.}.}.}.}.}.&X&X&X&X&X&X&X&X%X=X;X-X-X,X,X,X,X,X,X,X,X",
":Xk.L Q H I A z Q ! ~ 9.q.q.q.q.q.q.q.q.q.0.0.0.9.9.8.o.,.,.>. ._ _ _ _ Y Y U S S S S S S S S S S S S A b ! 8.1.3.-X,X,X,X,X,X,X,X",
";Xt.G I c i l u Z S S L L L L L L L L L K B N N g f u 1 e 8 t d d d d d j N B H K K K K S S S S S S S S C c d :.e.;X,X,X,X,X,X,X,X",
">XJ.B 5.! t.u.u.p.F.M.M.M.M.M.M.M.M.M.m.p.m.m.1.m.h.H.`.[.@X[.{.$X$X$X$X%X&X&X*X*X*X*X*X&X&X&X&X&X&X&X&X#X;.1 Q K.>X,X,X,X,X,X,X,X",
">XT., #.p.P.I.I.P.e.l.z.z.z.z.z.z.z.z.z.P.U.Y.-X:X:X>X,X,X,X,X,X,X,X,X,X,X,X,X,X,X,X,X,X,X,X,X,X,X,X,X,X;X7.& / L.>X,X,X,X,X,X,X,X",
">XR.1 ( d.-X>X>X>X;X:X:X:X:X:X:X:X:X:X:X>X>X>X,X,X,X,X,X,X,X,X,X,X,X,X,X,X,X,X,X,X,X,X,X,X,X,X,X,X,X,X,X:Xg.= L V.:X,X,X,X,X,X,X,X",
">XT.= _ L.>X,X,X,X,X,X,X,X,X,X,X,X,X,X,X,X,X,X,X,X,X,X,X,X,X,X,X,X,X,X,X,X,X,X,X,X,X,X,X,X,X,X,X,X,X,X,X:XM.e D N.:X,X,X,X,X,X,X,X",
">XR., a.~.>X,X,X,X,X,X,X,X,X,X,X,X,X,X,X,X,X,X,X,X,X,X,X,X,X,X,X,X,X,X,X,X,X,X,X,X,X,X,X,X,X,X,X,X,X,X,X>XR.w A s.;X,X,X,X,X,X,X,X",
",X}.Z M.$X,X,X,X,X,X,X,X,X,X,X,X,X,X,X,X,X,X,X,X,X@XG ,X,X,X,X,X,X,X,X,X,X,X,X,X,X,X,X,X,X,X,X,X,X,X,X,X,X-X0.[ P.>X,X,X,X,X,X,X,X",
",X;Xr.y.;X,X,X,X,X,X,X,X,X,X,X,X,X,X,X,X,X,X,X,X,X@XG ,X Xk ,X,X,X,X,X,X,X,X,X,X,X,X,X$XA ,X,X$XA ,X,X,X,X:Xc.W &X,X,X,X,X,X,X,X,X",
",X>XD.m.:X,X,X,X,X,X,X,X,X,X,X,X,X,X,X,X,X,X,X,X,X@XG ,X,X,X,X,X,X,X,X,X,X,X,X,X,X,X,X$XA ,X,X$XA ,X,X,X,X,X.XZ.:X,X,X,X,X,X,X,X,X",
",X>X[.x.p ] 1 ' p.g w H.,X,Xg.a t u.,X XQ ,X,Xg.M.@XG ,X@XG ,X@Xl %.4 T $X,Xv.l 8 w.,X+.    { +.    { ,Xv.l 7 3.,X,X,X,X,X,X,X,X,X",
",X,X@XQ.i (.=X_ 9.$XE.U ,XW.R +X$X' L. XQ ,X,Xg.M.@XG ,X@XG ,X@Xi ^.%XM n.~.' +X=X:.R.$XA ,X,X$XA ,X,X~.' +X=X;.R.,X,X,X,X,X,X,X,X",
",X>XP.t.F ,X,Xq.J.,X%XB ,Xv.g.,X,Xm.g. XQ ,X,Xg.M.@XG ,X@XG ,X@XG ,X$X5 s.b.        v.$XA ,X,X$XA ,X,Xb.        k.,X,X,X,X,X,X,X,X",
",X,X;XXXG ,X,Xq.J.,X&XB ,XW.T +X$X' L.#Xa #XoXX.M.@XG ,X@XG ,X@XG ,X&Xa y.Q...OX,X,X,X*Xu %X,X*Xu %X,XQ...OX>X/./.>X,X,X,X,X,X,X,X",
",X>XT.D.F ,X,Xq.J.,X&XB ,X,Xg.i t u.,X,Xq.1 L { M.@XG ,X@XG ,X@XG ,X&Xy g.,Xb.n $ n Q.,X1.& *.,X1.& *.,Xb.n $ n W.,X,X,X,X,X,X,X,X",
",X,X Xz.-X,X,X,X,X,X,X,X,X,X,X,X,X,X,X,X,X,X,X,X,X,X,X,X,X,X,X,X,X,X,X&X,X,X,X,X,X,X,X,X,X,X,X,X,X,X,X,X,X,X,X#X$X,X,X,X,X,X,X,X,X",
",X>XT.d.I.>X,X,X,X,X,X,X,X,X,X,X,X,X,X,X,X,X,X,X,X,X,X,X,X>X,X,X,X,X,X,X,X,X,X,X,X,X,X,X,X,X,X,X,X,X,X,X,X,X-X7.j.:X,X,X,X,X,X,X,X",
",X>XI.^ g.-X,X>X>X>X>X>X>X:X:X:X:X:X;X-X;X;X;X-X-X-X-X-X-X-X-X-X-X-X-X-X-X-X.X X X X X X X X X X X X|.}.}.}.{.E.z.:X,X,X,X,X,X,X,X",
",X>XL.! X.G.].).(.W.W.W.E.z.k.k.j.f.8.$.8.0.u.>.:.:.:.:.>.>.>.>.>.>.O.o.o.O.>.>.>.>.:.>.:.>.>.:.>.:.( I P V S 4 @.-X,X,X,X,X,X,X,X",
",X:Xg.4 t C j c c l l l l B B B t & 0 u t i w i a a a a z N B B B B Z n A A D D D D c S c S S c S j A Y B 6 a $ 8 #X,X,X,X,X,X,X,X",
",X:XA.d ..@X$XQ.W.N.M.M.N.K.K.K.m.>.4.6.f.$.@.#.#.#.#.@.' ~ ! ! ! ! ~ o.~ ~ ( / / / F ^ G / / G / &.*.*.E g & 1 N &X,X,X,X,X,X,X,X",
",X,X$Xb #.-X,X>X>X:X:X:X:X>X>X>X:X-X;X-XT.=X-X-X-X-X-X-X=X=X=X=X=X=X=X-X=X=X=X=X=X=X&X=X&X=X=X&X=X-X-X-X%XW.0.n ( =X,X,X,X,X,X,X,X",
",X,X&XB #.-X,X,X,X,X,X,X,X,X,X,X,X,X,X,X>X,X,X,X,X,X,X,X,X,X,X,X,X,X,X,X,X,X,X,X,X,X,X,X,X,X,X,X,X,X,X,X,X>X=Xt.f %X,X,X,X,X,X,X,X",
",X,X}.i K *X,X,X,X,X,X,X,X,X,X,X,X,X>X:X,X,X,X,X,X,X,X,X,X,X,X,X,X,X,X,X,X,X,X,X,X,X,X,X,X,X,X,X,X,X,X,X,X,X:XM.S *X,X,X,X,X,X,X,X",
",X,X%XS ' =X,X,X,X,X,X,X,X,X,X,X,X,X,X,X,X,X,X,X,X,X,X,X,X,X,X,X,X,X,X,X,X,X,X,X,X,X,X,X,X,X,X,X,X,X,X,X,X,X;Xw.c %X,X,X,X,X,X,X,X",
",X,X&Xc :.-X,X,X,X,X,X,X,X,X,X,X,X,X,X,X,X,X,X,X,X,X,X,X,X,X,X,X,X,X,X,X,X,X,X,X,X,X,X,X,X,X,X,X,X,X,X,X,X,X>XJ.S }.,X,X,X,X,X,X,X",
",X,X%Xc >.-X,X,X,X,X,X,X,X,X,X,X,X,X,X,X,X,X,X,X,X,X,X,X,X,X,X,X,X,X,X,X,X,X,X,X,X,X,X,X,X,X,X,X,X,X,X,X,X,X>XL.Y Q.>X,X,X,X,X,X,X",
",X,X}.B ,.-X,X,X,X,X,X,X,X,X,X,X,X,X,X,X,X,X,X,X,X,X,X,X,X,X,X,X,X,X,X,X,X,X,X,X,X,X,X,X,X,X,X,X,X,X,X,X,X,X,X{.T B.:X,X,X,X,X,X,X",
",X,X{.l r.;X,X,X,X,X,X,X,X,X,X,X,X,X,X,X,X,X,X,X,X,X,X,X>X;X;X-X;X>X,X,X,X,X,X,X,X,X,X,X,X,X,X,X,X,X,X,X,X,X>XI.=.s.;X,X,X,X,X,X,X",
",X,X{.l r.;X,X,X,X,X,X,X,X,X,X,X,X,X,X,X,X,X,X,X,X>X*X#XY.9.9.+.0.T.'.$X>X,X,X,X,X,X,X,X,X,X,X,X,X,X,X,X,X,X,X X%.<.-X,X,X,X,X,X,X",
",X,X{.l r.;X,X,X,X,X,X,X,X,X,X,X,X,X,X,X,X,X=XT.^.g.F 3 = 2 h 2 q 9 6 x t.A..X:X.X:X*Xc. X#X,X,X,X,X,X,X,X,X,X*X^ / &X,X,X,X,X,X,X",
",X,X{.l r.;X,X,X,X,X,X,X,X,X,X,X,X,X,X;X-X,X).}.m O ; > J } 5.s.$.P r < X - k. Xh..X:XoX&X$X,X,X,X,X,X,X,X,X,X=X{ o.I.>X,X,X,X,X,X",
",X,X{.f 9.;X,X,X,X,X,X,X,X,X,X,X,X,X-X7.V.Y.x.3 1 6.{.).].:X#X*X#X/.E.[.U % * K.&X=X$XF.,X-Xj.,X,X,X,X,X,X,X,X:Xm.Y ].,X,X,X,X,X,X",
",X,X].e G.>X,X,X,X,X,X,X,X,X,X,X,X,X}.m 2.D.~ o t.+X;XB.OX,X=X=X,X-X|.OX;XW.u = l.;X].{.>X$X(.,X,X,X,X,X,X,X,XXXt.B w.;X,X,X,X,X,X",
",X>XW.a J.>X,X,X,X,X,X,X,X,X,X,X,X,X{.2 D / # +.k.S.R.+X%XOXOXOX$X+XW.A.P.XXB.a ; e.Y.F.E..X{.{.I.%X,X,X,X,X,X;Xg.H e.;X,X,X,X,X,X",
",X>XT.a J.>X,X,X,X,X,X,X,X,X,X,X=XK.G.< x 8 s A.c.S.Q.oX`.m.N.m.U.H.v.R.(.oX!.,.v < )._.E..X_./.s.I.,X,X,X,X,X-X4.5.F &X,X,X,X,X,X",
",X-X1.t '.,X,X,X,X,X,X,X,X,X,X+X+XOXU.6 - l :.6.Z l.*XoX,X,X,X X+X,X,X,X,X,X:XOXi.C 9.#X,X;X-X,X&X+X-X,X,X,X,X>XQ.[ A [.,X,X,X,X,X",
",X-XO.g [.,X,X,X,X,X,X,X,X>X+Xc.{.:X).o o $ g I A }.,X,X,X,X,X,X,X,X,X,X>X,X,X,X;XOXK *X,X,X,X,X,X+X].,X,X,X,X,X-Xq.G u.-X,X,X,X,X",
",X-X#.G }.,X,X,X,X,X,X,X,X;XOX].:X,XZ.8 = g.A.+X=X>X,X,X,X,X,X,X,X,X,X,X,X,X,X,X,X,X*X,X,X,X,X>X>X>X].I.,X,X,X,X,X[.S p.I.>X,X,X,X",
",X}._ Y *X,X,X,X,X,X,X:X/.g.].,X,X>X*Xg.q.-X:X,X,X,X,X,X,X>X>X>X>X,X,X,X,X,X,X>X>X,X>X>X>X>X>X>X,X,X-XY.,X,X,X,X,X*XD d.e.;X,X,X,X",
";Xs.O.<.-X,X,X,X,X,X=XF.`.%X-X,X,X,X,X:X;X,X,X,X;X:X,X,X,X,X,X,X,X>X>X,X,X;X=Xj.P.,X,X,X,X,X>X,X,X,X>XXXC.,X,X,X,X=X/ ^ h. X,X,X,X",
"=X{ / p.;X,X,X,X,X,X XJ.$X,X,X,X,X,X,X,X,X,X,X>X>X>X,X>X:X,X>X,X,X,X,X,X-Xy.P : X.-X,X,X>X>X,X>X,X,X>X-X|..X,X,X,X>XK.O.a.h.;X,X,X",
";X9.G ;.-X,X,X,X>X*X].-X,X>X,X-X>X,X,X>X>X,X:X;X:X>X,X,X,X,X,X,X,X>X>X$XU.: 1 . ^ =X,X,X:X>X,X,X,X,X,X,X-XB.%X,X,X,X}. .M.I.>X,X,X",
"-X<.! B.:X,X:X'.F.(.,X,X,X,X,X,X,X,X>X~.H.>X,X,X,X,X,X,X,X,X,X,X,X>X_.j @ 0 z o Y =X,X,X,X,X,X,X-X,X>X:X>Xd.F.,X,X>XQ.V *.P.>X,X,X",
"-X:.C [.;X).K.Z.[.,X,X,X,X,X,X,X,X,X:XG.) +X,X,X,X,X,X,X,X,X,X,X,X{.Q j x.t.$ M u '.,X,X,X,X,X:X:X,X,X,X,X;X X'.+X,X|.' %.P.>X,X,X",
"$XV #.=XoXW.P.%X,X,X,X,X,X,X,X,X,X,X,X`.4 T %X,X,X,X,X,X,X,X,X,X;Xu.8..XA.! & u.= ,.=X,X,X,X,X,X,X,X,X,X,X,X$XS.j.%X*XR a H.>X,X,X",
"d.C >./.'.&X,X,X,X,X,X,X,X,X,X,X,X,X,X-X4.2 p.-X>X,X,X,X,X,X,X,X,X=X%XK.f + O.oXG 1 g.:X,X,X,X,X,X,X,X,X,X,X,X-Xm.!.,XXXw F.>X,X,X",
"B.' =.s.+X,X,X,X,X,X,X,X,X,X,X,X,X,X,X,X%XW 4 y.I.-X,X,X,X,X,X:X*XE.A.2 + x.v.;X%XM..X,X,X,X,X,X,X,X,X,X,X,X,X-Xv.u.,X$Xa h.;X,X,X",
"2.| O.z.,X,X,X,X,X,X,X,X,X,X,X,X,X,X,X,X,X#XT 6 3.t.$X-X>X;X&Xv._ I 0 6 S H. X,X,X:X,X,X,X,X,X,X,X,X,X,X,X,X,X>X$XR.>X=X` / |.,X,X",
"r.@.2.-X,X,X,X,X,X,X,X,X,X,X,X,X,X,X,X,X,X,X$X:.0 l b ' B.e.) = & 2 C :.(.-X,X,X,X,X,X,X,X,X,X,X,X,X,X,X,X,X,X,X,X].j.=X] ~ }.,X,X",
"K T [.,X,X,X,X,X,X,X,X,X,X,X,X,X,X,X,X,X,X,X,X-X/.M l i $ $ 4 v ..b.|.=X>X,X,X,X,X,X,X,X,X,X,X,X,X,X,X,X,X,X,X,X,X-Xc.J.] ! F.:X,X",
"=.[.>X,X,X,X,X,X,X,X,X,X,X,X,X,X,X,X,X,X,X,X,X,X,X%X%X[.D.).].%X-X:X,X,X,X,X,X,X,X,X,X,X,X,X,X,X,X,X,X,X,X,X,X,X,X,X#XC.! v x.-X,X",
"-X,X,X,X,X,X,X,X,X,X,X,X,X,X,X,X,X,X,X,X,X,X,X,X,X,X,X,X>X,X,X,X,X,X,X,X,X,X,X,X,X,X,X,X,X,X,X,X,X,X,X,X,X,X,X,X,X,X>XB.Y u U K.>X",
",X,X,X,X,X,X,X,X,X,X,X,X,X,X,X,X,X,X,X,X,X,X,X,X,X,X,X,X,X,X,X,X,X,X,X,X,X,X,X,X,X,X,X,X,X,X,X,X,X,X,X,X,X,X,X,X,X,X,X:Xm.b { &.=X",
",X,X,X,X,X,X,X,X,X,X,X,X,X,X,X,X,X,X,X,X,X,X,X,X,X,X,X,X,X,X,X,X,X,X,X,X,X,X,X,X,X,X,X,X,X,X,X,X,X,X,X,X,X,X,X,X,X,X,X,X;XH.-.U K.",
",X,X,X,X,X,X,X,X,X,X,X,X,X,X,X,X,X,X,X,X,X,X,X,X,X,X,X,X,X,X,X,X,X,X,X,X,X,X,X,X,X,X,X,X,X,X,X,X,X,X,X,X,X,X,X,X,X,X,X,X,X>X-X$Xt.",
",X,X,X,X,X,X,X,X,X,X,X,X,X,X,X,X,X,X,X,X,X,X,X,X,X,X,X,X,X,X,X,X,X,X,X,X,X,X,X,X,X,X,X,X,X,X,X,X,X,X,X,X,X,X,X,X,X,X,X,X,X,X,X,X;X",
",X,X,X,X,X,X,X,X,X,X,X,X,X,X,X,X,X,X,X,X,X,X,X,X,X,X,X,X,X,X,X,X,X,X,X,X,X,X,X,X,X,X,X,X,X,X,X,X,X,X,X,X,X,X,X,X,X,X,X,X,X,X,X,X,X",
",X,X,X,X,X,X,X,X,X,X,X,X,X,X,X,X,X,X,X,X,X,X,X,X,X,X,X,X,X,X,X,X,X,X,X,X,X,X,X,X,X,X,X,X,X,X,X,X,X,X,X,X,X,X,X,X,X,X,X,X,X,X,X,X,X",
",X,X,X,X,X,X,X,X,X,X,X,X,X,X,X,X,X,X,X,X,X,X,X,X,X,X,X,X,X,X,X,X,X,X,X,X,X,X,X,X,X,X,X,X,X,X,X,X,X,X,X,X,X,X,X,X,X,X,X,X,X,X,X,X,X",
",X,X,X,X,X,X,X,X,X,X,X,X,X,X,X,X,X,X,X,X,X,X,X,X,X,X,X,X,X,X,X,X,X,X,X,X,X,X,X,X,X,X,X,X,X,X,X,X,X,X,X,X,X,X,X,X,X,X,X,X,X,X,X,X,X"
};
