/* XPM */
static char *result[] = {
/* columns rows colors chars-per-pixel */
"65 65 176 2 ",
"   c black",
".  c #2A2A2A",
"X  c gray18",
"o  c #323232",
"O  c gray22",
"+  c gray23",
"@  c gray25",
"#  c #414141",
"$  c gray26",
"%  c #444444",
"&  c gray27",
"*  c gray28",
"=  c #494949",
"-  c #4B4B4B",
";  c gray30",
":  c #4E4E4E",
">  c gray31",
",  c #515151",
"<  c gray32",
"1  c #535353",
"2  c #555555",
"3  c #565656",
"4  c #585858",
"5  c #5A5A5A",
"6  c #5B5B5B",
"7  c gray36",
"8  c #5D5D5D",
"9  c #5F5F5F",
"0  c #606060",
"q  c #626262",
"w  c gray39",
"e  c #656565",
"r  c gray40",
"t  c #686868",
"y  c DimGray",
"u  c #6A6A6A",
"i  c #6C6C6C",
"p  c #6D6D6D",
"a  c gray43",
"s  c gray44",
"d  c #717171",
"f  c #727272",
"g  c gray45",
"h  c gray46",
"j  c #767676",
"k  c #777777",
"l  c gray47",
"z  c #797979",
"x  c gray48",
"c  c #7C7C7C",
"v  c gray49",
"b  c #7E7E7E",
"n  c gray50",
"m  c #808080",
"M  c #818181",
"N  c gray51",
"B  c #838383",
"V  c #848484",
"C  c gray52",
"Z  c gray53",
"A  c #888888",
"S  c #898989",
"D  c gray54",
"F  c #8B8B8B",
"G  c gray55",
"H  c #8E8E8E",
"J  c gray56",
"K  c #909090",
"L  c gray57",
"P  c #929292",
"I  c #939393",
"U  c gray58",
"Y  c gray59",
"T  c #979797",
"R  c #989898",
"E  c gray60",
"W  c #9A9A9A",
"Q  c #9B9B9B",
"!  c gray61",
"~  c #9D9D9D",
"^  c gray62",
"/  c #9F9F9F",
"(  c #A0A0A0",
")  c gray63",
"_  c #A2A2A2",
"`  c gray64",
"'  c #A4A4A4",
"]  c #A5A5A5",
"[  c gray65",
"{  c #A7A7A7",
"}  c gray66",
"|  c #A9A9A9",
" . c #AAAAAA",
".. c gray67",
"X. c #ACACAC",
"o. c gray68",
"O. c #AEAEAE",
"+. c #AFAFAF",
"@. c gray69",
"#. c #B1B1B1",
"$. c #B2B2B2",
"%. c gray70",
"&. c #B4B4B4",
"*. c #B6B6B6",
"=. c #B7B7B7",
"-. c gray72",
";. c #B9B9B9",
":. c gray73",
">. c #BBBBBB",
",. c #BCBCBC",
"<. c gray74",
"1. c gray",
"2. c gray75",
"3. c #C0C0C0",
"4. c #C1C1C1",
"5. c gray76",
"6. c gray77",
"7. c #C5C5C5",
"8. c #C6C6C6",
"9. c gray78",
"0. c #C8C8C8",
"q. c gray79",
"w. c #CACACA",
"e. c #CBCBCB",
"r. c gray80",
"t. c #CDCDCD",
"y. c #CECECE",
"u. c gray81",
"i. c #D0D0D0",
"p. c gray82",
"a. c #D2D2D2",
"s. c LightGray",
"d. c gray83",
"f. c #D5D5D5",
"g. c gray84",
"h. c #D7D7D7",
"j. c #D8D8D8",
"k. c gray85",
"l. c #DADADA",
"z. c gray86",
"x. c gainsboro",
"c. c #DDDDDD",
"v. c gray87",
"b. c #DFDFDF",
"n. c gray88",
"m. c #E1E1E1",
"M. c #E2E2E2",
"N. c gray89",
"B. c #E4E4E4",
"V. c gray90",
"C. c #E6E6E6",
"Z. c #E7E7E7",
"A. c gray91",
"S. c #E9E9E9",
"D. c #EAEAEA",
"F. c gray92",
"G. c #ECECEC",
"H. c gray93",
"J. c #EEEEEE",
"K. c #EFEFEF",
"L. c gray94",
"P. c #F1F1F1",
"I. c gray95",
"U. c #F3F3F3",
"Y. c #F4F4F4",
"T. c gray96",
"R. c #F6F6F6",
"E. c gray97",
"W. c #F8F8F8",
"Q. c #F9F9F9",
"!. c gray98",
"~. c #FBFBFB",
"^. c gray99",
"/. c #FDFDFD",
"(. c #FEFEFE",
"). c white",
/* pixels */
").).).).).).).).).).).).).).).).).).).).).).).).).).).).).).).).).).).).).).).).).).).).).).).).).).).).).).).).).).).).).).).).).",
").).).).).).).).).).).).).).).).).).).).).).).).).).).).).).).).).).).).).).).).).).).).).).).).).).).).).).).).).).).).).).).).).",
").).).).).).).).).).).).).).).).).).).).).).).).).).).).).).).).).).).).).).).).).).).).).).).).).).).).).).).).).).).).).).).).).",
")./.Q.!.Q.Q.W.E.!.!.!.^.^.^.^.^.^.^.^.^.^.^.^.^.^.^.^.~.~.~.~.~.!.!.!.!.Q.H.G.G.G.G.G.G.W.W.W.W.W.W.W.W.E.!.^.~.~.).).).).).).).).",
"/.1.j m g l p 8 m M N ..o.o.o.o.o.o.o.o.o.X.X.X..... .P ) ) ( J Z Z Z Z x x z a a a a a a a a a a a a p q M  .` ] ~.).).).).).).).",
"^.$.f l 9 , 7 > i a a j j j j j j j j j h t r r 4 3 > + - & ; 2 2 2 2 2 5 r t g h h h h a a a a a a a a u 9 2 / +.^.).).).).).).).",
"(.d.t { M $.&.&.*.p.0.0.0.0.0.0.0.0.0.9.*.9.9.` 9.,.s.Z.D.Y.D.F.R.R.R.R.E.W.W.Q.Q.Q.Q.Q.W.W.W.W.W.W.W.W.T.^ + m f.(.).).).).).).).",
"(.z.O T *.h.j.j.h.+.2.3.3.3.3.3.3.3.3.3.h.k.l.~././.(.).).).).).).).).).).).).).).).).).).).).).).).).).^.| X V g.(.).).).).).).).",
"(.x.+ C ;.~.(.(.(.^././././././././././.(.(.(.).).).).).).).).).).).).).).).).).).).).).).).).).).).).)./.>.o j e./.).).).).).).).",
"(.z.o Z g.(.).).).).).).).).).).).).).).).).).).).).).).).).).).).).).).).).).).).).).).).).).).).).).)./.0.- s q./.).).).).).).).",
"(.x.O =.m.(.).).).).).).).).).).).).).).).).).).).).).).).).).).).).).).).).).).).).).).).).).).).).).).(.x.= p -.^.).).).).).).).",
").G.i 0.R.).).).).).).).).).).).).).).).).).).).).Y.f ).).).).).).).).).).).).).).).).).).).).).).).).).).~.X.F h.(.).).).).).).).",
").^.#.%.^.).).).).).).).).).).).).).).).).).).).).Y.f ).J.6 ).).).).).).).).).).).).).R.p ).).R.p ).).).)./.5.n W.).).).).).).).).",
").(.i.9./.).).).).).).).).).).).).).).).).).).).).Y.f ).).).).).).).).).).).).).).).).R.p ).).R.p ).).).).).K.t./.).).).).).).).).",
").(.D.4.< D + S *.4 = s.).).>.1 ; &.).J.m ).).>.0.Y.f ).Y.f ).Y.7 E @ c R.).6.7 & O.).U     G U     G ).6.7 % ] ).).).).).).).).).",
").).Y.b., B.!.Z ..R.c.z ).v.v U.R.S g.J.m ).).>.0.Y.f ).Y.f ).Y., M.E.e 8.m.S U.!./ x.R.p ).).R.p ).).m.S U.!.^ x.).).).).).).).).",
").(.h.$.d ).).o.d.).E.t ).6.>.).).9.>.J.m ).).>.0.Y.f ).Y.f ).Y.f ).R.# -.7.        6.R.p ).).R.p ).).7.        1.).).).).).).).).",
").).^.L.f ).).o.d.).W.t ).v.c U.R.S g.T.1 T.P.L 0.Y.f ).Y.f ).Y.f ).W.1 %.b.K I.).).).Q.> E.).Q.> E.).b.K I.(.N.N.(.).).).).).).).",
").(.z.i.d ).).o.d.).W.t ).).>., ; &.).).o.+ j G 0.Y.f ).Y.f ).Y.f ).W.: >.).7.w . w b.).` X Q ).` X Q ).7.w . w v.).).).).).).).).",
").).J.3.~.).).).).).).).).).).).).).).).).).).).).).).).).).).).).).).W.).).).).).).).).).).).).).).).).).).).T.R.).).).).).).).).",
").(.z.;.j.(.).).).).).).).).).).).).).).).).).).).).).).).(.).).).).).).).).).).).).).).).).).).).).).).).).~.| <./.).).).).).).).",
").(.j.B >.~.).(.(.(.(.(.(./././././.^.~.^.^.^.~.~.~.~.~.~.~.~.~.~.~.~.~.~.~.K.J.J.J.J.J.J.J.J.J.J.J.H.G.G.G.F.c.3./.).).).).).).).",
").(.g.M L a.S.V.B.v.v.v.c.3.1.1.<.:. .R  .X.&.( / / / / ( ( ( ( ( ( I P P I ( ( ( ( / ( / ( ( / ( / C l k y a @ Y ~.).).).).).).).",
")./.>.@ ; u 5 9 9 7 7 7 7 t t t ; X * > ; , = , 1 1 1 1 8 r t t t t i w p p s s s s 9 a 9 a a 9 a 5 p x t $ 1 . & T.).).).).).).).",
")./.y.2 K Y.R.b.v.q.0.0.q.f.f.f.9.( [ } :.R Y T T T T Y S N M M M M N P N N C V V V d B f V V f V W Q Q b 4 X + r W.).).).).).).).",
").).R.q T ~.).(.(././././.(.(.(./.~.^.~.z.!.~.~.~.~.~.~.!.!.!.!.!.!.!.~.!.!.!.!.!.!.W.!.W.!.!.W.!.~.~.~.E.v.X.w C !.).).).).).).).",
").).W.t T ~.).).).).).).).).).).).).).).(.).).).).).).).).).).).).).).).).).).).).).).).).).).).).).).).).(.!.$.3 E.).).).).).).).",
").).G., h Q.).).).).).).).).).).).).(./.).).).).).).).).).).).).).).).).).).).).).).).).).).).).).).).).).)./.0.a Q.).).).).).).).",
").).E.a S !.).).).).).).).).).).).).).).).).).).).).).).).).).).).).).).).).).).).).).).).).).).).).).).).).^.O.9 E.).).).).).).).",
").).W.9 / ~.).).).).).).).).).).).).).).).).).).).).).).).).).).).).).).).).).).).).).).).).).).).).).).).).(.d.a G.).).).).).).).",
").).E.9 ( ~.).).).).).).).).).).).).).).).).).).).).).).).).).).).).).).).).).).).).).).).).).).).).).).).).(.g.x b.(.).).).).).).",
").).G.t ) ~.).).).).).).).).).).).).).).).).).).).).).).).).).).).).).).).).).).).).).).).).).).).).).).).).).F.c w./.).).).).).).",
").).F.7 #.^.).).).).).).).).).).).).).).).).).).).).).).).).).).).).).).).).).).).).).).).).).).).).).).).).(.j.! -.^.).).).).).).",
").).F.7 #.^.).).).).).).).).).).).).).).).).).).).).).).).).).).).).).(.).).).).).).).).).).).).).).).).).).).J.E _ ~.).).).).).).",
").).F.7 #.^.).).).).).).).).).).).).).).).).!.z.S.F.W.f.R.).E.e.t./.K.R.j.j.K./.K./.Q.5.J.T.).).).).).).).).).Q.B V W.).).).).).).",
").).F.7 #.^.).).).).).).).).).).).).).).).).Z.~.l.v.^.A.D.!.r.a.g.J.@./.E.Q.p.J.,.K./.P.W.R.).).).).).).).).).!.G P j.(.).).).).).",
").).F.3 ..^.).).).).).).).).).).).).).).E.n.Z.Z.).g.Y.D.G.).E./.!.A.N.R.=.I.N.E.!.!.R.p.).~.<.).).).).).).).)./.9.x S.).).).).).).",
").).S.- a.(.).).).).).).).).).).).).).Q.Y.Z.R././.R.^.w.I.).!.!.).~.H.I.).).).).).).S.F.(.R.B.).).).).).).).).L.$.t O.^.).).).).).",
").(.v.1 d.(.).).).).).).).).).).).).).7.g.:.k.b.e.u.x.U.E.I.I.I.R.U.v.y.h.P.B.a.f.c.z.p.c.K.F.F.j.E.).).).).).^.>.g +.^.).).).).).",
").(.z.1 d.(.).).).).).).).).).).!.f.z.G.0.f.4.l.p.f.b.P.Z.9.q.9.k.s.6.x.B.P.M.7.h.c.P.C.c.K.C.N.-.j.).).).).).~.[ { d W.).).).).).",
").~.` ; A.).).).).).).).).).).U.U.I.I.).Q.Q.).).).).~.P.).).).J.U.).).).).)./.R.).).T.W.).^.~.).W.U.~.).).).).(.b.F p D.).).).).).",
").~.I 4 D.).).).).).).).).(.U.5.F././.(.(.).).).).).).).).).).).).).).).(.).).).).).).).).).).).).U.S.).).).).).~.o.f &.~.).).).).",
").~.T f G.).).).).).).).).^.I.S./.).).).).).).).).).).).).).).).).).).).).).).).).).).).).).).(.(.(.S.j.).).).).).D.a *.j.(.).).).",
").G.Z x Q.).).).).).)./.N.>.S.).).(.)./.).(./.).).).).).).(.(.(.(.).).).).).).).(.).(.(.(.(.(.(.).).~.l.).).).).).Q.s ;.+.^.).).).",
"^.-.I _ ~.).).).).).!.p.Z.E.~.).).).).).).).).).^./.).).).).).).).(.(.).).).).).).).).).).).(.).).).(.L.r.).).).).!.V B ,.J.).).).",
"!.G V *.^.).).).).).J.d.R.).).).).).).).).).).(.(.(.).(./.).(.).).).).).).).(.).).).).).(.(.).(.).).(.~.H.K.).).).(.f.I =.,.^.).).",
"^...f ^ ~.).).).(.Q.S.~.).(.).~.(.).).).).)./.^./.(.).).).).).).).(.).).).).).).).(.).)./.(.).).).).).).~.w.E.).).).G.J 0.j.(.).).",
"~._ M w./.)./.A.p.B.).).).).).).).).).(.).).).).).).).).).).).).).).).).).).).(.).).).).).).).).~.).(./.(.;.p.).).(.b.y Q h.(.).).",
"~./ u D.^.V.f.t.D.).).).).).).).).).).).).(.).).).).).).).).).).).).).).).).).).).).).).).).)././.).).).).^.J.A.U.).H.S E h.(.).).",
"R.y T !.P.v.h.E.).).).).).).).).).).).).).).).).).).).).).).).).).).).).).).).).).).).).).).).).).).).).).).R.u.<.E.Q.v 1 s.(.).).",
";.u ( N.A.W.).).).).).).).).).).).).).).).).).).).).).).).).).).).).).).).).).).).).).).).).).).).).).).).).).~.9.n.).L.= p.(.).).",
"w.S ! -.U.).).).).).).).).).).).).).).).).).).).).).).).).).).).).).).).).).).).).).).).).).).).).).).).).).).~.6.&.).R.1 ,.^.).).",
"' H I 3.).).).).).).).).).).).).).).).).).).).).).).).).).).).).).).).).).).).).).).).).).).).).).).).).).).).(.R.x.(.!.A V H.).).",
"#.Y ' ~.).).).).).).).).).).).).).).).).).).).).).).).).).).).).).).).).).).).).).).).).).).).).).).).).).).).).).S.<.!.D N G.).).",
"h c D.).).).).).).).).).).).).).).).).).).).).).).).).).).).).).).).).).).).).).).).).).).).).).).).).).).).).).).~.5.d.D M p./.).",
"! D.(.).).).).).).).).).).).).).).).).).).).).).).).).).).).).).).).).).).).).).).).).).).).).).).).).).).).).).).).T.r.M 0 4.~.).",
"~.).).).).).).).).).).).).).).).).).).).).).).).).).).).).).).).).).).).).).).).).).).).).).).).).).).).).).).).).).(.w.x > z f.(.",
").).).).).).).).).).).).).).).).).).).).).).).).).).).).).).).).).).).).).).).).).).).).).).).).).).).).).).).).).).)./.9.q G W !.",
").).).).).).).).).).).).).).).).).).).).).).).).).).).).).).).).).).).).).).).).).).).).).).).).).).).).).).).).).).).).^.s.~ z f.",
").).).).).).).).).).).).).).).).).).).).).).).).).).).).).).).).).).).).).).).).).).).).).).).).).).).).).).).).).).).).).(.~.R.$.",
").).).).).).).).).).).).).).).).).).).).).).).).).).).).).).).).).).).).).).).).).).).).).).).).).).).).).).).).).).).).).).).).^.",
").).).).).).).).).).).).).).).).).).).).).).).).).).).).).).).).).).).).).).).).).).).).).).).).).).).).).).).).).).).).).).).).).",
").).).).).).).).).).).).).).).).).).).).).).).).).).).).).).).).).).).).).).).).).).).).).).).).).).).).).).).).).).).).).).).).).",
").).).).).).).).).).).).).).).).).).).).).).).).).).).).).).).).).).).).).).).).).).).).).).).).).).).).).).).).).).).).).).).).).",
").).).).).).).).).).).).).).).).).).).).).).).).).).).).).).).).).).).).).).).).).).).).).).).).).).).).).).).).).).).).).).).).)."
};
