/* XPM */
static char *_24a4d141b814c658c2ee4d9756c5a6am81JD1zf1ANsxxHS[] = {
/* columns rows colors chars-per-pixel */
"65 65 60 1 ",
"  c black",
". c gray5",
"X c #161616",
"o c gray11",
"O c #222222",
"+ c gray15",
"@ c #2A2A2A",
"# c gray18",
"$ c #323232",
"% c #353535",
"& c gray22",
"* c #3C3C3C",
"= c gray26",
"- c gray28",
"; c #494949",
": c gray30",
"> c #535353",
", c #565656",
"< c #585858",
"1 c gray36",
"2 c gray39",
"3 c #656565",
"4 c #686868",
"5 c #6C6C6C",
"6 c #717171",
"7 c gray46",
"8 c gray48",
"9 c gray49",
"0 c gray51",
"q c #868686",
"w c #888888",
"e c gray56",
"r c #909090",
"t c #959595",
"y c #989898",
"u c #9D9D9D",
"i c #A0A0A0",
"p c #A7A7A7",
"a c gray67",
"s c #AEAEAE",
"d c gray70",
"f c #B6B6B6",
"g c #B9B9B9",
"h c gray",
"j c #C3C3C3",
"k c gray77",
"l c #CBCBCB",
"z c #CDCDCD",
"x c #D2D2D2",
"c c #D5D5D5",
"v c gray86",
"b c gray87",
"n c #E1E1E1",
"m c #E7E7E7",
"M c #E9E9E9",
"N c #ECECEC",
"B c #F1F1F1",
"V c gray96",
"C c #F8F8F8",
"Z c #FDFDFD",
/* pixels */
"4-$  .#<r7&.  #8dy9:o;*X.. +&.#90$o;ed7%+<3+o%2>:4974>X.+252-+.  ",
"1@. .+11<=OO.  #8ya;o-$$=*+:8$,0%owxbbi1*7i;%Oo+9axg04=.X-,:o. ..",
"5-.  o<1*&47%;%O:yr@o%+=#@<>#.X%.:nBBj2&-3q4#@X%6rddgd<X+=@o..o*.",
"4+.XXo@>7q7*<y1Oo%#o#->4-:87o @5;5Mmh4$$-1ip@<#*5q0hmg812=.o+ .+o",
"o#&. +O=>=Oo4ue5-X@%<3;4wq4>=@=r58zs82<&>qjk45>-8ssgr>rw0X .#o.#%",
"O@Oo=*... .%0udj8%;$-we>%*%209-$=,r2:1>73-,3:>:@yf86wt969:O$6<o  ",
".+==:;..$36446pdw,;o=ew:;4r4,51=+@1==ycMvt&:q,X -4ilMk832:#$,;o..",
"O65=&$. +yq:1wq65*,47;#%:rhr5dxg7<<&2vVBk5o>1<<o.rMmlq>>@@O..OX#*",
"7r1<75$X =56471@O#187*+1dcgfbBVMly42qmMj0:+$1kx9$ejp5:67-XXXX.$90",
"ii3qa9;$ X#194==eju,-6>ymvazNBBVNzpuanbcf6-6yxbg==-#o2yhp&o$+@-72",
"><waetr32ay6>=2iMCx75p6pvkxMBVVVVMlxcBCVh3#$,6ye=+&+&snMc:X#oOo*9",
"o<96ahi9sNVnu2icBVbeus,68tbVNMbbVMspxnMc0;05-><##:6:0mVmj&.@,=O*q",
"><8uggaqxNVBf4acBCxqat;@X8hjhfgvMg,&*$,5w0ggi9;*tnf3inca9$.O78*.O",
"qy798q0wxmMNk69ylhq=,,-@#7y89yfkseaju:6ga7qds5*8xnr,isuty2@#,5%  ",
"2w4-@*47pvBBj2;1;oo#%1yu26wtzMh77cZZbwpziq62&936t8*:0ikls01&5=X .",
".oO..@31:whk8$$;&..O6zVVk4$3u0-5lCZZbszvhxcu>01XO+%=4xcayks*-O. o",
"%,;..,kxq2q75:2us610lNCBmqXo=*#9cCCVjpcmmVCv3--1tye1*u8wlnp2>,O.*",
"9kdO.>7u0:=7r3hBxwtcNBCVn0O#12>rmZNf3aMBVVCM0,9lVZVs<7qanh907p-X$",
"jct..OO,5,;7ehMnt1umNNVBl82rxk0;8eypsfcVVVVVu4iMVVNd7r5igui9er#..",
"zu:X=&.-45=;abh7$*sMBVNk48rxBmi384aMNvmZZCCm9<imBVby56<2ekg0q;#&X",
",%-$o..Xo@o@,1-oo:sBVMj9;7pnCbahMczBCnlcmmce#>0jMBxupt,oeng5=X$&O",
"o*4;. o-:#OO@O,e5+5pi4;733ibNzgmCcidjy3:46<%o->3pzzzmmw.-it2$OO&o",
"Oo.XoO5s0@@==5pvd:@1ey9;@,9sfpvCvepnBBmzg8@;<qa80hvNVCp..9sr>=&X ",
";$o=33sp:4tjt0tfr>1595>=*;,=%1gzq4lCCCCZBi%2lj78pbBVBm0+@;ti,O@X ",
"840714i33qxmw&7y37hxh9$80$**&@:2-9cVVCZZMqO9Nv1@5dvmlr956,%=&+OO$",
"5usu3*-,:3pw%X#%;fBVMp:sa2rtq1wzh9jVCZZVl1X5ja-+14ee52g30,%@OX.O&",
"o=5w,.X<4@##%>rr8amVMp>uq,2>,40w7<rlmmcfq:@#;=%6gzjy16i+;440-+.. ",
"6r5-Oo%&#.@qp7fmcijmxe%;%3><smNni;->,4rkvg9,oO2gMZZBg:$.2aei<=;o ",
"#=-44<1;%=1q8:8shi788<#XoO-unVZCbr;4anVVVba7O,jNBCCCl,=9et744uf1.",
"X*77>850e>2eq;%-26,&1-&=o$7lNVVBnu3dMZCCVmd2@tNCVCCMr-7bd&#*wgy4@",
"$4<36<8jl937u0*4ss0pka8=X-sMVVCVc09xCCZZCNl7;rmBBVMi2=gBu. o=;<:X",
"*2>0w6smvarww6-uj9iMNkd7#*evCZVl0-9xCZZCVVbprraaade<4qck> .;*XOo@",
"$663=2fbjgjq<@*04<fNBgree7*8pstegf9exCZZCNxjbl3&1&O>qrf5+$,;=XO%@",
".=0u5,0a85rq<O&<29lBBd53pla0&>inCCz65tfljagbBb9<ie*#<,y7>dxt7&=9X",
"&7ylxr:*%5wug837qrvNc830eyfh90cZZCne*@>rdhvVZMrynn6X&5r;umNxy$2t>",
"=56uhw=>=<snc953>4ep83icztgnfubZCZbw8hmVZVVCZNdzMl1.%,>#exvbf>>7w",
"#@O+*:,yqqljigf1@O&>:ycVMsnnuevZZVj7fBCZCBbnNbfsi95:yp0;198q5%@*,",
"*o@*:&=554piaku-&*,3,gNVlekhdffhhp5qvCCZVcarut8<<wi3hxjaw5=O@Xo+&",
"#:4=%%;;17ieis91eipf50aa4;2uxkq:145aMZZVvdq564,=4fi4sxnMj&$O. O#@",
"X;uq*=35324qyt3qlMcji1-&Oo>edjffflxcNZCngyugxzf67iq,ebVBx;*@O@XoO",
".2ur=*294:76qwwyhmz06-o:02=1wpt80dvBCCNjrsbNCCBgqur,5kxji&#%<2.o+",
"+*:-.@9i84dzcla7tjhgu**gcq&@=:=:0skNZBmjhmCZZZCmate,70428*==75+&X",
"O..#%@6sqtjdutrte9gBm7>yu3=06&6hbmvmVBldbCCZZZZCnai<rs9iz8::07@#=",
"X.o8:-Xo-21*5ulNnjxVb9yzck8>=5zVVBVnnBbjbZCCCCZCny<%1ueud4*<0;.$4",
"@O@25*O%XX-9phkNCVBNdibVVCbi<pNZCVCNcMNxbVmmBNMnf5=39qq04*O-;. o&",
"#o.+<%X@XoqvBMnvNBMk8kVVCZZbqebCZVZMhbNxkvkagjdr1>ecbci211#.. .o%",
". o$;2,&O>0zMBCvchsetnVVVVCCh8fBZCZcpnBlyay6672-*9vCCCk47y1OooXO>",
" +3&<hbi;tdeszmgq431rxMcbBCZbagfjbxtsmMf36etddi5*iVCCCz5-<--=$.@o",
".+&o4lbz58kp32q07u0;6hMgvCZCbe4qr83<lcd5+;szmMce=qnVNbi:*=##%-oO.",
" +@O1iknf5dp4rjutmc9rfvdNCCCc76gxd5>pe>*+;fzvng4%=wfi08ty92&=0<#.",
".#:1*2jBvyy,0ga5lBbrjsefVNMml6qizcp33wq3;2yifi74w5;,2qjzspje;2;O.",
"6ue6-=ykd**;91*1mnd3gj1zMzcbf485ujursdae84214;5gbd=%2gMvshht4=o  ",
"wt05%4649&euui82ptirrh5fjpvk0*=2we20htufu3O$;;imNd*+>dcjty7ww$o..",
"57ti*184u;lbt63,-9hk87=36es3>;#<9<o2ghlfq2%yftxBbp1@=ud814867*@:,",
"#3ir$$>16=iz9;1ew>8e4>;>O-162;71:-&tbmbd494hhpbBji1%$3e-#>q:<<<ii",
".%=O&>=%*@:4-1,w9$:rwww1.X,5=$07%<-ejkaq382qqannu91:=*-*o#%O%::87",
"  .*3,Oo><%.XO#>#<yp0pa<.+0r9@33%&#,3359*&31-rsu,*3<63%+XOX.%eu4#",
"   #%&2t0<=OoX67:7uuypi,<0psa:$o .O22%==XX%$+>3:XX,ui3+#*&++O4e0*",
"X .O+,gms:6>o#585--qe64qacMMmu+  ..oXoXo..O&**,$+X*13$@4y8=1@<id2",
"-o .O0xMh<s8##&21@%<:=0jtkMMNg#oO.X    ..XO:2*O-5,&X+O&er5;w4446&",
"1;+;wkMBs9l4oX.18,4t6@pi:578w9:*;#OX+. .%3@+@#-3yi*.$3=<2*:5<4*&o",
"34,=umNv820#.  -3>7rr<7wip5%9p,34=;X.  O6q2145wetj:$:e<Oo+@++,+X@",
"*25o&qu4>%@@o  ;=o>44=-yhfe;t02ui>;O. .+>7uyt9gjyh2&-1:%1o.X@*. X",
";-%..o  ..#O@:++oo15%%&>w822w;8de*2;O   @80352kzr8>=-*3*:o..+=OXO",
"<%X.$*o .Xo#%1,o $%$+4:%tr>>11pp91<*X   o#@oO&ad5O**,44>&XX+#Oo.+"
};
