/* XPM */
static char *result[] = {
/* columns rows colors chars-per-pixel */
"65 65 2 1 ",
"  c black",
". c None",
/* pixels */
".................................................................",
".................................................................",
".................................................................",
".................................................................",
".................................................................",
".................................................................",
".................................................................",
".................................................................",
".................................................................",
".................................................................",
".................................................................",
".................................................................",
".................................................................",
".................................................................",
".................................................................",
".................................................................",
".................................................................",
".................................................................",
".................................................................",
".................................................................",
".................................................................",
".................................................................",
".................................................................",
".................................................................",
".................................................................",
".................................................................",
".................................................................",
".................................................................",
".................................................................",
".................................................................",
".................................................................",
".................................................................",
".............................            ........................",
".........................                    ....................",
"......................                          .................",
".....................                            ................",
"....................                              ...............",
"...................                                ..............",
"...................                                ..............",
"...................                                ..............",
"....................                              ...............",
".....................                            ................",
"......................                          .................",
".........................                    ....................",
".............................            ........................",
".................................................................",
".................................................................",
".................................................................",
".................................................................",
".................................................................",
".................................................................",
".................................................................",
".................................................................",
".................................................................",
".................................................................",
".................................................................",
".................................................................",
".................................................................",
".................................................................",
".................................................................",
".................................................................",
".................................................................",
".................................................................",
".................................................................",
"................................................................."
};
