/* XPM */
static char *result[] = {
/* columns rows colors chars-per-pixel */
"65 65 116 2 ",
"   c black",
".  c gray5",
"X  c #161616",
"o  c gray11",
"O  c #222222",
"+  c gray15",
"@  c #2A2A2A",
"#  c gray18",
"$  c #323232",
"%  c #353535",
"&  c #3A3A3A",
"*  c gray23",
"=  c gray24",
"-  c gray25",
";  c gray26",
":  c gray27",
">  c gray28",
",  c #4B4B4B",
"<  c gray30",
"1  c gray31",
"2  c #515151",
"3  c #555555",
"4  c #585858",
"5  c #5A5A5A",
"6  c #5B5B5B",
"7  c gray36",
"8  c #5D5D5D",
"9  c #626262",
"0  c gray39",
"q  c #656565",
"w  c #686868",
"e  c #6A6A6A",
"r  c #717171",
"t  c #727272",
"y  c gray46",
"u  c #767676",
"i  c #797979",
"p  c #7C7C7C",
"a  c gray50",
"s  c #808080",
"d  c #818181",
"f  c #838383",
"g  c #848484",
"h  c gray52",
"j  c #868686",
"k  c gray53",
"l  c gray54",
"z  c gray55",
"x  c gray57",
"c  c #929292",
"v  c gray58",
"b  c gray59",
"n  c #989898",
"m  c gray62",
"M  c #A0A0A0",
"N  c gray64",
"B  c #A4A4A4",
"V  c gray66",
"C  c #AAAAAA",
"Z  c #ACACAC",
"A  c #AEAEAE",
"S  c gray69",
"D  c #B2B2B2",
"F  c #B4B4B4",
"G  c #B9B9B9",
"H  c gray74",
"J  c gray",
"K  c #C0C0C0",
"L  c gray76",
"P  c gray77",
"I  c #C6C6C6",
"U  c #C8C8C8",
"Y  c #CBCBCB",
"T  c #CECECE",
"R  c gray81",
"E  c #D0D0D0",
"W  c gray82",
"Q  c #D2D2D2",
"!  c gray83",
"~  c gray84",
"^  c #D7D7D7",
"/  c #D8D8D8",
"(  c #DADADA",
")  c gray86",
"_  c gainsboro",
"`  c #DDDDDD",
"'  c gray87",
"]  c #DFDFDF",
"[  c gray88",
"{  c #E2E2E2",
"}  c gray89",
"|  c gray90",
" . c #E7E7E7",
".. c gray91",
"X. c #E9E9E9",
"o. c #EAEAEA",
"O. c gray92",
"+. c gray93",
"@. c #EEEEEE",
"#. c #EFEFEF",
"$. c gray94",
"%. c #F1F1F1",
"&. c gray95",
"*. c #F3F3F3",
"=. c #F4F4F4",
"-. c gray96",
";. c #F6F6F6",
":. c gray97",
">. c #F8F8F8",
",. c #F9F9F9",
"<. c gray98",
"1. c #FBFBFB",
"2. c gray99",
"3. c #FDFDFD",
"4. c #FEFEFE",
"5. c white",
/* pixels */
"5.5.5.5.5.5.5.5.5.5.5.5.5.5.5.5.5.5.5.5.5.5.5.5.5.5.5.5.5.5.5.5.5.5.5.5.5.5.5.5.5.5.5.5.5.5.5.5.5.5.5.5.5.5.5.5.5.5.5.5.5.5.5.5.5.",
"5.5.5.5.5.5.5.5.5.5.5.5.5.5.5.5.5.5.5.5.5.5.5.5.5.5.5.5.5.5.5.5.5.5.5.5.5.5.5.5.5.5.5.5.5.5.5.5.5.5.5.5.5.5.5.5.5.5.5.5.5.5.5.5.5.",
"5.5.5.5.5.5.5.5.5.5.5.5.5.5.5.5.5.5.5.5.5.5.5.5.5.5.5.5.5.5.5.5.5.5.5.5.5.5.5.5.5.5.5.5.5.5.5.5.5.5.5.5.5.5.5.5.5.5.5.5.5.5.5.5.5.",
"5.5.5.5.5.5.5.5.5.5.5.5.5.5.5.5.5.5.5.5.5.5.5.5.5.5.5.5.5.5.5.5.5.5.5.5.5.5.5.5.5.5.5.5.5.5.5.5.5.5.5.5.5.5.5.5.5.5.5.5.5.5.5.5.5.",
"5.5.5.5.5.5.5.5.5.5.5.5.5.5.5.5.5.5.5.5.5.5.5.5.5.5.5.5.5.5.4.5.5.5.5.5.5.5.5.5.5.5.5.5.5.5.5.5.5.5.5.5.5.5.5.5.5.5.5.5.5.5.5.5.5.",
"5.5.5.5.5.5.5.5.5.5.5.5.5.5.5.5.5.5.5.5.5.5.5.5.5.5.5.5.5.5.5.5.5.5.5.5.5.5.5.5.5.5.5.5.5.5.5.5.5.5.5.5.5.5.5.5.5.5.5.5.5.5.5.5.5.",
"5.5.5.5.5.5.5.5.5.5.5.5.5.5.5.5.5.5.5.5.5.5.5.5.5.5.5.5.5.5.5.5.5.5.5.5.5.5.5.5.5.5.5.5.5.5.5.5.5.5.5.5.5.5.5.5.5.5.5.5.5.5.5.5.5.",
"5.5.5.5.5.5.5.5.5.5.5.5.5.5.5.5.5.5.5.5.5.5.5.5.5.5.5.5.5.5.5.5.5.5.5.5.5.5.5.5.5.5.5.5.5.5.5.5.5.5.5.5.5.5.5.5.5.5.5.5.5.5.5.5.5.",
"5.5.5.5.5.5.5.5.5.5.5.5.5.5.5.5.5.5.5.5.5.5.5.5.5.5.5.5.5.5.5.5.5.5.5.5.5.5.5.5.5.5.5.5.5.5.5.5.5.5.5.5.5.5.5.5.5.5.5.5.5.5.5.5.5.",
"5.5.5.5.5.5.5.5.5.5.5.5.5.5.5.5.5.5.5.5.5.5.5.5.5.5.5.5.5.5.5.5.5.5.5.5.5.5.5.5.5.5.5.5.5.5.5.5.5.5.5.5.5.5.5.5.5.5.5.5.5.5.5.5.5.",
"5.5.5.5.5.5.5.5.5.5.5.5.5.5.5.5.5.5.5.5.5.5.5.5.5.5.5.5.5.5.5.5.5.5.5.5.5.5.5.5.5.5.5.5.5.5.5.5.5.5.5.5.5.5.5.5.5.5.5.5.5.5.5.5.5.",
"5.5.5.5.5.5.5.5.5.5.5.5.5.5.5.5.5.5.5.5.5.5.5.5.5.5.5.5.5.5.5.5.5.5.5.5.5.5.5.5.5.5.5.5.5.5.5.5.5.5.5.5.5.5.5.5.5.5.5.5.5.5.5.5.5.",
"5.5.5.5.5.5.5.5.5.5.5.5.5.5.5.5.5.5.5.5.5.5.5.5.5.5.5.5.5.4.5.5.5.5.5.5.5.5.5.5.5.5.5.5.5.5.5.5.5.5.5.5.5.5.5.5.5.5.5.5.5.5.5.5.5.",
"5.5.5.5.5.5.5.5.5.5.5.5.5.5.5.5.5.5.5.5.5.5.5.5.5.5.5.5.5.5.5.5.5.5.5.5.5.5.5.5.5.5.5.5.5.5.5.5.5.5.5.5.5.5.5.5.5.5.5.5.5.5.5.5.5.",
"5.5.5.5.5.5.5.5.5.5.5.5.5.5.5.5.5.5.5.5.5.5.5.5.5.5.5.5.5.5.5.5.5.5.5.5.5.5.5.5.5.5.5.5.5.5.5.5.5.5.5.5.5.5.5.5.5.5.5.5.5.5.5.5.5.",
"5.5.5.5.5.5.5.5.5.5.5.5.5.5.5.5.5.5.5.5.5.5.5.5.5.5.5.5.5.5.5.5.5.5.5.5.5.5.5.5.5.5.5.5.5.5.5.5.5.5.5.5.5.5.5.5.5.5.5.5.5.5.5.5.5.",
"5.5.5.5.5.5.5.5.5.5.5.5.5.5.5.5.5.5.5.5.5.5.5.5.5.5.5.5.5.5.5.5.5.5.5.5.5.5.5.5.5.5.5.5.5.5.5.5.5.5.5.5.5.5.5.5.5.5.5.5.5.5.5.5.5.",
"5.5.5.5.5.5.5.5.5.5.5.5.5.5.5.5.5.5.5.5.5.5.5.5.5.5.5.5.5.5.5.5.5.5.5.5.5.5.5.5.5.5.5.5.5.5.5.5.5.5.5.5.5.5.5.5.5.5.5.5.5.5.5.5.5.",
"5.5.5.5.5.5.5.5.5.5.5.5.5.5.5.5.5.5.5.5.5.5.5.5.5.5.5.5.5.5.5.5.5.5.5.5.5.5.5.5.5.5.5.5.5.5.5.5.5.5.5.5.5.5.5.5.5.5.5.5.5.5.5.5.5.",
"5.5.5.5.5.5.5.5.5.5.5.5.5.5.5.5.5.5.5.5.5.5.5.5.5.5.5.5.5.5.5.5.5.5.5.5.5.5.5.5.5.5.5.5.5.5.5.5.5.5.5.5.5.5.5.5.5.5.5.5.5.5.5.5.5.",
"5.5.5.5.5.5.5.5.5.5.5.5.5.5.5.5.5.5.5.5.5.5.5.5.5.5.5.5.5.4.5.5.5.5.5.5.5.5.5.5.5.5.5.5.5.5.5.5.5.5.5.5.5.5.5.5.5.5.5.5.5.5.5.5.5.",
"5.5.5.5.5.5.5.5.5.5.5.5.5.5.5.5.5.5.5.5.5.5.5.5.5.5.5.5.5.5.5.5.5.5.5.5.5.5.5.5.5.5.5.5.5.5.5.5.5.5.5.5.5.5.5.5.5.5.5.5.5.5.5.5.5.",
"5.5.5.5.5.5.5.5.5.5.5.5.5.5.5.5.5.5.5.5.5.5.5.5.5.5.5.5.5.5.5.5.5.5.5.5.5.5.5.5.5.5.5.5.5.5.5.5.5.5.5.5.5.5.5.5.5.5.5.5.5.5.5.5.5.",
"5.5.5.5.5.5.5.5.5.5.5.5.5.5.5.5.5.5.5.5.5.5.5.5.5.5.5.5.5.5.5.5.5.5.5.5.5.5.5.5.5.5.5.5.5.5.5.5.5.5.5.5.5.5.5.5.5.5.5.5.5.5.5.5.5.",
"5.5.5.5.5.5.5.5.5.5.5.5.5.5.5.5.5.5.5.5.5.5.5.5.5.5.5.5.5.5.5.5.5.5.5.5.5.5.5.5.5.5.5.5.5.5.5.5.5.5.5.5.5.5.5.5.5.5.5.5.5.5.5.5.5.",
"5.5.5.5.5.5.5.5.5.5.5.5.5.5.5.5.5.5.5.5.5.5.5.5.5.5.5.5.5.5.5.5.5.5.5.5.5.5.5.5.5.5.5.5.5.5.5.5.5.5.5.5.5.5.5.5.5.5.5.5.5.5.5.5.5.",
"5.5.5.5.5.5.5.5.5.5.5.5.5.5.5.5.5.5.5.5.5.5.5.5.5.5.5.5.5.5.5.5.5.5.5.5.5.5.5.5.5.5.5.5.5.5.5.5.5.5.5.5.5.5.5.5.5.5.5.5.5.5.5.5.5.",
"5.5.5.5.5.5.5.5.5.5.5.5.5.5.5.5.5.5.4.3.5.5.5.5.5.5.5.5.5.5.5.5.5.5.5.5.5.5.5.5.5.5.5.5.5.5.5.5.5.5.5.5.5.5.5.5.5.5.5.5.5.5.5.5.5.",
"5.5.5.5.5.5.5.5.5.5.5.5.5.5.5.5.5.5.5.5.5.5.5.5.5.5.5.5.5.5.5.5.5.5.5.5.5.5.5.5.5.5.5.5.5.5.5.5.5.5.5.5.5.5.5.5.5.5.5.5.5.5.5.5.5.",
"5.5.5.5.5.5.5.5.5.5.5.5.5.5.5.5.5.5.5.5.5.5.5.5.5.5.5.4.3.2.1.1.<.<.<.<.<.<.1.1.2.3.4.5.5.5.5.5.5.5.5.5.5.5.5.5.5.5.5.5.5.5.5.5.5.",
"5.5.5.5.5.5.5.5.5.*.*.5.5.5.5.5.5.5.5.5.5.4.3.1.<.>.;.=.&.#.@.+.O.o.o.o.o.O.+.@.#.&.=.;.>.<.1.3.4.5.5.5.5.5.5.;./ 5.5.5.3.3.5.5.5.",
"5.5.5.5.5.5.5.5.5.*.*.5.5.5.5.5.5.5.4.3.1.>.-.%.@.o.| [ _ ( ^ ! E T T T T E ! ^ ( _ [ | o.@.%.-.>.1.3.4.5.5.5.;./ 5.5.5.3.3.5.5.5.",
"5.5.5.5.5.5.5.5.5.5.5.5.5.5.5.5.4.2.,.-.$.O.| ] / Q Y P J G D A Z C V V C Z A D G J P Y Q / ] | O.$.-.,.2.4.5.5.5.5.5.5.5.5.5.5.5.",
"5.5.5.5.5.5.;.5.5.5.5.5.5.5.4.2.,.=.@.X.{ ( W U J F C M n c z j g f d s f g j z c n M C F J U W ( { X.@.=.,.2.4.5.5.5.5.5.5.5.5.5.",
"5.5.5.5.5.5.5.5.5.5.5.5.5.4.1.;.%.O.} ( W I G C M b l d i t e q 9 8 7 6 8 9 q e t i d l b M C G I W ( } O.%.;.1.4.5.5.5.5.5.5.5.5.",
"5.5.5.5.5.5.5.5.5.5.5.5.4.1.;.$.o.[ ~ Y J S N v k p r q 5 2 , : - = & & = - : , 2 5 q r p k v N S J Y ~ [ o.$.;.1.4.5.5.5.5.5.5.5.",
"5.5.5.5.5.5.5.5.5.5.5.4.1.:.%.O.} / Y H Z m x d y w 5 1 ; * $ @ + O o o O + @ $ * ; 1 5 w y d x m Z H Y / } O.%.:.1.4.5.5.5.5.5.5.",
"5.5.5.5.5.5.5.5.5.5.5.a 1.;.#. .` Q P F B v h u w 4 < ; % @ O X . .     . . X O @ % ; < 4 w u h v B F P Q `  .#.;.1.4.5.5.5.5.5.5.",
"5.5.5.5.5.5.5.5.5.5.5.3.,.=.@.| ) R K S M x d t 0 3 > * # O X . .         . . X O # * > 3 0 t d x M S K R ) | @.=.,.3.5.5.5.5.5.5.",
"5.5.5.5.5.5.5.5.5.5.5.4.1.;.#. .` Q P F B v h u w 4 < ; % @ O X . .     . . X O @ % ; < 4 w u h v B F P Q `  .#.;.1.4.5.5.5.5.5.5.",
"5.5.5.5.5.5.5.5.5.5.5.4.1.:.%.O.} / Y H Z m x d y w 5 1 ; * $ @ + O o o O + @ $ * ; 1 5 w y d x m Z H Y / } O.%.:.1.4.5.5.5.5.5.5.",
"5.5.5.5.3.3.5.5.5.5.5.5.4.1.;.$.o.[ ~ Y J S N v k p r q 5 2 , : - = * * = - : , 2 5 q r p k v N S J Y ~ [ o.$.;.1.4.5.5.5.5.5.5.5.",
"5.5.5.5.3.3.5.5.5.5.5.5.5.4.1.;.%.O.} ( W I G C M b l d i t e q 9 8 7 7 8 9 q e t i d l b M C G I W ( } O.%.;.1.4.5.5.5.5.5.5.5.5.",
"5.5.5.5.5.5.5.5.5.5.5.5.5.5.4.2.,.=.@.X.{ ( W U J F C M n c z j g f d d f g j z c n M C F J U W ( { X.@.=.,.2.4.5.5.5.5.5.5.5.5.5.",
"5.5.5.5.5.5.5.5.5.5.5.5.5.5.5.5.4.2.,.-.'  .| ] / Q Y P J G D A Z C V V C Z A D G J P Y Q / ' | O.$.-.,.2.4.5.5.5.5.5.5.5.5.5.5.5.",
"5.5.5.5.5.5.5.5.5.,.L %.5.5.5.5.5.5.4.3...=.-.%.@.o.| [ _ ( ^ ! E T T T T E ! ^ ( _ [ | X.@.%.=.>.1.3.4.5.5.5.5.5.5.5.5.5.5.5.5.5.",
"5.5.5.5.5.5.5.5.5.3.%.3.5.5.5.5.5.5.5.5.5.4.3.1.<.>.;.=.&.#.@.+.O.o.o.o.o.O.+.@.#.%.=.;.>.<.1.3.4.5.5.5.5.5.5.5.5.5.5.5.5.5.5.5.5.",
"5.5.5.5.5.5.5.5.5.5.5.5.5.5.5.5.5.5.5.5.5.5.5.5.5.5.5.4.3.2.1.1.<.<.<.<.<.<.1.<.2.3.4.5.5.5.5.5.1.5.5.5.5.5.5.5.5.5.5.5.5.5.5.5.5.",
"5.5.5.5.5.5.5.5.5.5.5.5.5.5.5.5.5.5.5.5.5.4.5.5.5.5.5.5.5.5.5.5.5.5.5.5.5.5.5.5.5.+.N 5.5.5.5.3.3.5.5.5.5.5.5.5.5.5.5.5.5.5.5.5.5.",
"5.5.5.5.5.5.5.5.5.5.5.5.5.5.5.5.5.5.5.5.5.5.5.5.5.5.5.5.5.5.5.5.5.5.5.5.5.5.5.5.5.5.5.5.5.5.5.5.5.5.5.5.5.5.5.5.5.5.5.5.5.5.5.5.5.",
"5.5.5.5.5.5.5.5.5.5.5.5.5.5.5.5.5.5.5.5.5.5.5.5.5.5.5.5.5.5.5.5.5.5.5.5.5.5.5.5.5.5.5.5.5.5.5.5.5.5.5.5.5.5.5.5.5.5.5.5.5.5.5.5.5.",
"5.5.5.5.5.5.5.5.5.5.5.5.5.5.5.5.5.5.5.5.5.5.5.5.5.5.5.5.5.5.5.5.5.5.5.5.5.5.5.5.5.5.5.5.5.5.5.5.5.5.5.5.5.5.5.5.5.5.5.5.5.5.5.5.5.",
"5.5.5.5.5.5.5.5.5.5.5.5.5.5.5.5.5.5.5.5.5.5.5.5.5.5.5.5.5.5.5.5.5.5.5.5.5.5.5.5.5.5.5.5.5.5.5.5.5.5.5.5.5.5.5.5.5.5.5.5.5.5.5.5.5.",
"5.5.5.5.5.5.5.5.5.5.5.5.5.5.5.5.5.5.5.5.5.5.5.5.5.5.5.5.5.5.5.5.5.5.5.5.5.5.5.5.5.5.5.5.5.5.5.5.5.5.5.5.5.5.5.5.5.5.5.5.5.5.5.5.5.",
"5.5.5.5.5.5.5.5.5.5.5.5.5.5.5.5.5.5.5.5.5.5.5.5.5.5.5.5.5.5.5.5.5.5.5.5.5.5.5.5.5.5.5.5.5.5.5.5.5.5.5.5.5.5.5.5.5.5.5.5.5.5.5.5.5.",
"5.5.5.5.5.5.5.5.5.5.5.5.5.5.5.5.5.5.5.5.5.5.5.5.5.5.5.5.5.5.5.5.5.5.5.5.5.5.5.5.5.5.5.5.5.5.5.5.5.5.5.5.5.5.5.5.5.5.5.5.5.5.5.5.5.",
"5.5.5.5.5.5.5.5.5.5.5.5.5.5.5.5.5.5.5.5.5.5.5.5.5.5.5.5.5.5.5.5.5.5.5.5.5.5.5.5.5.5.5.5.5.5.5.5.5.5.5.5.5.5.5.5.5.5.5.5.5.5.5.5.5.",
"5.5.5.5.5.5.5.5.5.5.5.5.5.5.5.5.5.5.5.5.5.5.5.5.5.5.5.5.5.5.5.5.5.5.5.5.5.5.5.5.5.5.5.5.5.5.5.5.5.5.5.5.5.5.5.5.5.5.5.5.5.5.5.5.5.",
"5.5.5.5.5.5.5.5.5.5.5.5.5.5.5.5.5.5.5.5.5.5.5.5.5.5.5.5.5.5.5.5.5.5.5.5.5.5.5.5.5.5.5.5.5.5.5.5.5.5.5.5.5.5.5.5.5.5.5.5.5.5.5.5.5.",
"5.5.5.5.5.5.5.5.5.5.5.5.5.5.5.5.5.5.5.5.5.5.5.5.5.5.5.5.5.5.5.5.5.5.5.5.5.5.5.5.5.5.5.5.5.5.5.5.5.5.5.5.5.5.5.5.5.5.5.5.5.5.5.5.5.",
"5.5.5.5.5.5.5.5.5.5.5.5.5.5.5.5.5.5.5.5.5.5.5.5.5.5.5.5.5.5.5.5.5.5.5.5.5.5.5.5.5.5.5.5.5.5.5.5.5.5.5.5.5.5.5.5.5.5.5.5.5.5.5.5.5.",
"5.5.5.5.5.5.5.5.5.5.5.5.5.5.5.5.5.5.5.5.5.5.5.5.5.5.5.5.5.5.5.5.5.5.5.5.5.5.5.5.5.5.5.5.5.5.5.5.5.5.5.5.5.5.5.5.5.5.5.5.5.5.5.5.5.",
"5.5.5.5.5.5.5.5.5.5.5.5.5.5.5.5.5.5.5.5.5.5.5.5.5.5.5.5.5.5.5.5.5.5.5.5.5.5.5.5.5.5.5.5.5.5.5.5.5.5.5.5.5.5.5.5.5.5.5.5.5.5.5.5.5.",
"5.5.5.5.5.5.5.5.5.5.5.5.5.5.5.5.5.5.5.5.5.5.5.5.5.5.5.5.5.5.5.5.5.5.5.5.5.5.5.5.5.5.5.5.5.5.5.5.5.5.5.5.5.5.5.5.5.5.5.5.5.5.5.5.5.",
"5.5.5.5.5.5.5.5.5.5.5.5.5.5.5.5.5.5.5.5.5.5.5.5.5.5.5.5.5.5.5.5.5.5.5.5.5.5.5.5.5.5.5.5.5.5.5.5.5.5.5.5.5.5.5.5.5.5.5.5.5.5.5.5.5."
};
