/* XPM */
static char *result[] = {
/* columns rows colors chars-per-pixel */
"65 65 241 2 ",
"   c black",
".  c #010101",
"X  c #020202",
"o  c gray1",
"O  c #040404",
"+  c gray2",
"@  c #060606",
"#  c #070707",
"$  c gray3",
"%  c #090909",
"&  c gray4",
"*  c #0B0B0B",
"=  c #0C0C0C",
"-  c gray5",
";  c #0E0E0E",
":  c gray6",
">  c #101010",
",  c #111111",
"<  c gray7",
"1  c #131313",
"2  c gray8",
"3  c #151515",
"4  c #161616",
"5  c gray9",
"6  c #181818",
"7  c #191919",
"8  c gray10",
"9  c #1B1B1B",
"0  c gray11",
"q  c #1D1D1D",
"w  c #1E1E1E",
"e  c gray12",
"r  c #202020",
"t  c gray13",
"y  c #222222",
"u  c #232323",
"i  c gray14",
"p  c #252525",
"a  c gray15",
"s  c #272727",
"d  c #282828",
"f  c gray16",
"g  c #2A2A2A",
"h  c gray17",
"j  c #2C2C2C",
"k  c #2D2D2D",
"l  c gray18",
"z  c gray19",
"x  c #313131",
"c  c #323232",
"v  c gray20",
"b  c #343434",
"n  c #353535",
"m  c gray21",
"M  c #373737",
"N  c gray22",
"B  c #393939",
"V  c #3A3A3A",
"C  c gray23",
"Z  c #3C3C3C",
"A  c gray24",
"S  c #3E3E3E",
"D  c #3F3F3F",
"F  c #414141",
"G  c gray26",
"H  c #434343",
"J  c gray27",
"K  c gray28",
"L  c #484848",
"P  c #494949",
"I  c gray29",
"U  c #4B4B4B",
"Y  c #4C4C4C",
"T  c gray30",
"R  c #4E4E4E",
"E  c #505050",
"W  c #515151",
"Q  c gray32",
"!  c gray33",
"~  c #565656",
"^  c gray34",
"/  c #585858",
"(  c gray35",
")  c #5A5A5A",
"_  c #5B5B5B",
"`  c gray36",
"'  c #5D5D5D",
"]  c gray37",
"[  c #5F5F5F",
"{  c #606060",
"}  c gray38",
"|  c #626262",
" . c gray39",
".. c #646464",
"X. c #656565",
"o. c gray40",
"O. c #676767",
"+. c #686868",
"@. c DimGray",
"#. c #6A6A6A",
"$. c #6C6C6C",
"%. c #6D6D6D",
"&. c gray43",
"*. c #6F6F6F",
"=. c gray44",
"-. c #717171",
";. c #727272",
":. c gray45",
">. c #747474",
",. c gray46",
"<. c #777777",
"1. c gray47",
"2. c #797979",
"3. c gray48",
"4. c #7B7B7B",
"5. c #7C7C7C",
"6. c gray49",
"7. c gray50",
"8. c #808080",
"9. c #818181",
"0. c gray51",
"q. c #838383",
"w. c gray52",
"e. c #868686",
"r. c gray53",
"t. c #888888",
"y. c #898989",
"u. c gray54",
"i. c #8B8B8B",
"p. c #8D8D8D",
"a. c #8E8E8E",
"s. c gray56",
"d. c #909090",
"f. c gray57",
"g. c #929292",
"h. c #939393",
"j. c gray58",
"k. c #959595",
"l. c gray59",
"z. c #979797",
"x. c #989898",
"c. c gray60",
"v. c #9A9A9A",
"b. c gray61",
"n. c #9D9D9D",
"m. c gray62",
"M. c #9F9F9F",
"N. c #A0A0A0",
"B. c gray63",
"V. c #A2A2A2",
"C. c gray64",
"Z. c #A4A4A4",
"A. c #A5A5A5",
"S. c gray65",
"D. c #A7A7A7",
"F. c gray66",
"G. c #A9A9A9",
"H. c gray67",
"J. c #ACACAC",
"K. c gray68",
"L. c #AEAEAE",
"P. c #AFAFAF",
"I. c gray69",
"U. c #B1B1B1",
"Y. c #B2B2B2",
"T. c gray70",
"R. c #B4B4B4",
"E. c gray71",
"W. c #B6B6B6",
"Q. c #B7B7B7",
"!. c gray72",
"~. c #B9B9B9",
"^. c gray73",
"/. c #BBBBBB",
"(. c #BCBCBC",
"). c gray74",
"_. c gray",
"`. c gray75",
"'. c #C0C0C0",
"]. c #C1C1C1",
"[. c gray76",
"{. c #C3C3C3",
"}. c gray77",
"|. c #C5C5C5",
" X c #C6C6C6",
".X c #C8C8C8",
"XX c gray79",
"oX c #CACACA",
"OX c #CBCBCB",
"+X c gray80",
"@X c #CDCDCD",
"#X c #CECECE",
"$X c gray81",
"%X c #D0D0D0",
"&X c gray82",
"*X c #D2D2D2",
"=X c LightGray",
"-X c gray83",
";X c #D5D5D5",
":X c gray84",
">X c #D7D7D7",
",X c #D8D8D8",
"<X c gray85",
"1X c #DADADA",
"2X c gray86",
"3X c gainsboro",
"4X c #DDDDDD",
"5X c gray87",
"6X c #DFDFDF",
"7X c gray88",
"8X c #E1E1E1",
"9X c #E2E2E2",
"0X c gray89",
"qX c #E4E4E4",
"wX c gray90",
"eX c #E6E6E6",
"rX c #E7E7E7",
"tX c gray91",
"yX c #E9E9E9",
"uX c #EAEAEA",
"iX c gray92",
"pX c #ECECEC",
"aX c gray93",
"sX c #EEEEEE",
"dX c #EFEFEF",
"fX c gray94",
"gX c #F1F1F1",
"hX c gray95",
"jX c #F3F3F3",
"kX c #F4F4F4",
"lX c gray96",
"zX c #F6F6F6",
"xX c gray97",
"cX c #F8F8F8",
"vX c #F9F9F9",
"bX c gray98",
"nX c #FBFBFB",
"mX c gray99",
"MX c #FDFDFD",
"NX c #FEFEFE",
"BX c white",
/* pixels */
"BXBXBXBXBXBXBXBXBXBXBXBXBXBXBXBXBXBXBXBXBXBXBXBXBXBXBXBXBXBXBXBXBXBXBXBXBXBXBXBXBXBXBXBXBXBXBXBXBXBXBXBXBXBXBXBXBXBXBXBXBXBXBXBXBX",
"BXBXBXBXBXBXBXBXBXBXBXBXBXBXBXBXBXBXBXBXBXBXBXBXBXBXBXBXBXBXBXBXBXBXBXBXBXBXBXBXBXBXBXBXBXBXBXBXBXBXBXBXBXBXBXBXBXBXBXBXBXBXBXBXBX",
"BXBXBXBXBXBXBXBXBXBXBXBXBXBXBXBXBXBXBXBXBXBXBXBXBXBXBXBXBXBXBXBXBXBXBXBXBXBXBXBXBXBXBXBXBXBXBXBXBXBXBXBXBXBXBXBXBXBXBXBXBXBXBXBXBX",
"BXBXBXBXBXBXBXBXBXBXBXBXBXBXBXBXBXBXBXBXBXBXBXBXBXBXBXBXBXBXBXBXBXBXBXBXBXBXBXBXBXBXBXBXBXBXBXBXBXBXBXBXBXBXBXBXBXBXBXBXBXBXBXBXBX",
"BXBXBXBXBXBXBXBXBXBXBXBXBXBXBXBXBXBXBXBXBXBXBXBXBXBXBXBXBXBXNXBXBXBXBXBXBXBXBXBXBXBXBXBXBXBXBXBXBXBXBXBXBXBXBXBXBXBXBXBXBXBXBXBXBX",
"BXBXBXBXBXBXBXBXBXBXBXBXBXBXBXBXBXBXBXBXBXBXBXBXBXBXBXBXBXBXBXBXBXBXBXBXBXBXBXBXBXBXBXBXBXBXBXBXBXBXBXBXBXBXBXBXBXBXBXBXBXBXBXBXBX",
"BXBXBXBXBXBXBXBXBXBXBXBXBXBXBXBXBXBXBXBXBXBXBXBXBXBXBXBXBXBXBXBXBXBXBXBXBXBXBXBXBXBXBXBXBXBXBXBXBXBXBXBXBXBXBXBXBXBXBXBXBXBXBXBXBX",
"BXBXBXBXBXBXBXBXBXBXBXBXBXBXBXBXBXBXBXBXBXBXBXBXBXBXBXBXBXBXBXBXBXBXBXBXBXBXBXBXBXBXBXBXBXBXBXBXBXBXBXBXBXBXBXBXBXBXBXBXBXBXBXBXBX",
"BXBXBXBXBXBXBXBXBXBXBXBXBXBXBXBXBXBXBXBXBXBXBXBXBXBXBXBXBXBXBXBXBXBXBXBXBXBXBXBXBXBXBXBXBXBXBXBXBXBXBXBXBXBXBXBXBXBXBXBXBXBXBXBXBX",
"BXBXBXBXBXBXBXBXBXBXBXBXBXBXBXBXBXBXBXBXBXBXBXBXBXBXBXBXBXBXBXBXBXBXBXBXBXBXBXBXBXBXBXBXBXBXBXBXBXBXBXBXBXBXBXBXBXBXBXBXBXBXBXBXBX",
"BXBXBXBXBXBXBXBXBXBXBXBXBXBXBXBXBXBXBXBXBXBXBXBXBXBXBXBXBXBXBXBXBXBXBXBXBXBXBXBXBXBXBXBXBXBXBXBXBXBXBXBXBXBXBXBXBXBXBXBXBXBXBXBXBX",
"BXBXBXBXBXBXBXBXBXBXBXBXBXBXBXBXBXBXBXBXBXBXBXBXBXBXBXBXBXBXBXBXBXBXBXBXBXBXBXBXBXBXBXBXBXBXBXBXBXBXBXBXBXBXBXBXBXBXBXBXBXBXBXBXBX",
"BXBXBXBXBXBXBXBXBXBXBXBXBXBXBXBXBXBXBXBXBXBXBXBXBXBXBXBXBXNXBXBXBXBXBXBXBXBXBXBXBXBXBXBXBXBXBXBXBXBXBXBXBXBXBXBXBXBXBXBXBXBXBXBXBX",
"BXBXBXBXBXBXBXBXBXBXBXBXBXBXBXBXBXBXBXBXBXBXBXBXBXBXBXBXBXBXBXBXBXBXBXBXBXBXBXBXBXBXBXBXBXBXBXBXBXBXBXBXBXBXBXBXBXBXBXBXBXBXBXBXBX",
"BXBXBXBXBXBXBXBXBXBXBXBXBXBXBXBXBXBXBXBXBXBXBXBXBXBXBXBXBXBXBXBXBXBXBXBXBXBXBXBXBXBXBXBXBXBXBXBXBXBXBXBXBXBXBXBXBXBXBXBXBXBXBXBXBX",
"BXBXBXBXBXBXBXBXBXBXBXBXBXBXBXBXBXBXBXBXBXBXBXBXBXBXBXBXBXBXBXBXBXBXBXBXBXBXBXBXBXBXBXBXBXBXBXBXBXBXBXBXBXBXBXBXBXBXBXBXBXBXBXBXBX",
"BXBXBXBXBXBXBXBXBXBXBXBXBXBXBXBXBXBXBXBXBXBXBXBXBXBXBXBXBXBXBXBXBXBXBXBXBXBXBXBXBXBXBXBXBXBXBXBXBXBXBXBXBXBXBXBXBXBXBXBXBXBXBXBXBX",
"BXBXBXBXBXBXBXBXBXBXBXBXBXBXBXBXBXBXBXBXBXBXBXBXBXBXBXBXBXBXBXBXBXBXBXBXBXBXBXBXBXBXBXBXBXBXBXBXBXBXBXBXBXBXBXBXBXBXBXBXBXBXBXBXBX",
"BXBXBXBXBXBXBXBXBXBXBXBXBXBXBXBXBXBXBXBXBXBXBXBXBXBXBXBXBXBXBXBXBXBXBXBXBXBXBXBXBXBXBXBXBXBXBXBXBXBXBXBXBXBXBXBXBXBXBXBXBXBXBXBXBX",
"BXBXBXBXBXBXBXBXBXBXBXBXBXBXBXBXBXBXBXBXBXBXBXBXBXBXBXBXBXBXBXBXBXBXBXBXBXBXBXBXBXBXBXBXBXBXBXBXBXBXBXBXBXBXBXBXBXBXBXBXBXBXBXBXBX",
"BXBXBXBXBXBXBXBXBXBXBXBXBXBXBXBXBXBXBXBXBXBXBXBXBXBXBXBXBXNXBXBXBXBXBXBXBXBXBXBXBXBXBXBXBXBXBXBXBXBXBXBXBXBXBXBXBXBXBXBXBXBXBXBXBX",
"BXBXBXBXBXBXBXBXBXBXBXBXBXBXBXBXBXBXBXBXBXBXBXBXBXBXBXBXBXBXBXBXBXBXBXBXBXBXBXBXBXBXBXBXBXBXBXBXBXBXBXBXBXBXBXBXBXBXBXBXBXBXBXBXBX",
"BXBXBXBXBXBXBXBXBXBXBXBXBXBXBXBXBXBXBXBXBXBXBXBXBXBXBXBXBXBXBXBXBXBXBXBXBXBXBXBXBXBXBXBXBXBXBXBXBXBXBXBXBXBXBXBXBXBXBXBXBXBXBXBXBX",
"BXBXBXBXBXBXBXBXBXBXBXBXBXBXBXBXBXBXBXBXBXBXBXBXBXBXBXBXBXBXBXBXBXBXBXBXBXBXBXBXBXBXBXBXBXBXBXBXBXBXBXBXBXBXBXBXBXBXBXBXBXBXBXBXBX",
"BXBXBXBXBXBXBXBXBXBXBXBXBXBXBXBXBXBXBXBXBXBXBXBXBXBXBXBXBXBXBXBXBXBXBXBXBXBXBXBXBXBXBXBXBXBXBXBXBXBXBXBXBXBXBXBXBXBXBXBXBXBXBXBXBX",
"BXBXBXBXBXBXBXBXBXBXBXBXBXBXBXBXBXBXBXBXBXBXBXBXBXBXBXBXBXBXBXBXBXBXBXBXBXBXBXBXBXBXBXBXBXBXBXBXBXBXBXBXBXBXBXBXBXBXBXBXBXBXBXBXBX",
"BXBXBXBXBXBXBXBXBXBXBXBXBXBXBXBXBXBXBXBXBXBXBXBXBXBXBXBXBXBXBXBXBXBXBXBXBXBXBXBXBXBXBXBXBXBXBXBXBXBXBXBXBXBXBXBXBXBXBXBXBXBXBXBXBX",
"BXBXBXBXBXBXBXBXBXBXBXBXBXBXBX:XBXBXNXMXBXBXNXNXNXNXNXNXNXNXMXMXmXmXmXmXmXmXmXmXMXMXMXNXNXBXBXBXBXBXBXBXBXBXBXBXBXBXBXBXBXBXBXBXBX",
"nX>X3XBXBXBXBXBXBXBXBXBXBXBXBXzXNXMXMXmXnXbXvXcXxXlXkXjXhXfXgXfXsXdXdXdXfXfXgXhXjXkXlXxXcXbXnXmXMXNXBXBXBXBXBXBXBXBXBXBXBXBXBXBXBX",
"NXzXxXBXBXBXBXBXBXBXBXBXNXNXmXnXcXzXkXgXsXpXtXeX9X4X2X>X-X%X#X#X+X@X+X+X$X&X=X:X2X6X8XeXyXaXfXjXzXcXbXmXMXBXBXBXBXBXBXBXBXBXBXBXBX",
"BXBXBXBXBXBXBXBXBXjXhXmXbXxXjXfXpXtX0X4X:X%XXX].~.Y.J.F.V.b.c.x.k.k.j.z.c.n.B.S.J.E./.{.oX*X<X7XeXpXfXkXcXnXMXbXlXBXBXBXMXMXBXBXBX",
"BXBXBXpXBXBXBXBXNXfXaXlXfXiXqX5X:X$X X/.P.A.c.d.w.6.:.$.o.} ' ) / / / ` ] | O.*.>.6.r.h.m.G.W.'.OX;X5XeXaXhXxXjXiXNXBXBXMXMXBXBXBX",
"BXBXBXyXBXBXNXmXvXlXdXyX9X2X&X X(.K.N.s.q.:.@.` Q I G C b x h d f s d g l x m C G U ~ } %.3.u.c.D.W.|.*X3XwXsXjXcXnXNXBXBXBXxXMXBX",
"BXBXBXBXBXNXhXxXjXpXwX3X*X.X^.G.z.u.2.@.` R F n k i 9 5 < , - = = = * * ; , 1 6 e p k B J Q  .;.0.k.D.Q. X-X7XuXhXzXnXNXBXBXBXBXBX",
"BXBXBXBXNXmXxXhXaXqX<X%X].T.B.f.4.$._ I V k t 7 , = # @ X X X X X . . . . X o @ # ; 2 9 s v G W ..1.u.n.I.[.&X7XuXgXxXnXNXBXBXBXBX",
"aXF.BXBXMXvXkXaXrX4X&X{.U.m.a.3.O.~ H n p 8 ; $ o o                           . . o + * 4 r h V Y { ,.y.n.T.|.;X0XaXlXbXMXBXBXBXBX",
"BXBXBXBXmXcXhXiX9X>XOX/.G.k.9.%.) L M s 7 - # o                                   . X + = 3 r l S E X.5.g.F./.+X3XyXhXcXmXBXBXBXBX",
"BXBXBXNXnXxXhXuX7X:X.XH.S.g.7.#.~ H x y 3 $ o                                       . o $ < 0 g V Y } <.a.Z.~.OX2XtXhXcXmXBXBXBXBX",
"BXBXBXnXtX2XjXpXqX<X+X(.G.l.q.&.) K m s 7 ; @ X X                                 . X O & 3 e k A E ..3.f.D.(.#X4XyXhXvXMXBXBXBXBX",
"BXBXBXNXlXhXlXsXyX6X-X XR.B.f.5.O.~ H b a 6 : % O o . .                         . X + & < q f N L ` ;.r.n.Y.}.:X0XaXzXnXNXBXBXBXBX",
"BXBXBXBXBXMXvXkXdXrX4X=X|.W.C.g.6.$._ L M h t 7 , * + O X X . . . .     . . X o @ % > 7 y l Z Y ` =.e.b.P.[.&X5XuXjXbXNXBXBXBXBXBX",
"BXBXBXBXMXmXMXvXzXdXuX7X>XOX).H.v.i.3.O./ I A x s r 7 1 ; * % # # @ @ @ $ & - , 5 q a z Z L ( #.5.s.C.R.}.=X7XuXkXbXNXBXBXBXBXBXBX",
"BXBXBXBXMXMXBXMXnXcXjXsXtX7X;XXX).K.N.a.8.-...! I G N c j s u r e q w e y a g z M D L ! | =.7.d.B.U.`.#X1XwXdXzXnXNXBXBXBXMXiX#XBX",
"BXBXBXBXBXBXBXBXBXMXnXcXlXfXyX0X<X%X|.^.L.V.j.y.5.;.+.[ ^ Q R U P I L I T W ! ` ..$.<.w.f.M.J.!.|.%X2XqXaXkXbXMXBXBXBXBXBXBXmXnXBX",
"BXBXBXBXBXBXBXBXBXBXBXNXmXnXxXlXgXiXwX4X}.XX}.(.Y.F.V.v.h.p.t.w.q.q.9.0.r.u.a.h.b.A.K.Q.`..X&X1X9XuXfXzXbXMXBXBXBXBXBXBXBXBXBXBXBX",
"BXBXBXBXBXBXBXBXBXmXpXjXBXBXNXMXnXbXxXkXpXuXrX0X4X,X=X#XXX|.{.'.(.(.(.(._.]. XoX$X*X,X5X0XyXsXgXhXqXnXBXBXBXBXBXBXBXBXBXBXBXBXBXBX",
"BXBXBXBXBXBXBXBXBXMXjXMXBXBXBXBXBXBXBXNXMXmXnXcXzXkXgXdXsXiXyXtXeXeXeXeXrXtXuXiXaXdXhXkXxXvXnXMXNXBXBXBXBXBXBXBXBXBXBXBXBXBXBXBXBX",
"BXBXBXBXBXBXBXBXBXBXBXBXBXBXBXBXBXBXBXBXBXBXBXBXBXBXBXNXMXmXnXnXbXbXbXbXbXbXnXbXmXMXNXBXBXBXBXBXnXBXBXBXBXBXBXBXBXBXBXBXBXBXBXBXBX",
"BXBXBXBXBXBXBXBXBXBXBXBXBXBXBXBXBXBXBXBXMXsXBXBXBXBXBXBXBXBXBXBXBXBXBXBXBXBXBXBXBXbXaXBXBXBXBXMXMXBXBXBXBXBXBXBXBXBXBXBXBXBXBXBXBX",
"BXBXBXBXBXBXBXBXBXBXBXBXBXBXBXBXBXBXBXBXnX7XBXBXBXBXBXBXBXBXBXBXBXBXBXBXBXBXBXBXBXBXBXBXBXBXBXBXBXBXBXBXBXBXBXBXBXBXBXBXBXBXBXBXBX",
"BXBXBXBXBXBXBXBXBXBXBXBXBXBXBXBXBXBXBXBXBXBXBXBXBXBXBXBXBXBXBXBXBXBXBXBXBXBXBXBXBXBXBXBXBXBXBXBXBXBXBXBXBXBXBXBXBXBXBXBXBXBXBXBXBX",
"BXBXBXBXBXBXBXBXBXBXBXBXBXBXBXBXBXBXBXBXBXBXBXBXBXBXBXBXBXBXBXBXBXBXBXBXBXBXBXBXBXBXBXBXBXBXBXBXBXBXBXBXBXBXBXBXBXBXBXBXBXBXBXBXBX",
"BXBXBXBXBXBXBXBXBXBXBXBXBXBXBXBXBXBXBXBXBXBXBXBXBXBXBXBXBXBXBXBXBXBXBXBXBXBXBXBXBXBXBXBXBXBXBXBXBXBXBXBXBXBXBXBXBXBXBXBXBXBXBXBXBX",
"BXBXBXBXBXBXBXBXBXBXBXBXBXBXBXBXBXBXBXBXBXBXBXBXBXBXBXBXBXBXBXBXBXBXBXBXBXBXBXBXBXBXBXBXBXBXBXBXBXBXBXBXBXBXBXBXBXBXBXBXBXBXBXBXBX",
"BXBXBXBXBXBXBXBXBXBXBXBXBXBXBXBXBXBXBXBXBXBXBXBXBXBXBXBXBXBXBXBXBXBXBXBXBXBXBXBXBXBXBXBXBXBXBXBXBXBXBXBXBXBXBXBXBXBXBXBXBXBXBXBXBX",
"BXBXBXBXBXBXBXBXBXBXBXBXBXBXBXBXBXBXBXBXBXBXBXBXBXBXBXBXBXBXBXBXBXBXBXBXBXBXBXBXBXBXBXBXBXBXBXBXBXBXBXBXBXBXBXBXBXBXBXBXBXBXBXBXBX",
"BXBXBXBXBXBXBXBXBXBXBXBXBXBXBXBXBXBXBXBXBXBXBXBXBXBXBXBXBXBXBXBXBXBXBXBXBXBXBXBXBXBXBXBXBXBXBXBXBXBXBXBXBXBXBXBXBXBXBXBXBXBXBXBXBX",
"BXBXBXBXBXBXBXBXBXBXBXBXBXBXBXBXBXBXBXBXBXBXBXBXBXBXBXBXBXBXBXBXBXBXBXBXBXBXBXBXBXBXBXBXBXBXBXBXBXBXBXBXBXBXBXBXBXBXBXBXBXBXBXBXBX",
"BXBXBXBXBXBXBXBXBXBXBXBXBXBXBXBXBXBXBXBXBXBXBXBXBXBXBXBXBXBXBXBXBXBXBXBXBXBXBXBXBXBXBXBXBXBXBXBXBXBXBXBXBXBXBXBXBXBXBXBXBXBXBXBXBX",
"BXBXBXBXBXBXBXBXBXBXBXBXBXBXBXBXBXBXBXBXBXBXBXBXBXBXBXBXBXBXBXBXBXBXBXBXBXBXBXBXBXBXBXBXBXBXBXBXBXBXBXBXBXBXBXBXBXBXBXBXBXBXBXBXBX",
"BXBXBXBXBXBXBXBXBXBXBXBXBXBXBXBXBXBXBXBXBXBXBXBXBXBXBXBXBXBXBXBXBXBXBXBXBXBXBXBXBXBXBXBXBXBXBXBXBXBXBXBXBXBXBXBXBXBXBXBXBXBXBXBXBX",
"BXBXBXBXBXBXBXBXBXBXBXBXBXBXBXBXBXBXBXBXBXBXBXBXBXBXBXBXBXBXBXBXBXBXBXBXBXBXBXBXBXBXBXBXBXBXBXBXBXBXBXBXBXBXBXBXBXBXBXBXBXBXBXBXBX",
"BXBXBXBXBXBXBXBXBXBXBXBXBXBXBXBXBXBXBXBXBXBXBXBXBXBXBXBXBXBXBXBXBXBXBXBXBXBXBXBXBXBXBXBXBXBXBXBXBXBXBXBXBXBXBXBXBXBXBXBXBXBXBXBXBX",
"BXBXBXBXBXBXBXBXBXBXBXBXBXBXBXBXBXBXBXBXBXBXBXBXBXBXBXBXBXBXBXBXBXBXBXBXBXBXBXBXBXBXBXBXBXBXBXBXBXBXBXBXBXBXBXBXBXBXBXBXBXBXBXBXBX",
"BXBXBXBXBXBXBXBXBXBXBXBXBXBXBXBXBXBXBXBXBXBXBXBXBXBXBXBXBXBXBXBXBXBXBXBXBXBXBXBXBXBXBXBXBXBXBXBXBXBXBXBXBXBXBXBXBXBXBXBXBXBXBXBXBX"
};
