/* XPM */
static char *result[] = {
/* columns rows colors chars-per-pixel */
"65 65 242 2 ",
"   c black",
".  c #010101",
"X  c #020202",
"o  c gray1",
"O  c #040404",
"+  c gray2",
"@  c #060606",
"#  c #070707",
"$  c gray3",
"%  c #090909",
"&  c gray4",
"*  c #0B0B0B",
"=  c #0C0C0C",
"-  c gray5",
";  c #0E0E0E",
":  c gray6",
">  c #101010",
",  c #111111",
"<  c gray7",
"1  c #131313",
"2  c gray8",
"3  c #151515",
"4  c #161616",
"5  c gray9",
"6  c #181818",
"7  c #191919",
"8  c gray10",
"9  c #1B1B1B",
"0  c gray11",
"q  c #1D1D1D",
"w  c #1E1E1E",
"e  c gray12",
"r  c #202020",
"t  c gray13",
"y  c #222222",
"u  c #232323",
"i  c gray14",
"p  c #252525",
"a  c gray15",
"s  c #272727",
"d  c #282828",
"f  c #2A2A2A",
"g  c gray17",
"h  c #2C2C2C",
"j  c gray18",
"k  c #2F2F2F",
"l  c gray19",
"z  c #313131",
"x  c #323232",
"c  c gray20",
"v  c #343434",
"b  c gray21",
"n  c #373737",
"m  c gray22",
"M  c #393939",
"N  c #3A3A3A",
"B  c gray23",
"V  c #3C3C3C",
"C  c gray24",
"Z  c #3E3E3E",
"A  c #3F3F3F",
"S  c gray25",
"D  c #414141",
"F  c gray26",
"G  c #434343",
"H  c #444444",
"J  c gray27",
"K  c #464646",
"L  c gray28",
"P  c #484848",
"I  c #494949",
"U  c gray29",
"Y  c #4B4B4B",
"T  c #4C4C4C",
"R  c gray30",
"E  c #4E4E4E",
"W  c gray31",
"Q  c #505050",
"!  c #515151",
"~  c gray32",
"^  c #535353",
"/  c gray33",
"(  c #555555",
")  c #565656",
"_  c gray34",
"`  c #585858",
"'  c gray35",
"]  c #5A5A5A",
"[  c #5B5B5B",
"{  c gray36",
"}  c #5D5D5D",
"|  c gray37",
" . c #5F5F5F",
".. c gray38",
"X. c #626262",
"o. c gray39",
"O. c #646464",
"+. c #656565",
"@. c gray40",
"#. c #676767",
"$. c #686868",
"%. c DimGray",
"&. c #6A6A6A",
"*. c gray42",
"=. c #6C6C6C",
"-. c #6D6D6D",
";. c gray43",
":. c gray44",
">. c #717171",
",. c #727272",
"<. c gray45",
"1. c #747474",
"2. c gray46",
"3. c #777777",
"4. c gray47",
"5. c #797979",
"6. c gray48",
"7. c #7B7B7B",
"8. c #7C7C7C",
"9. c gray49",
"0. c #7E7E7E",
"q. c gray50",
"w. c #808080",
"e. c #818181",
"r. c gray51",
"t. c #838383",
"y. c #848484",
"u. c gray52",
"i. c #868686",
"p. c gray53",
"a. c #888888",
"s. c #898989",
"d. c gray54",
"f. c #8B8B8B",
"g. c #8D8D8D",
"h. c #8E8E8E",
"j. c gray56",
"k. c #909090",
"l. c gray57",
"z. c #929292",
"x. c gray58",
"c. c #959595",
"v. c gray59",
"b. c #979797",
"n. c #989898",
"m. c gray60",
"M. c #9B9B9B",
"N. c gray61",
"B. c #9D9D9D",
"V. c gray62",
"C. c #9F9F9F",
"Z. c gray63",
"A. c gray64",
"S. c #A4A4A4",
"D. c #A5A5A5",
"F. c gray65",
"G. c #A7A7A7",
"H. c gray66",
"J. c #A9A9A9",
"K. c #AAAAAA",
"L. c #ACACAC",
"P. c #AEAEAE",
"I. c #AFAFAF",
"U. c gray69",
"Y. c #B1B1B1",
"T. c #B2B2B2",
"R. c gray70",
"E. c #B4B4B4",
"W. c gray71",
"Q. c #B6B6B6",
"!. c #B7B7B7",
"~. c gray72",
"^. c #B9B9B9",
"/. c gray73",
"(. c #BBBBBB",
"). c #BCBCBC",
"_. c gray",
"`. c gray75",
"'. c #C0C0C0",
"]. c #C1C1C1",
"[. c gray76",
"{. c #C3C3C3",
"}. c gray77",
"|. c #C5C5C5",
" X c #C6C6C6",
".X c gray78",
"XX c #C8C8C8",
"oX c gray79",
"OX c #CACACA",
"+X c #CBCBCB",
"@X c gray80",
"#X c #CDCDCD",
"$X c #CECECE",
"%X c gray81",
"&X c #D0D0D0",
"*X c gray82",
"=X c #D2D2D2",
"-X c LightGray",
";X c gray83",
":X c #D5D5D5",
">X c gray84",
",X c #D7D7D7",
"<X c #D8D8D8",
"1X c gray85",
"2X c #DADADA",
"3X c gray86",
"4X c gainsboro",
"5X c #DDDDDD",
"6X c gray87",
"7X c #DFDFDF",
"8X c gray88",
"9X c #E1E1E1",
"0X c #E2E2E2",
"qX c gray89",
"wX c #E4E4E4",
"eX c gray90",
"rX c #E6E6E6",
"tX c #E7E7E7",
"yX c gray91",
"uX c #E9E9E9",
"iX c #EAEAEA",
"pX c gray92",
"aX c #ECECEC",
"sX c gray93",
"dX c #EEEEEE",
"fX c #EFEFEF",
"gX c gray94",
"hX c #F1F1F1",
"jX c gray95",
"kX c #F3F3F3",
"lX c #F4F4F4",
"zX c gray96",
"xX c #F6F6F6",
"cX c gray97",
"vX c #F8F8F8",
"bX c #F9F9F9",
"nX c gray98",
"mX c #FBFBFB",
"MX c gray99",
"NX c #FDFDFD",
"BX c #FEFEFE",
"VX c white",
/* pixels */
"VXVXVXVXVXVXVXVXVXVXVXVXVXVXVXVXVXVXVXVXVXVXVXVXVXVXVXVXVXVXVXVXVXVXVXVXVXVXVXVXVXVXVXVXVXVXVXVXVXVXVXVXVXVXVXVXVXVXVXVXVXVXVXVXVX",
"VXVXVXVXVXVXVXVXVXVXVXVXVXVXVXVXVXVXVXVXVXVXVXVXVXVXVXVXVXVXVXVXVXVXVXVXVXVXVXVXVXVXVXVXVXVXVXVXVXVXVXVXVXVXVXVXVXVXVXVXVXVXVXVXVX",
"VXVXVXVXVXVXVXVXVXVXVXVXVXVXVXVXVXVXVXVXVXVXVXVXVXVXVXVXVXVXVXVXVXVXVXVXVXVXVXVXVXVXVXVXVXVXVXVXVXVXVXVXVXVXVXVXVXVXVXVXVXVXVXVXVX",
"VXVXVXVXVXVXVXVXVXVXVXVXVXVXVXVXVXVXVXVXVXVXVXVXVXVXVXVXVXVXVXVXVXVXVXVXVXVXVXVXVXVXVXVXVXVXVXVXVXVXVXVXVXVXVXVXVXVXVXVXVXVXVXVXVX",
"VXVXVXVXVXVXVXVXVXVXVXVXVXVXVXVXVXVXVXVXVXVXVXVXVXVXVXVXVXVXBXVXVXVXVXVXVXVXVXVXVXVXVXVXVXVXVXVXVXVXVXVXVXVXVXVXVXVXVXVXVXVXVXVXVX",
"VXVXVXVXVXVXVXVXVXVXVXVXVXVXVXVXVXVXVXVXVXVXVXVXVXVXVXVXVXVXVXVXVXVXVXVXVXVXVXVXVXVXVXVXVXVXVXVXVXVXVXVXVXVXVXVXVXVXVXVXVXVXVXVXVX",
"VXVXVXVXVXVXVXVXVXVXVXVXVXVXVXVXVXVXVXVXVXVXVXVXVXVXVXVXVXVXVXVXVXVXVXVXVXVXVXVXVXVXVXVXVXVXVXVXVXVXVXVXVXVXVXVXVXVXVXVXVXVXVXVXVX",
"VXVXVXVXVXVXVXVXVXVXVXVXVXVXVXVXVXVXVXVXVXVXVXVXVXVXVXVXVXVXVXVXVXVXVXVXVXVXVXVXVXVXVXVXVXVXVXVXVXVXVXVXVXVXVXVXVXVXVXVXVXVXVXVXVX",
"VXVXVXVXVXVXVXVXVXVXVXVXVXVXVXVXVXVXVXVXVXVXVXVXVXVXVXVXVXVXVXVXVXVXVXVXVXVXVXVXVXVXVXVXVXVXVXVXVXVXVXVXVXVXVXVXVXVXVXVXVXVXVXVXVX",
"VXVXVXVXVXVXVXVXVXVXVXVXVXVXVXVXVXVXVXVXVXVXVXVXVXVXVXVXVXVXVXVXVXVXVXVXVXVXVXVXVXVXVXVXVXVXVXVXVXVXVXVXVXVXVXVXVXVXVXVXVXVXVXVXVX",
"VXVXVXVXVXVXVXVXVXVXVXVXVXVXVXVXVXVXVXVXVXVXVXVXVXVXVXVXVXVXVXVXVXVXVXVXVXVXVXVXVXVXVXVXVXVXVXVXVXVXVXVXVXVXVXVXVXVXVXVXVXVXVXVXVX",
"VXVXVXVXVXVXVXVXVXVXVXVXVXVXVXVXVXVXVXVXVXVXVXVXVXVXVXVXVXVXVXVXVXVXVXVXVXVXVXVXVXVXVXVXVXVXVXVXVXVXVXVXVXVXVXVXVXVXVXVXVXVXVXVXVX",
"VXVXVXVXVXVXVXVXVXVXVXVXVXVXVXVXVXVXVXVXVXVXVXVXVXVXVXVXVXBXVXVXVXVXVXVXVXVXVXVXVXVXVXVXVXVXVXVXVXVXVXVXVXVXVXVXVXVXVXVXVXVXVXVXVX",
"VXVXVXVXVXVXVXVXVXVXVXVXVXVXVXVXVXVXVXVXVXVXVXVXVXVXVXVXVXVXVXVXVXVXVXVXVXVXVXVXVXVXVXVXVXVXVXVXVXVXVXVXVXVXVXVXVXVXVXVXVXVXVXVXVX",
"VXVXVXVXVXVXVXVXVXVXVXVXVXVXVXVXVXVXVXVXVXVXVXVXVXVXVXVXVXVXVXVXVXVXVXVXVXVXVXVXVXVXVXVXVXVXVXVXVXVXVXVXVXVXVXVXVXVXVXVXVXVXVXVXVX",
"VXVXVXVXVXVXVXVXVXVXVXVXVXVXVXVXVXVXVXVXVXVXVXVXVXVXVXVXVXVXVXVXVXVXVXVXVXVXVXVXVXVXVXVXVXVXVXVXVXVXVXVXVXVXVXVXVXVXVXVXVXVXVXVXVX",
"VXVXVXVXVXVXVXVXVXVXVXVXVXVXVXVXVXVXVXVXVXVXVXVXVXVXVXVXVXVXVXVXVXVXVXVXVXVXVXVXVXVXVXVXVXVXVXVXVXVXVXVXVXVXVXVXVXVXVXVXVXVXVXVXVX",
"VXVXVXVXVXVXVXVXVXVXVXVXVXVXVXVXVXVXVXVXVXVXVXVXVXVXVXVXVXVXVXVXVXVXVXVXVXVXVXVXVXVXVXVXVXVXVXVXVXVXVXVXVXVXVXVXVXVXVXVXVXVXVXVXVX",
"VXVXVXVXVXVXVXVXVXVXVXVXVXVXVXVXVXVXVXVXVXVXVXVXVXVXVXVXVXVXVXVXVXVXVXVXVXVXVXVXVXVXVXVXVXVXVXVXVXVXVXVXVXVXVXVXVXVXVXVXVXVXVXVXVX",
"VXVXVXVXVXVXVXVXVXVXVXVXVXVXVXVXVXVXVXVXVXVXVXVXVXVXVXVXVXVXVXVXVXVXVXVXVXVXVXVXVXVXVXVXVXVXVXVXVXVXVXVXVXVXVXVXVXVXVXVXVXVXVXVXVX",
"VXVXVXVXVXVXVXVXVXVXVXVXVXVXVXVXVXVXVXVXVXVXVXVXVXVXVXVXVXBXVXVXVXVXVXVXVXVXVXVXVXVXVXVXVXVXVXVXVXVXVXVXVXVXVXVXVXVXVXVXVXVXVXVXVX",
"VXVXVXVXVXVXVXVXVXVXVXVXVXVXVXVXVXVXVXVXVXVXVXVXVXVXVXVXVXVXVXVXVXVXVXVXVXVXVXVXVXVXVXVXVXVXVXVXVXVXVXVXVXVXVXVXVXVXVXVXVXVXVXVXVX",
"VXVXVXVXVXVXVXVXVXcXBXVXVXVXVXVXVXVXVXVXVXVXVXVXVXVXVXVXVXVXVXVXVXVXVXVXVXVXVXVXVXVXVXVXVXVXVXVXVXVXVXVXVXVXVXVXVXVXVXVXVXVXVXVXVX",
"VXVXVXVXVXVXVXVXVX8XcXVXVXVXVXVXVXVXVXVXVXVXVXVXVXVXVXVXVXVXVXVXVXVXVXVXVXVXVXVXVXVXVXVXBXmXVXVXVXVXVXVXVXVXVXVXVXVXVXVXVXVXVXVXVX",
"VXVXVXVXVXVXVXVXVXVXVXVXVXVXVXVXVXVXVXVXVXVXNXNXMXmXmXmXmXmXmXmXmXmXMXNXNXBXVXVXVXVXVXVXBXmXVXVXVXVXVXVXVXVXVXVXVXVXVXVXVXVXVXVXVX",
"VXVXVXVXVXVXVXVXVXVXVXVXVXVXVXVXBXNXMXnXbXxXzXlXhXgXfXsXsXsXsXsXdXgXgXkXzXxXvXbXmXMXBXVXVXVXVXVXVXVXVXVXVXVXVXVX).fXVXVXVXVXVXVXVX",
"VXVXVXVXVXVXVXjXmXVXVXVXVXBXMXmXvXzXjXfXaXtXqX8X5X3X<X:X;X;X;X;X>X2X4X7X9XeXuXsXgXkXxXbXmXNXBXBXBXVXVXVXVXVXVXVXfXNXVXVXVXVXVXVXVX",
"VXVXVXVXVXVXVXNXVXVXVXBXmXvXzXaXpXrX7X<X;X$X.X[.).^.E.T.U.I.I.Y.Y.W.~._.]. X@X*X>X4X8XrXpXfXkXxXvXnXmXmXNXNXBXBXVXVXVXVXVXVXVXVXVX",
"mXkXvXVXVXVXVXVXBXMXnXxXhXpXwX4X;XOX[.~.I.D.B.c.k.d.u.y.e.w.w.e.e.t.i.f.j.c.B.A.L.T.^.].oX&X,X6XqXyXsXgXjXzXcXnXmXNXBXVXVXVXVXVXVX",
"BXxXnXVXlXvXNXmXvXkXsXwX4X=XXX).U.Z.x.s.q.1.=.@.| _ / Q T U U Y Y R ! ( ` { O.=.,.7.u.k.m.Z.L.Q.'.XX&X<X7XeXiXdXhXxXbXmXNXBXVXVXVX",
"VXVXBXNXvXxXzXfXuX6X;XOX).P.C.l.e.1.@.[ ! K Z n k f i u w 8 7 9 9 0 e u p g l v N H T ) ..=.4.t.h.N.H.R.`.oX=X<X5XyXdXjXzXbXNXnXnX",
"BXNXnXkXjXsXrX4X=X'.R.G.c.u.<.../ I B x s t 7 1 ; * # @ o o o o X o O @ @ % = > < 6 r a l B K Q  .=.5.a.b.D.R.(..X:X6XrXpXhXcXyXiX",
"dXgXjXqXrX6X-X|.Q.D.z.w.;.{ T Z x a q 1 ; # + o . .                       . . X X O @ % : 3 e f b G / ..:.r.k.V.I.`.@X,X8XuXiXkXbX",
"jXfXrX1X,X@X/.K.v.y.<. .W S z u 7 < & + o . .                                         . X O $ : 5 u z A Q X.<.y.v.G.~..X;X6XtXfXzX",
"fXyX6X;XXX~.F.z.w.*.' I n d 9 1 $ O o . .                                                   . X # ; 6 s m I [ ;.r.x.D.~.oX:X8XiXgX",
"eX5X,XoX^.F.x.e.-.[ I n d 6 > $ o . .                                                         . . + - 7 d M T  .2.s.B.I.'.#X5XtXfX",
"tX5X*X{.T.C.f.4.o.Q A j q < % X .                                                               . X # 1 r z J ' ;.y.m.L._.@X3XeXdX",
"eX3X&X'.P.N.s.3.O.W Z s q ; + X .                                                               . o % 4 u c K [ >.p.B.Y.{.-X6XyXfX",
"rX6X-X}.I.M.j.9.&._ J c p 5 = O . .                                                           . X @ ; 0 g C ! #.0.z.G.(.+X1XwXaXjX",
"uXqX2X@X).K.M.d.5.$._ H v p 6 - # X .                                                       . o # > 9 f V W o.7.l.G.(.+X<X0XpXhXxX",
"hXpX0X1X#X'.U.C.j.0.;.| R V j y 4 - $ o X .                                             . o + * 2 t l F ( =.w.x.L.'.&X4XeXsXjXcXmX",
"cXjXsXeX3X=XXX^.K.N.j.8.-.| Q S x d q 2 = # O X . .                             . . X O $ ; 5 t j A ~ +.6.j.A.!.oX<XqXpXgXkXcXMXBX",
"MXnXxXgXuXqX4X-XOX_.T.S.c.i.4.%.[ E D b l p 8 < - % @ O o X . . . . . . X X o + # = , 6 r g n L ` =.9.l.D.!.XX<XwXaXjXxXnXvXyX$XVX",
"VXBXMXnXxXjXsXyX0X3X;X+X].W.J.N.k.u.4.-.X.` T S x f i e 9 6 3 2 < 1 1 2 4 6 0 t a h b F R ] *.9.g.V.I.`.%X4XyXgXxXbXmXNXBXVXMXmXVX",
"VXVXVXBXNXmXbXxXkXgXaXyX9X4X:X#X{.^.P.F.n.k.g.y.1.%.} ^ E P H F S D S F H P R ~ [ +.:.8.s.v.S.W.|.*X6XtXfXzXnXMXNXxXgXVXVXVXVXVXVX",
"VXVXVXVXVXVXBXNXMXvXsXkXxXlXgXsXuXqX5X>X+XXX[./.I.H.C.b.k.f.p.y.w.e.e.t.u.s.j.b.B.D.I.^.[.#X,X0XuXeXxXmXBXVXVXVXVXMXVXVXVXVXVXVXVX",
"VXVXVXVXNXNXVXVXVXVXnXNXBXNXMXMXmXnXcXxXjXdXpXrX9X3X:X*X#XoX|.].`.`.`.`.[. XOX#X=X,X6XqXiXgXlXbXmXBXVXVXVXVXVXVXBXmXVXVXVXVXVXVXVX",
"VXVXVXVXNXNXVXVXVXVXVXVXVXVXVXVXVXVXVXVXBXNXMXnXbXxXzXjXfXsXpXuXyXyXyXyXuXpXaXdXjXzXcXbXmXMXBXVXmXVXVXVXVXVXVXVXVXVXVXVXVXVXVXVXVX",
"VXVXVXVXVXVXVXVXVXVXVXVXVXVXVXVXVXVXVXVXBXbXVXVXVXVXNXNXMXmXmXmXmXmXmXmXmXmXMXNXNXBXmXVXVXVXVXNXNXVXVXVXVXVXVXVXVXVXVXVXVXVXVXVXVX",
"VXVXVXVXVXVXVXVXVXVXVXVXVXVXVXVXVXVXVXVXNXxXVXVXVXVXVXVXVXVXVXVXVXVXVXVXVXVXVXVXVXVXVXVXVXVXVXVXVXVXVXVXVXVXVXVXVXVXVXVXVXVXVXkXkX",
"VXVXVXVXVXVXVXVXVXVXVXVXVXVXVXVXVXVXVXVXVXVXVXVXVXVXVXVXVXVXVXVXVXVXVXVXVXVXVXVXVXVXVXVXVXVXVXVXVXVXVXVXVXVXVXVXVXVXVXVXVXVXVXkXkX",
"VXVXVXVXVXVXVXVXVXVXVXVXVXVXVXVXVXVXVXVXVXVXVXVXVXVXVXVXVXVXVXVXVXVXVXVXVXVXVXVXVXVXVXVXVXVXVXVXVXVXVXVXVXVXVXVXVXVXVXVXVXVXVXVXVX",
"VXVXVXVXVXVXVXVXVXVXVXVXVXVXVXVXVXVXVXVXVXVXVXVXVXVXVXVXVXVXVXVXVXVXVXVXVXVXVXVXVXVXVXVXVXVXVXVXVXVXVXVXVXVXVXVXVXVXVXVXVXVXVXVXVX",
"VXVXVXVXVXVXVXVXVXVXVXVXVXVXVXVXVXVXVXVXVXVXVXVXVXVXVXVXVXVXVXVXVXVXVXVXVXVXVXVXVXVXVXVXVXVXVXVXVXBXmXVXVXVXNXhXNXVXVXVXVXVXVXVXVX",
"VXVXVXVXVXVXVXVXVXVXVXVXVXVXVXVXVXVXVXVXVXVXVXVXVXVXVXVXVXVXVXVXVXVXVXVXVXVXVXVXVXVXVXVXVXVXVXVXVXBXmXVXVXVXbX[.hXVXVXVXVXVXVXVXVX",
"VXVXVXVXVXVXVXVXVXVXVXVXVXVXVXVXVXVXVXVXVXVXVXVXVXVXVXVXmX3XcXVXVXVXVXVXVXVXVXVXVXVXVXVXVXVXVXVXVXVXVXVXVXVXVXVXVXVXVXVXVXVXVXVXVX",
"VXVXVXVXVXVXVXVXVXVXVXVXVXVXVXVXVXVXVXVXVXVXVXVXVXVXVXVXmX3XcXVXVXVXVXVXVXVXVXVXVXVXVXVXVXVXVXVXVXVXVXVXVXVXVXVXVXVXVXVXVXVXVXVXVX",
"VXVXVXVXVXVXVXVXVXVXVXVXVXVXVXVXVXVXVXVXVXVXVXVXVXVXVXVXVXVXVXVXVXVXVXVXVXVXVXVXVXVXVXVXVXVXVXVXVXVXVXVXVXVXVXVXVXVXVXVXVXVXVXVXVX",
"VXVXVXVXVXVXVXVXVXVXVXVXVXVXVXVXVXVXVXVXVXVXVXVXVXVXVXVXVXVXVXVXVXVXVXVXVXVXVXVXVXVXVXVXVXVXVXVXVXVXVXVXVXVXVXVXVXVXVXVXVXVXVXVXVX",
"VXVXVXVXVXVXVXVXVXVXVXVXVXVXVXVXVXVXVXVXVXVXVXVXVXVXVXVXVXVXVXVXVXVXVXVXVXVXVXVXVXVXVXVXVXVXVXVXVXVXVXVXVXVXVXVXVXVXVXVXVXVXVXVXVX",
"VXVXVXVXVXVXVXVXVXVXVXVXVXVXVXVXVXVXVXVXVXVXVXVXVXVXVXVXVXVXVXVXVXVXVXVXVXVXVXVXVXVXVXVXVXVXVXVXVXVXVXVXVXVXVXVXVXVXVXVXVXVXVXVXVX",
"VXVXVXVXVXVXVXVXVXVXVXVXVXVXVXVXVXVXVXVXVXVXVXVXVXVXVXVXVXVXVXVXVXVXVXVXVXVXVXVXVXVXVXVXVXVXVXVXVXVXVXVXVXVXVXVXVXVXVXVXVXVXVXVXVX",
"VXVXVXVXVXVXVXVXVXVXVXVXVXVXVXVXVXVXVXVXVXVXVXVXVXVXVXVXVXVXVXVXVXVXVXVXVXVXVXVXVXVXVXVXVXVXVXVXVXVXVXVXVXVXVXVXVXVXVXVXVXVXVXVXVX",
"VXVXVXVXVXVXVXVXVXVXVXVXVXVXVXVXVXVXVXVXVXVXVXVXVXVXVXVXVXVXVXVXVXVXVXVXVXVXVXVXVXVXVXVXVXVXVXVXVXVXVXVXVXVXVXVXVXVXVXVXVXVXVXVXVX",
"VXVXVXVXVXVXVXVXVXVXVXVXVXVXVXVXVXVXVXVXVXVXVXVXVXVXVXVXVXVXVXVXVXVXVXVXVXVXVXVXVXVXVXVXVXVXVXVXVXVXVXVXVXVXVXVXVXVXVXVXVXVXVXVXVX"
};
