/* XPM */
static char *_eaabc59ee224de0d5d6fd90dc97e40d4wq7Y4weM5ENE7s9[] = {
/* columns rows colors chars-per-pixel */
"65 65 2 1 ",
"  c None",
". c black",
/* pixels */
"                                                                 ",
"                                                                 ",
"                                                                 ",
"                                                                 ",
"                              ....                               ",
"                         ... ..........                          ",
"                         ...        ...                          ",
"                        ..            .                          ",
"                        ..              ..                       ",
"                        .               ..                       ",
"                        .                .                       ",
"                       .     .    .      .                       ",
"                       ..    .    .      .                       ",
"                       .                 .                       ",
"                       .                ..                       ",
"                       .                .                        ",
"                       ..    ..         .                        ",
"                        .    ..  ...    .                        ",
"                        ..   .......   ..                        ",
"                          .            .                         ",
"                           ..         ..                         ",
"                            .....  ...                           ",
"                               ...  ..                           ",
"                                ..                               ",
"                              ......                             ",
"                             .......                             ",
"                              ......                             ",
"                            ... .. ..                            ",
"                           .... .. ...                           ",
"              .     ....  ..    ..   ..       ...                ",
"              .     . ... ..    ..   ...    ......               ",
"               ..   .  ...      ..    ....       .               ",
"               ... ..           ..      .        .               ",
"                ....            ..               ..              ",
"                 ...            ..                ..             ",
"                 . .            ..                               ",
"                                ..                               ",
"                                ..                               ",
"                                ..                               ",
"                               ....                              ",
"                               ....                              ",
"                               . ..                              ",
"                             ..   ..                             ",
"                             ..   ..                             ",
"                            ..    ..                             ",
"                           ..     ..                             ",
"                          ..       .                             ",
"                         ...      ..                             ",
"                         ..        .                             ",
"                         ..                                      ",
"                          ..       .                             ",
"                          ..       ...                           ",
"                           .        .........                    ",
"                           .              ...                    ",
"                           ..              ..                    ",
"                           ..              ..                    ",
"                            ..            ..                     ",
"                           . .            ..                     ",
"                         ....             .                      ",
"                       .....              .                      ",
"                      ...                                        ",
"                      ..                                         ",
"                                                                 ",
"                                                                 ",
"                                                                 "
};
