/* XPM */
static char *_3af737f60c04b75fbab077179b84ab29sDZl2nGCVL5hoGh[] = {
/* columns rows colors chars-per-pixel */
"32 32 2 1 ",
"  c none",
". c white",
/* pixels */
"................................",
".                              .",
".                              .",
".                              .",
".                              .",
".                              .",
".                              .",
".                              .",
".                              .",
".                              .",
".                              .",
".                              .",
".                              .",
".                              .",
".                              .",
".                              .",
".                              .",
".                              .",
".                              .",
".                              .",
".                              .",
".                              .",
".                              .",
".                              .",
".                              .",
".                              .",
".                              .",
".                              .",
".                              .",
".                              .",
".                              .",
"................................"
};
