/* XPM */
static char *result[] = {
/* columns rows colors chars-per-pixel */
"65 65 93 2 ",
"   c black",
".  c #0E0B0B",
"X  c #131010",
"o  c #171313",
"O  c #1A1717",
"+  c #1E1919",
"@  c #201C1C",
"#  c #231E1E",
"$  c #282323",
"%  c #2A2525",
"&  c #2E2828",
"*  c #302A2A",
"=  c #383232",
"-  c #3B3434",
";  c #3E3737",
":  c #413939",
">  c #423B3B",
",  c #484040",
"<  c #4A4141",
"1  c #4C4343",
"2  c #4E4545",
"3  c #504747",
"4  c #514848",
"5  c #524949",
"6  c #554C4C",
"7  c #594F4F",
"8  c #5B5151",
"9  c #5F5454",
"0  c #615656",
"q  c #625757",
"w  c #635858",
"e  c #645959",
"r  c #685D5D",
"t  c #695E5E",
"y  c #6A5E5E",
"u  c #6B6060",
"i  c #6E6262",
"p  c #6F6363",
"a  c #726565",
"s  c #746767",
"d  c #746868",
"f  c #776A6A",
"g  c #796C6C",
"h  c #7B6D6D",
"j  c #7C6F6F",
"k  c #7E7070",
"l  c #7E7171",
"z  c #7F7171",
"x  c #807272",
"c  c #817373",
"v  c #827474",
"b  c #837575",
"n  c #847676",
"m  c #857777",
"M  c #877979",
"N  c #8D7E7E",
"B  c #8E7F7F",
"V  c #918181",
"C  c #918282",
"Z  c #928282",
"A  c #928383",
"S  c #938383",
"D  c #968686",
"F  c #9A8A8A",
"G  c #9D8C8C",
"H  c #9F8F8F",
"J  c #A39292",
"K  c #A89797",
"L  c #AA9898",
"P  c #AB9999",
"I  c #AD9B9B",
"U  c #B09E9E",
"Y  c #B19F9F",
"T  c #B29F9F",
"R  c #B3A0A0",
"E  c #B4A1A1",
"W  c #B4A2A2",
"Q  c #B5A2A2",
"!  c #B6A3A3",
"~  c #B8A5A5",
"^  c #B9A5A5",
"/  c #B9A6A6",
"(  c #BAA6A6",
")  c #BAA7A7",
"_  c #BBA7A7",
"`  c #BBA8A8",
"'  c #BCA9A9",
"]  c #BDAAAA",
"[  c #BEAAAA",
"{  c #C0ACAC",
"}  c #C1ADAD",
"|  c #C2AEAE",
" . c None",
/* pixels */
" . . . . . . . . . . . . . . . . . . . . . . . . . . . . . . . . . . . . . . . . . . . . . . . . . . . . . . . . . . . . . . . . .",
" . . . . . . . . . . . . . . . . . . . . . . . . . . . . . . . . . . . . . . . . . . . . . . . . . . . . . . . . . . . . . . . . .",
" . . . . . . . . . . . . . . . . . . . . . . . . . . . . . . . . . . . . . . . . . . . . . . . . . . . . . . . . . . . . . . . . .",
" . . . . . . . . . . . . . . . . . . . . . . . . . . . . . . . . . . . . . . . . . . . . . . . . . . . . . . . . . . . . . . . . .",
" . . . . . . . . . . . . . . . . . . . . . . . . . . . . . . . . . . . . . . . . . . . . . . . . . . . . . . . . . . . . . . . . .",
" . . . . . . . . . . . . . . . . . . . . . . . . . . . . . . . . . . . . . . . . . . . . . . . . . . . . . . . . . . . . . . . . .",
" . . . . . . . . . . . . . . . . . . . . . . . . . . . . . . . . . . . . . . . . . . . . . . . . . . . . . . . . . . . . . . . . .",
" . . . . . . . . . . . . . . . . . . . . . . . . . . . . . . . . . . . . . . . . . . . . . . . . . . . . . . . . . . . . . . . . .",
" . . . . . . . . . . . . . . . . . . . . . . . . . . . . . . . . . . . . . . . . . . . . . . . . . . . . . . . . . . . . . . . . .",
" . . . . . . . . . . . . . . . . . . . . . . . . . . . . . . . . . . . . . . . . . . . . . . . . . . . . . . . . . . . . . . . . .",
" . . . . . . . . . . . . . . . . . . . . . . . . . . . . . . . . . . . . . . . . . . . . . . . . . . . . . . . . . . . . . . . . .",
" . . . . . . . . . . . . . . . . . . . . . . . . . . . . . . . . . . . . . . . . . . . . . . . . . . . . . . . . . . . . . . . . .",
" . . . . . . . . . . . . . . . . . . . . . . . . . . . . . . . . . . . . . . . . . . . . . . . . . . . . . . . . . . . . . . . . .",
" . . . . . . . . . . . . . . . . . . . . . . . . . . . . . . . . . . . . . . . . . . . . . . . . . . . . . . . . . . . . . . . . .",
" . . . . . . . . . . . . . . . . . . . . . . . . . . . . . . . . . . . . . . . . . . . . . . . . . . . . . . . . . . . . . . . . .",
" . . . . . . . . . . . . . . . . . . . . . . . . . . . . . . . . . . . . . . . . . . . . . . . . . . . . . . . . . . . . . . . . .",
" . . . . . . . . . . . . . . . . . . . . . . . . . . . . . . . . . . . . . . . . . . . . . . . . . . . . . . . . . . . . . . . . .",
" . . . . . . . . . . . . . . . . . . . . . . . . . . . . . . . . . . . . . . . . . . . . . . . . . . . . . . . . . . . . . . . . .",
" . . . . . . . . . . . . . . . . . . . . . . . . . . . . . . . . . . . . . . . . . . . . . . . . . . . . . . . . . . . . . . . . .",
" . . . . . . . . . . . . . . . . . . . . . . . . . . . . . . . . . . . . . . . . . . . . . . . . . . . . . . . . . . . . . . . . .",
"| | | | | | | | | | | | | | | | | | | | | | | | | | | | | | | | | | | | | | | | | | | | | | | | | | | | | | | | | | | | | | | | | ",
"| | | | | | | | | | | | | | | | | | | | | | | | | | | | | | | | | | | | | | | | | | | | | | | | | | | | | | | | | | | | | | | | | ",
"| | | | | | | | | | | | | | | | | | | | | | | | | | | | | | | | | | | | | | | | | | | | | | | | | | | | | | | | | | | | | | | | | ",
"| | | | | | | | | | | | | | | | | | | | | | | | | | | | | | | | | | | | | | | | | | | | | | | | | | | | | | | | | | | | | | | | | ",
"| | | | | | | | | | | | | | | | | | | | | | | | | | | | | | | | | | | | | | | | | | | | | | | | | | | | | | | | | | | | | | | | | ",
"| | | | | | | | | | | | | | | | | | | | | | | | | | | | | | | | | | | | | | | | | | | | | | | | | | | | | | | | | | | | | | | | | ",
"| | | | | | | | | | | | | | | | | | | | | | | | | | | | | | | | | | | | | | | | | | | | | | | | | | | | | | | | | | | | | | | | | ",
"| | | | | | | | | | | | | | | | | | | | | | | | | | | | | | | | | | | | | | | | | | | | | | | | | | | | | | | | | | | | | | | | | ",
"| | | | | | | | | | | | | | | | | | | | | | | | | | | | | | | | | | | | | | | | | | | | | | | | | | | | | | | | | | | | | | | | | ",
"| | | | | | | | | | | | | | | | | | | | | | | | | | | | | | | | | | | | | | | | | | | | | | | | | | | | | | | | | | | | | | | | | ",
"| | | | | | | | | | | | | | | | ' N 6 # # 2 z R | | | | | | | | | | | | | | | | | | | | | | | | | | | | | | | a   w | | | | | | | ",
"| | | | | | | | | | | | | | | ~ <   r Y ' F $ B | | | | | | | | | | | | | | | | | | | | | | | | | | | | | | | a   w | | | | | | | ",
"| | | | | | | | | | | | | | | i   = ] | | | L C | } S 5 + * y P | | | ;   b | | f   7 | | 4   g V > & s ` | p           ` Z     ( ",
"| | | | | | | | | | | | | | (     k | | | | | | | j   q ` K o X L | | ;   b | | f   7 | | 4   9 ! / <   v | | a   w | | | Z     ( ",
"| | | | | | | | | | | | | | L     Z | | | | | | W     J | | u   w | | ;   b | | f   7 | | 4   j | | g   7 | | a   w | | | Z     ( ",
"| | | | | | | | | | | | | | L     A | | | | | | H     T | | n   @ | | ;   b | | f   7 | | 4   j | | x   , | | a   w | | | | | | | ",
"| | | | | | | | | | | | | | ^     x | | | | | | H     U | | m   + | | ;   b | | f   7 | | 4   j | | c   , | | a   w | | | | | | | ",
"| | | | | | | | | | | | | | | r   - [ | | | I A W     J | | i   w | | 3   k | | f   7 | | 4   j | | c   , | | h   0 | | | Z     ( ",
"| | | | | | | | | | | | | | | ! >   e T ] G * B | h   q _ L o X L | | j   1 ) Q 8   7 | | 4   j | | c   , | | D   * Q | | Z     ( ",
"| | | | | | | | | | | | | | | | _ M 3 @ o 3 v E | } C 4 O & t P | | | ( p % : Z d   7 | | 4   j | | c   , | | { l - . * ' Z     ( ",
"| | | | | | | | | | | | | | | | | | | | | | | | | | | | | | | | | | | | | | | | | | | | | | | | | | | | | | | | | | | | | | | | | ",
"| | | | | | | | | | | | | | | | | | | | | | | | | | | | | | | | | | | | | | | | | | | | | | | | | | | | | | | | | | | | | | | | | ",
"| | | | | | | | | | | | | | | | | | | | | | | | | | | | | | | | | | | | | | | | | | | | | | | | | | | | | | | | | | | | | | | | | ",
"| | | | | | | | | | | | | | | | | | | | | | | | | | | | | | | | | | | | | | | | | | | | | | | | | | | | | | | | | | | | | | | | | ",
"| | | | | | | | | | | | | | | | | | | | | | | | | | | | | | | | | | | | | | | | | | | | | | | | | | | | | | | | | | | | | | | | | ",
"| | | | | | | | | | | | | | | | | | | | | | | | | | | | | | | | | | | | | | | | | | | | | | | | | | | | | | | | | | | | | | | | | ",
"| | | | | | | | | | | | | | | | | | | | | | | | | | | | | | | | | | | | | | | | | | | | | | | | | | | | | | | | | | | | | | | | | ",
"| | | | | | | | | | | | | | | | | | | | | | | | | | | | | | | | | | | | | | | | | | | | | | | | | | | | | | | | | | | | | | | | | ",
" . . . . . . . . . . . . . . . . . . . . . . . . . . . . . . . . . . . . . . . . . . . . . . . . . . . . . . . . . . . . . . . . .",
" . . . . . . . . . . . . . . . . . . . . . . . . . . . . . . . . . . . . . . . . . . . . . . . . . . . . . . . . . . . . . . . . .",
" . . . . . . . . . . . . . . . . . . . . . . . . . . . . . . . . . . . . . . . . . . . . . . . . . . . . . . . . . . . . . . . . .",
" . . . . . . . . . . . . . . . . . . . . . . . . . . . . . . . . . . . . . . . . . . . . . . . . . . . . . . . . . . . . . . . . .",
" . . . . . . . . . . . . . . . . . . . . . . . . . . . . . . . . . . . . . . . . . . . . . . . . . . . . . . . . . . . . . . . . .",
" . . . . . . . . . . . . . . . . . . . . . . . . . . . . . . . . . . . . . . . . . . . . . . . . . . . . . . . . . . . . . . . . .",
" . . . . . . . . . . . . . . . . . . . . . . . . . . . . . . . . . . . . . . . . . . . . . . . . . . . . . . . . . . . . . . . . .",
" . . . . . . . . . . . . . . . . . . . . . . . . . . . . . . . . . . . . . . . . . . . . . . . . . . . . . . . . . . . . . . . . .",
" . . . . . . . . . . . . . . . . . . . . . . . . . . . . . . . . . . . . . . . . . . . . . . . . . . . . . . . . . . . . . . . . .",
" . . . . . . . . . . . . . . . . . . . . . . . . . . . . . . . . . . . . . . . . . . . . . . . . . . . . . . . . . . . . . . . . .",
" . . . . . . . . . . . . . . . . . . . . . . . . . . . . . . . . . . . . . . . . . . . . . . . . . . . . . . . . . . . . . . . . .",
" . . . . . . . . . . . . . . . . . . . . . . . . . . . . . . . . . . . . . . . . . . . . . . . . . . . . . . . . . . . . . . . . .",
" . . . . . . . . . . . . . . . . . . . . . . . . . . . . . . . . . . . . . . . . . . . . . . . . . . . . . . . . . . . . . . . . .",
" . . . . . . . . . . . . . . . . . . . . . . . . . . . . . . . . . . . . . . . . . . . . . . . . . . . . . . . . . . . . . . . . .",
" . . . . . . . . . . . . . . . . . . . . . . . . . . . . . . . . . . . . . . . . . . . . . . . . . . . . . . . . . . . . . . . . .",
" . . . . . . . . . . . . . . . . . . . . . . . . . . . . . . . . . . . . . . . . . . . . . . . . . . . . . . . . . . . . . . . . .",
" . . . . . . . . . . . . . . . . . . . . . . . . . . . . . . . . . . . . . . . . . . . . . . . . . . . . . . . . . . . . . . . . ."
};
