/* XPM */
static char *result[] = {
/* columns rows colors chars-per-pixel */
"10 16 2 1 ",
"  c black",
". c None",
/* pixels */
"..........",
"..........",
"..........",
"..     ...",
".. ...  ..",
"......   .",
"......   .",
"......   .",
".....   ..",
"....   ...",
"...   ....",
"..   .....",
".        .",
"..........",
"..........",
".........."
};
