/* XPM */
static char *_b7358349e5b4808fe744633b31baaeamQrtFMb5m7hRBzIa[] = {
/* columns rows colors chars-per-pixel */
"64 64 233 2 ",
"   c #581B0D",
".  c #4D2202",
"X  c #5E2B13",
"o  c #592B11",
"O  c #612F0A",
"+  c #642A15",
"@  c #683A19",
"#  c #753921",
"$  c #74471C",
"%  c #6B4117",
"&  c #774727",
"*  c #794E34",
"=  c #7C5232",
"-  c #814B28",
";  c #84582B",
":  c #83562F",
">  c #845431",
",  c #8B5C3C",
"<  c #875A35",
"1  c #925933",
"2  c #8D6139",
"3  c #966A39",
"4  c #9D713A",
"5  c #976A2F",
"6  c #A26E3D",
"7  c #8B5D41",
"8  c #895442",
"9  c #A0584A",
"0  c #8D6344",
"q  c #8D654C",
"w  c #966B42",
"e  c #9B6C45",
"r  c #91634A",
"t  c #956B4B",
"y  c #9C6D4C",
"u  c #956543",
"i  c #9B7248",
"p  c #976C52",
"a  c #9C7253",
"s  c #A46C45",
"d  c #A4754C",
"f  c #AA7D45",
"g  c #A47654",
"h  c #A67956",
"j  c #A6765B",
"k  c #A37B5C",
"l  c #AC7B5D",
"z  c #AC7A54",
"x  c #AF7654",
"c  c #AC7C61",
"v  c #A67E61",
"b  c #B27C63",
"n  c #BA7366",
"m  c #AE8353",
"M  c #AD825B",
"N  c #B28557",
"B  c #B2835C",
"V  c #BB835D",
"C  c #B58A5C",
"Z  c #BA8A5C",
"A  c #B8905F",
"S  c #AB8264",
"D  c #AE886A",
"F  c #AA8569",
"G  c #B28465",
"H  c #B58A63",
"J  c #BB8D66",
"K  c #B48469",
"L  c #BB846B",
"P  c #B48C6D",
"I  c #BB8C6B",
"U  c #BD8463",
"Y  c #BD926C",
"T  c #BB9163",
"R  c #AF8C70",
"E  c #B68E72",
"W  c #BC8D73",
"Q  c #B68773",
"!  c #BC9374",
"~  c #BD957B",
"^  c #BC9879",
"/  c #C2895E",
"(  c #C28D6C",
")  c #C58C65",
"_  c #C4936E",
"`  c #CA9C6D",
"'  c #C7976D",
"]  c #C38C74",
"[  c #C78C79",
"{  c #C29374",
"}  c #C99477",
"|  c #C59A73",
" . c #CA9C75",
".. c #C3947B",
"X. c #CA947D",
"o. c #C49A7D",
"O. c #CB9B7C",
"+. c #D19D7D",
"@. c #D2997A",
"#. c #D5986B",
"$. c #CDA27B",
"%. c #C0A47C",
"&. c #D4A47D",
"*. c #D5A877",
"=. c #E2B37C",
"-. c #C59C81",
";. c #CC9C83",
":. c #C99B87",
">. c #D29E84",
",. c #D69682",
"<. c #CCA385",
"1. c #CEA886",
"2. c #CCA38A",
"3. c #C9A586",
"4. c #D3A485",
"5. c #D9A486",
"6. c #D6AA84",
"7. c #DAAB84",
"8. c #D3A58B",
"9. c #DAA68B",
"0. c #D4AA8C",
"q. c #DBAC8C",
"w. c #DDB28D",
"e. c #D5AC92",
"r. c #DBAC92",
"t. c #DCAE9B",
"y. c #D6A993",
"u. c #D6B295",
"i. c #DCB394",
"p. c #DCB49A",
"a. c #DEBA9C",
"s. c #DEB894",
"d. c #EBAD84",
"f. c #E1AD8D",
"g. c #ECAE89",
"h. c #E2B383",
"j. c #E4B38D",
"k. c #E5B98D",
"l. c #EBB58A",
"z. c #F3B78C",
"x. c #E5AD95",
"c. c #EAAB95",
"v. c #E5A994",
"b. c #E3B494",
"n. c #EAB595",
"m. c #E5B995",
"M. c #EBBB95",
"N. c #E4B69B",
"B. c #EAB49B",
"V. c #E5BB9B",
"C. c #EBBC9C",
"Z. c #F3BE95",
"A. c #F2BD9B",
"S. c #F4B592",
"D. c #E4B5A1",
"F. c #EAB6A1",
"G. c #E4BCA2",
"H. c #EBBDA3",
"J. c #ECBDAB",
"K. c #F1BDA3",
"L. c #F6BBA6",
"P. c #F5BCB1",
"I. c #E5C29D",
"U. c #EDC19D",
"Y. c #EEC095",
"T. c #F2C39D",
"R. c #F5CA9B",
"E. c #F9CC9C",
"W. c #F6C698",
"Q. c #E5C0A3",
"!. c #EDC2A4",
"~. c #EEC9A5",
"^. c #EDC5AA",
"/. c #EECAAC",
"(. c #E5C3A8",
"). c #F3C4A4",
"_. c #F9C4A4",
"`. c #F4CAA5",
"'. c #FBCBA4",
"]. c #F3C5AA",
"[. c #FAC5AC",
"{. c #F4CBAC",
"}. c #FBCCAC",
"|. c #EED2AD",
" X c #FCD1A5",
".X c #F5D2AD",
"XX c #FDD3AD",
"oX c #FFDBA9",
"OX c #EDC3B0",
"+X c #EECBB2",
"@X c #F4C6B4",
"#X c #FCC5B1",
"$X c #F5CDB2",
"%X c #FBCDB3",
"&X c #F4CEBA",
"*X c #FDCDBB",
"=X c #EDD3B0",
"-X c #F5D2B4",
";X c #FCD3B5",
":X c #FEDAB4",
">X c #F6D3B9",
",X c #FFD2B9",
"<X c #FFD5BA",
"1X c #FFD6BD",
"2X c #FDD5BA",
"3X c #FFDABA",
"4X c #FFDABD",
"5X c #FFDDBE",
"6X c #FFDABC",
"7X c #F7DAB4",
"8X c #FFE1BD",
"9X c #FFE9BE",
"0X c #FFE5B6",
"qX c #FED4C3",
"wX c #FFD9C1",
"eX c #FFDDC2",
"rX c #FFDCC2",
"tX c #FFDDC9",
"yX c #FFD5CA",
"uX c #FFE2C4",
"iX c #FFEBC4",
"pX c #FFE4CA",
"aX c #FFEBCC",
"sX c #FFF1CC",
"dX c #FFF6CB",
"fX c #FFE4D1",
"gX c #FFECD2",
"hX c #FFEED9",
"jX c #FFF3D5",
"kX c #FFF5DA",
"lX c #FFF9D9",
"zX c #FFF9D1",
"xX c #FFF7E3",
/* pixels */
"-X-X$X>X-X^.].*X0.<.].XX;X).2 /.pX$X{././.>X;XuX8X6X;X>X-X.X{.~./.;X^.-.*X).0.r.N.N.N.!.].].^./.2XrXpXwX6XF G.jX5X5X;X>X7X8X9X8X",
"eXeX1XwXwX%X*XwX{.H.3X;X;X5X! aXiX>X5X5X3XuX3X8X5X3X7X2X3X5X5X2X-XpX<X8.%X].F.%X%X}.*X<X6X6X6X6X>XwX>X$XwXe.eXgX1X5X5X5X8XiX8X5X",
">X2X;X;X$X{.#X1XB.b.{.H.C.:X<.:X5X/.2X3X;X3X-X;X;X-X-X;X;X;X;X-XQ.;X{.o.^.].!.%X[.*X%X}.]./.^./.].>X^.^.;Xr.,XeX].$X;X;X3X:X7X-X",
"2X6X3X2X2X;X%X6Xb.p.*XXX}.5Xu.{.5X-X;X;X;X3X3X5X3X3X:X5X6X:X;X-X;XeX;X;.K.[.H.N.%X;X,X*X,X<X<X,X@X2X*XwX*X:.].rX#X;X;X;X;X<X7X5X",
"/..X-X.X;X{.}.;Xp.8.}.;X;X;X3.V.`.Q.).!.!.{.{.;X;X;X;X;X;X;X{.!.!.%X]...N.L.].K.2X2X2X,X,X3X<X,X%X%X#XwX#XX.F.[.K.L.].H.!.].{.;X",
"/..X/.`.}.{.`.}.N.X.H.{.%X#X-./.Q.N.!.!.H.].].{.}.$X{.{.%X{.].!.N.].^.W r.H.*XwX2X,X*X,X%X#X%X%XwXwX%X*X*X>.[.B.K.F.K.).].).].}.",
".X.X~.~.}.XX}.}.q.I K.H.%X%X..%X{.H.}.}.).%X}.;X%X%X%X#X%X%X{.^.%X%X].W >.r.K.[.L.].[.%X].!.^.,X%X#X%X%XL...L.L.[.[.[.[.%X].].#X",
"1.1.| ! $.<.<.4., @ c c ~ -.* W 4.} ;.O.o.<.4.0.q.0.8.8.2.<.;.o...! Q 7 j K ] [ ] W W Q j r r j p a ] ..c + K r.>.;...;.;.-.o.3.",
"|.t 0 XX'.!.m.M.)._.).C.N.y.y.N.*XM.H._.C.!.7 X 7 K o.W o.2.2.2.;.r.p.N.9.X.X.K o >.yXrX,X].#X/.^.;X^.8.%XwX1X].%X%X].@ p.$X^.$X",
"aXa.t ;X:XXX}._.}.;X;X;X,X%X%X2XK.).}.}.}.pX;.c {.<XwXeXwXwXwXwXrXrXwXrX1X;X,X).& F.fXpXwX,XeX;XuXpX,X{.rXpX6X1X1XpXhXE pXjX3XuX",
"aXi.0 `.U.U.U.b.j.C.A.).].H.D.H.q.m.b.f.b.<X0.V.pX<X<XeXwX1X2X2X-X{.].%X*X%X<X].+ r.1X{.).!.$X$X{.{.C.{.<X$X^.<X^.-XuXu.rXgXQ.>X",
"jXS o.aXC.}.M.M.n.M.C.).%X].V.F.x.b.q.b.b.H.X.3XrX].].>X#X$X$X$X-X#X$X6X1X;XwX;X@ G.pX,X%X$X6X5XuX5X-XiX;X^.e.$X#X-X6Xa.>XgX=XeX",
"$Xq F.3Xi.M.7.M.m.n.n.C.H.N.r.q.4.4.4.M.C.m.K ].pX<X1XeX2X1XwX>X;X-X-X<X{.^.;X#X7 ,XrX/.$X{.-X{.;X;X{.3X!.b.8.b.{.^.$X3.(.pXwX>X",
"^.3.1X!.m.b.m._.W.W.M.M.).C.b.p.j.M.b.m.N.!.! !.;X<X6XwX1XwXrX2X6XeX6X5X-X#XwX1X-.gX6XG.-X2X2X-X{.;X;X<X{.].^.].].{.*X2.^.aXgX>X",
"$XG.<XG.m.m.T._.M.W.M.U.).C.b.b.b.b.7.4.4.i.K i.<XeXwXwXwX6X<X6X>X5X2X5X3X6XwX~.o.pX2XV.2X>X-X;X;X;X2XXX{.K.].).].*X*X:.p.pXuX>X",
"pXt.%X%Xb.).}.T.R._._.`.}.].H.!.V.f.b.).T.V.K m.5XuX:X;X;X^.b.U.{.%X{.;X;X;X^.o.v eXeX.XuX;X{.:XXX).XX`.XX_.%X}.].uX2X8.y.wXwXwX",
"t.v ^ 3.E ! Y M z g M h y g v K  ._ z y z j 2 > d N z f 1 - & - & O > , = & & . = k <.0.| P H M d $ 2 ; 3 C M h Y ;.:...-.:.8.r.",
"=XqX=X(.uX.XY U.XXR. X.X.X-X~.^., l q.Q.;X{.H.m.w.k.Y.Y.Z.W._.'.;XS.q.X.}.uXpX4X6XpXpX>X].`.}.;X:X XoXW.*.C m.R.).{.H.D.].%X#X].",
"kXlXjXaXzXzX%.dXdX9XdXsX9XiXaXlXE e.kXxXxXhXgXjXaXiX8X8X5XeXpXpXuXjXrXr.kXhXyXpXfXhXhXgXpXrXeX<X<X8X0XdX XM 9XaX5XeX,X*X5XpX5X;X",
"fXuXuXuXiXiXD 9X9X|.:X7X|.=X8XjXa.G.kXyXpXqXpXfXpX8X7X-X.X-X$X*X{.jXpXE gXtX/.5X+X$X>X2X2XeX5X>X{.;X~.iX.Xi iX;X$X1X1X-X;X2X;X:X",
"$XwX-X^.8X5X2 :X9X X.X:X5XeXeXuX4.m.5X).2X,X3X3X;XoX'. X}.}.}.;X).oXR.2 :X9X.X`..X.X7X:X:X0X:X5XrXpXuXaXG.a 8X-X^.>X>X$X-X~..X7X",
"-X>X6X<X2X:Xt `.aXXX;X3X<X6X6XuXI T.uX}.wX*X;X;X}.XX'.`.'.`.}.{.XX X X< 9XiX:XI.~.|.:X0X0X:X.X~.&X&XtXeXa.R pX;X+X$X$X$X-X.X~.`.",
"6X>XuXuX>X7Xk s.9X;X:X/.Q.~.$XeX0 T.,X].>X$X,X$X~./.~..X-X2XwX2X;X%X{.& ;X3X5X2X;X-X>X-X-X-X-X>X+XOX2X3X0.^ 9X^.^.$X/./.-X`.R.~.",
"+XpX;X(.8X7Xt ~.iX-X-X.X{.>X>X{.= {.,X%XqX@X*X^.-X/.~./.-X>XqX2X;X;X$X& pX1X,X,X>X>X;X-X$X@X$X>X>X@X-X;X^ H :X.X].%X%X%X{.{.`.XX",
"%X;X,X].;Xp.0 !.3X).~.$X$X;XwX;Xg m.pX$X].*XwX].{.`.{.;X;X<X2X,X,XwX>.b 1XwX).1X%X1X,X,X1X*X>X,X{.3X:X:X6.e 8X:X;X%X%X*X%X].}.[.",
",X].].H.H.9.g C.].K.H.!.).*X1X<X} z.5X;X,X;XeX5X;XXXoX:X:XXX;X;X}.].} l ;XwX}.[.<X6X<X;X6XrXrX<X:XoXE.0XE.N oXXX}.}.2XtXwX%X;X;X",
"c.L.#XL.c.S.] b L.F.v.v.L.P.#X[.) #.d.d.S.S.g.g.g.=.d.z.Z.Z.Z.A.g.g.&.z h.l.A.Z.n._.:X:XXXXX;X`.'. XoXoX=.4 h.;X_.A.L.[.x.c.n.B.",
"c.,.L @.[ ( [ ;.>.} b b [ ,.] ] V / #.V V n 1 1 6 6 s f V V ) ( L _ ( x e V @.+.s e J } I G G M w ; ; 4 `  .` z G b L L j ] @.@.",
";X_.D ! e.Q.pXlXpX2X^.+XeX-X^.$X%X;X6X@X%XJ.-.:.v.f.j.m.C.H.!.].#X%XF.L.9.2XwX#XB.L :.D.G.(.D.a.8.).`.H ; $ 2 M { >.x.q.] A._.n.",
"i.<X0.0..XaXaX5XpXeX>XuXpX>X>XrX>XQ.+X&XqX@X:.@XC.B.m.V.Q.Q.J.^.J.J.t.].v.*XL.r.%X{ x.tXtXyXyXqXwXuXaX8X8XXX).`.{.*XwXH.[ [._.j.",
"C.C.o.!.uX;X^.+X+X/.>X>X{./.$X$X2X~.^.@X&XJ.W K.x.q.j.j.b.m.N.C.i.N.p.b.6.q.} o.i.G ).jXeX2X>XwXqX&X$XuXaXaXuXuX<X%X<XH.I T.R.M.",
"B.9.{ H.;X<X,X1X5X>X2X>X>XwXwX^.(.Q./.D.J.%X-.B.n.n.j.M.M.M.C.H.H.!.!.m.U.9.7.7.6.h m.iX.X>X>X=XyXqXwXtX<X<X<X<XwX{.4X#X{ _.M.n.",
"K.].;.N.uX<X6X-X2X8XuXuX7X5X7X3XQ.>X/.5X$X}.O.O.f.9.C.).B.).[.].2X*X@X].].).K.H.W.J ).gX#X#X2XwXyXtXwXwXwXwX2XtXwX*X*XwXW x.H.].",
"].*Xr.G.%X(.#X;X2X-X;X-X-X7X5X5X>X>X/.^.].;X} K.3Xb.f.n.A.].P.H.D.H.H.!.K.A.A.A.W.) '.aX3X;X}..X{.<X1X;X;X<X,X<X;XeXrX}.j H.1XF.",
"].].r.F.,X,XeXeXaX2X8X5X5X8X5XuXuXuX5X-X3X;XI !.}.q.9.4.9.N.N.H.U.R.R.W.Y.=.=.=.W.*.W.oXE.E.E..XoX`.}.:X:XT.).XXXXM.C.T.B _.5XM.",
"W ..K ;.N.s.b.s.i.%.a.s.a.u.0.u.a.G.G.p.0.o.< y y > y W ..K G i.Y Y H m f 4 4 4 m 5 5 4 5 3 i m ' T Y H C w w 3 e < < C d  .7.&.",
"O.q.r.b.r.5.0.r.o.S r.i.i.e.0.u.u.G.Q.+X{.$X{.).}.;XU.g k V.!.i.H.H.V.m.k.n.k.k.M.k.k.h.w.w.w.V.w H &.H Y w.U.|  .'.M.A.6.n.Y.M.",
"6XeXeXeX<X;X;X<X{.4.3X-X;X-X<XeXrXpXeXpXeXuXjXiXaX5X5XV.{.aX;X;X<X2XwXrXuX8X5X:X;X:X:X;X:X;XXX6Xe.`.pX).`.8XaX!.w.jX3X}.}.;X;X:X",
"<XXX}.}.}.;X;X;X%X4.<X).].].#X-X#X>X>X>X;X-X5X;X;X3X9XV.{.iX`.;X-X>X1X6X6X;XXX}.XX3X:X;X;X{.;XeXV.p.*X@X;X@XwXJ.].gX@X*X2X%X%X*X",
";X}.5X;X}.}.;X;X%X4.<X^.].$X;X#XwXwXwX>XuX6X`.uX;X{.;Xm.~.iX`.3X>X2X1X1X<X;X:X:X}.;X;X3X;X^.$X1XD.D.qX@XqX@XtX@Xt.tX*XqX*X*XyXqX",
"}.}.}.XX;X[.}.;X}.I ].}.;X[.<X}.;X>X1X-X<X2X$X-XuXaX8X1.s.:XV..X#X&X#X(.%X;X;X,X;X{.%X%X$X;X/.>Xy.t.qXqXqX@XyX*Xt.qX@XP.qX*X*X@X",
";X:X%X}.%X;X;X}.A.{ K.K.).).}.K.%XG.H././.%XuX5XaX3XpXa.6.I.s.~.^.a.^.;X%X!.H.).%X].}.{.].$X{.1X:.8.#X,X%X/.#Xt.>.@X^.V.D.D.G.*X",
").{.}.`.).}.].m.`.I b._._.A.}.}.;X!.{.rX1X3XpX3XuXeXuXa.u.XX!.~.^.^.@X1X].,X<X%X[.{.;X%X].`./.}.N.5.V.M.b.).5X`.X.{.U.}.~.;X).`.",
"%Xp.H.].G.V.C.C.4.h { 4.f.4.b._.K.b.7.C.r.8.e.V.a.>XQ.E e.Q.3.a.0.0.4.;.o.q.4.T.b.b.m.w.i.U.C.T.H H 7.b.7.b.Y.' $.U.w.T. .m.Y.b.",
"v @ * a k j G o.&.{ { h y e 3 > & > & < , & o q ~ -.-.E E S p 1.6.| B T | B @ =.E.j.*.Z N T C A | J J N i J *. .6.*. . .% i $.` ",
"2XF 3.pXgXuX:X5X`.}._.k.n.S.A.n.+.A._.;XpX3X~ 4XfX>XrXpX4X;X3XpX5X0XXX;XiX'.@ '.iXXX'.'. X:XoX:X:X5X:X;X'.;XuX5X9X;X:XiXI `.zX:X",
"kXe.>XkXuX{.N.w.C.V.j.U.E.Z.Z.'.E.W._._.%XrX2.jXpX$X1XwX2XgXhX#X%XtXtX*XfXtXX P.%XF.L.P.].].D.J.N.L.).[.K.].N.N.N.N.H.rXr.pXkX~.",
"gXe.1XeXp.V.{.`.`.;X'.'.'.'.T.W.[.g.A.j.b.6Xo.pXpX1X>X>XwXtX1X*XwX@XqXJ.yXyX  yXyXP.J.J.H.D.D.].K.%XK.].F.H.0.p.F.H.G.{.0.<XpX/.",
"tXt %X<X`.{.`.XX`.}.`.T.'.XXA.A.g.+.9.m.H.;X! <XpX$X,X6X;X].wX].].,X}.H.tXF.8 tX#XD.B.F.K.H.C._.).}.f.A.n.b.+., n.m.m.}.{ ].jX`.",
"V.g ;X<XN.U.V.V.V.U.'.'.C.g.n.M.T.x.b.x.m.}.~ {.aX;XeX6X,X<X2X#X_.%X}.<X1XX.y.wXB.B.).K.B.C.U.T.T.}._.}.).M.).m.B.C.!.XXY 6.iXXX",
"%Xo.%X5Xm.V.^.I.`.m.U.}.C.n.L.M.A.B.C.b.N.;Xo.p.aX;X<X#X!.*X$X#X;X{.Q.;X6X;.wX*XN.H.].}.)._.}.M.b.B.).[.).i.r.i.C.m.r.).<.4.pX6X",
"uX8.q.;Xa.N.m.V.~.e.<.b.j.q.n.f.q.b.C.m.C.%X$.3.pXuX4X3X*X>X;X1XuX;X%X].gXH.%XwX].].).}.`.'.XXU.<XwX{.C.H.F.$X(.!.%X;X1X<.v 2XrX",
"G.o.P a.e.u.0.3.! P D P K K I ! O.4.4.0.0.i.P E s.^.V./.-XG.!.!.N.p.G.e.^.2.o.^.N.V.m.C.M.6.7.V.0.H.t.D.^.D.G.t.u.t.D.a.~ q e.a.",
"3.o.R 3.3.p.s.u.%.D ! 1.0.s.0.4.<.;.! o.o.o.! o.%.1.^ F ;.~ -.-.~ P D o.o.F F E P P E I P e w $.8.~ p F ~ ~ E -.G.2.2.u.D.2.(.G.",
"eXpX2X4XuXgXhXkXaX^ (.aXuXkXpX3XuXuX6X6XuXuXaXaXaXaXuX^ !.uX<X6XuX+X$XeXuX<XeX$X5X:XiX;X8XU.$.sXkXqXG.wXtXhXe.OXhXfXgXjXgXpXgXhX",
"eX5X4XuXaXeX-XaXlXR >XlX-X2X3X;X;XiXeX5X5X3X8X-X3X;XpXa Q.zX;X-XeX4XgX2XpXpX5XiX8X5X8XXXiX;X| iXpX>XfXpX>XxX-.+XkXfXaXpXpXaXwXtX",
"$X-X-X-X$X>X>X1XaXE G.jX+X4X(./.-X2X3X3X-X{.{.;X-X;XaXE V.aX{.~.>X1X4X2X>X>X-X:X.X/.8X;X5X:X, 5XeX^.$X6XwXlXu.a.aX7X-X-X{./..X/.",
"$X+X+X^.$X%X;X>X6X^ p.gX>X>X-X>X-X;X3X3X;X5X5X5XuXaXiX! p.uXG.Q.>X<X2X2X>X-X.X:X8XXX:X`.U._., 5XgXuXaXiXpXaX%.I.uX=X`..X.X.X.X.X",
"^.(.G./.-XwX6X6X>X~ 3.pXeX2X>X>X$X>X-X$X{.;X;X$X].<X<XP ~.uXN.s.H.^.].-X;X:X2X:X:X{.}.C.b.A.- <XuX3X-X~.uX8XM Q.;X~.~..X.X`. X~.",
"5X;X;X,X1X6X<X%XtXW -.pXuX6XeX>X-X>X{././.{.].].}.].<X7 U.;X{.U.F./.#X-X-X.X~.I.~.b.).C.[.%X# wXpX;X-X~.-X{.a N.5X`.`.XX X`. X`.",
";X;X;X;X<X;X*X%X*Xp 8.pX>X&X>X<XuX2X>X<X3X<X;X3X6X].5X< q.;XV.i.N.C.H.).`.!.I.m.C.q.C.n.P.L.  *X6X$X>X6X{.).K m.3X}.'.}.`.`.'.}.",
";X;X3X3X<X;X;X;XB.r r.rX%X].$XeX2X>X@X>X,X%X%X%X%X;XuXW x.jX`.).C.C.C.C.m.m.V.m.K.C.[.x.L.v.+ *X1XH.J.uXwXeX0.0.5XXX}.XXXX}.;XXX",
";X<X:X;X}.[.L._.n.L N.].#X{.$X1XrXpXpXwX6XwX1X*X[.6X}.X.{ ;XXX5XpXeX<X;XXXXX`.!.C.A.L.c.c.@.9 L.qX@Xr.%XqXwXt.! ,X].[.%X}.}.}.;X",
"O.O.+.+.>.9.9.f.9.] Q E i.r.e.2.0.G.G.e.y.b.N.>.9.H.4.l u a I I L L I ( { { Y J L ] n @.[ n n [ [ y.Q 2.>.y.;...9.>.>.9.5.5.5.5."
};
