/* XPM */
static char *_f81ca15233d41efbdf0aaed7e55b14b3t5dRKSPimPeWeSr[] = {
/* columns rows colors chars-per-pixel */
"64 64 194 2 ",
"   c #270000",
".  c #2D0000",
"X  c #340200",
"o  c #3B0500",
"O  c #3D0B00",
"+  c #420D00",
"@  c #441200",
"#  c #4B1500",
"$  c #4E1B01",
"%  c #4E110B",
"&  c #4F1C09",
"*  c #501703",
"=  c #531B03",
"-  c #541E09",
";  c #581F0B",
":  c #501F10",
">  c #542204",
",  c #592306",
"<  c #54230A",
"1  c #5B250C",
"2  c #5D2A0D",
"3  c #5C2512",
"4  c #5D2B12",
"5  c #5E3015",
"6  c #602C07",
"7  c #622B0D",
"8  c #602713",
"9  c #632C13",
"0  c #682E16",
"q  c #632E19",
"w  c #653214",
"e  c #693516",
"r  c #6F3917",
"t  c #65331A",
"y  c #6B351B",
"u  c #6D3A1C",
"i  c #723B1D",
"p  c #672C21",
"a  c #623120",
"s  c #6B3521",
"d  c #6D3B22",
"f  c #6F3F28",
"g  c #703723",
"h  c #733D23",
"j  c #783C24",
"k  c #733E29",
"l  c #7A3F2A",
"z  c #72401F",
"x  c #754224",
"c  c #7A4325",
"v  c #75432B",
"b  c #7B452C",
"n  c #77482A",
"m  c #7D492C",
"M  c #774730",
"N  c #7B4533",
"B  c #7D4A32",
"V  c #81452A",
"C  c #824B2D",
"Z  c #83512D",
"A  c #824533",
"S  c #834D33",
"D  c #8A4E33",
"F  c #844E3A",
"G  c #8B4D38",
"H  c #855234",
"J  c #8A5435",
"K  c #8B5834",
"L  c #86523B",
"P  c #8B553A",
"I  c #87583D",
"U  c #8D5A3C",
"Y  c #915633",
"T  c #925A36",
"R  c #9A5C37",
"E  c #91563B",
"W  c #925B3C",
"Q  c #9A5E3D",
"!  c #8F613F",
"~  c #95613E",
"^  c #9A623D",
"/  c #9E6B3E",
"(  c #A06D3E",
")  c #875645",
"_  c #8B5540",
"`  c #8D5B42",
"'  c #8F5F48",
"]  c #925742",
"[  c #935D43",
"{  c #985E44",
"}  c #945E49",
"|  c #9A5F4A",
" . c #985E52",
".. c #8F6042",
"X. c #956244",
"o. c #9A6445",
"O. c #9D6A45",
"+. c #95634A",
"@. c #9B654A",
"#. c #96684C",
"$. c #9D6A4B",
"%. c #9F714F",
"&. c #956553",
"*. c #9C6650",
"=. c #9D6B52",
"-. c #9E6F5A",
";. c #9F7054",
":. c #A16644",
">. c #A26C45",
",. c #A1674C",
"<. c #A26C4C",
"1. c #A96E4C",
"2. c #A27046",
"3. c #A4714D",
"4. c #A9734E",
"5. c #A06650",
"6. c #A36D52",
"7. c #A96E54",
"8. c #A46F59",
"9. c #A57253",
"0. c #AA7454",
"q. c #A77A52",
"w. c #AC7A55",
"e. c #A5745A",
"r. c #AC755B",
"t. c #AC7A5B",
"y. c #A6795C",
"u. c #B17A56",
"i. c #B0755D",
"p. c #B17A59",
"a. c #B77B59",
"s. c #B17E59",
"d. c #B17A5D",
"f. c #B17D5D",
"g. c #B27C5C",
"h. c #B87D5B",
"j. c #AD7661",
"k. c #AE7C62",
"l. c #A57463",
"z. c #B27661",
"x. c #B37D62",
"c. c #B97D64",
"v. c #B57F69",
"b. c #AF815E",
"n. c #B1825D",
"m. c #B3825D",
"M. c #B8845E",
"N. c #B5885F",
"B. c #AF8160",
"V. c #B68061",
"C. c #B48265",
"Z. c #B58264",
"A. c #B98566",
"S. c #BA8465",
"D. c #B78967",
"F. c #BA8966",
"G. c #B5836A",
"H. c #BA866A",
"J. c #B7896C",
"K. c #BD8A6B",
"L. c #BF916F",
"P. c #BF8670",
"I. c #BD8B72",
"U. c #B58571",
"Y. c #C08C67",
"T. c #C18C6C",
"R. c #C3906E",
"E. c #C28E73",
"W. c #C58E79",
"Q. c #C49274",
"!. c #CA9776",
"~. c #C69876",
"^. c #C99877",
"/. c #C59479",
"(. c #CA967B",
"). c #CC9A7D",
"_. c #D19E7F",
"`. c #CEA07F",
"'. c #C99780",
"]. c #C79A83",
"[. c #CC9B82",
"{. c #D19E84",
"}. c #D19E88",
"|. c #D3A284",
" X c #D8A586",
".X c #D6A58B",
"XX c #D8A68D",
"oX c #DBAB8E",
"OX c #D7A790",
"+X c #DDAA92",
"@X c #DFB092",
"#X c #E2AF94",
"$X c #E4B597",
"%X c #E2B099",
/* pixels */
"1.1.1.1.1.o.o.9.c j O.9.9.O.O 6.Y.1.1.>.@.4.w.M.M.u.w.q.4.2.%.$.$.q.+.u <.X.V D Q E E { ,.{ +.$.y.J.k.k.k.> $.`.b.b.q.3.q.n.N.N.",
"a.h.a.a.p.4.7.V.O.W g.r.r.A.i !.Y.0.w.u.w.a.g.V.m.m.w.u.m.w.w.w.9.G.t.b 5.@.R ,.,.,.7.i.i.i.g.z.9.c.y.9.C.c D.).w.b.m.w.n.N.N.n.",
"0.u.w.0.0.,.<.g.W C <.[ X.k.h A.p.<.0.w.w.u.0.w.0.4.4.9.w.r.9.9.U e.9.d { o.{ 5.,.,.6.5.@.| @.@.*.7.+.@.r.x g.S.$.3.r.0.u.u.4.q.",
"0.p.a.0.0.1.6.f.P m r.9.$.V.x 6.p.1.0.u.0.u.p.h.n.g.b.m.n.w.q.9.9.B.e.d @.@.{ E 7.i.i.7.i.r.r.r.r.8.6.r.i.y ,.c.<.3.0.4.4.4.u.m.",
",.0.9.3.6.<.@.0.P u =.r.e.y.d [ <.W o.X.X.1.6.9.w.r.t.9.e.9.<.o.+.9.@.w L [ | { c.z.z.z.z.x.i.r.r.6.5.z.7.y E ,.{ { { { :.:.1.0.",
"$.6.6.$.<.<.<.9.L e X.#.9.=.d +.[ K { [ [ @.O.<.<.<.$.<.3.$.#.+.I +.+.4 A [ 8.c.c.z.j.r.r.6.6.6.z.z.z.z.,.A | E E Q { :.:.{ :.,.",
"6.9.=.+.=.9.=.6.H u ` X.;.=.f =.@.[ <.@.o.6.<.6.6.5.$.$.9.=.#.o.=.6.5.y b F } 6. .| | 5.5.| ,.i.5.7.r.7.] l | { ,.{ ,.,.<.,.,.,.",
"v v t t i x x x O X < < y t X 4 b y j i y j x b C b m n x x u u t w q X ; ; q s y 9 q q ; + + ; * * 8 g - X 9 V b g y y i i y i ",
"-.@ @ y.O.+.U U W o.[ U L M M L 5.W [ @.P o.# X O 2 u w u x d x d m H L b s s 3 . k W.E.c.@.@.+.@.e.+.v 9.x.y.=.<.e.k.. H t.X.#.",
"/...@ k.t.6.9.O.6.t.w.t.y.6.=.y.@.@.5.6.,.S.g 2 0.z.Z.C.A.C.f.k.Z.A.A.G.k.l.l.+.@ L W.P.c.r.g.t.P.K.k.;.J.G.k.B.x.H.[.x Q.|.t.H.",
"].) O e.+.W Q K J W Q o.#.X.` } S S D S P r.x J E.g.r.C.C.y.r.w.9.3.#.r.e.9.e.=.X B v.5.@.@.1.6.9.=.+.;.e.=.X.q.#.=.K.n L.Q.#.e.",
"].< f E.[ @.T R K T E X.O.X.L I H D b D P { i i.H.5.#.r.6.$.<.#.3.$.$.w.y.e.k.y.X +.E.y.6.1.0.w.Z.y.9.B.9...B X.e.$.B.n G.Q.9.y.",
"-.O #.l.C U C Y Y Y Y T [ I S m x C m J W K 2 O.T.w.t.C.t.w.C.t.4.9.4.w.;.#.-.-.O e.C.#.@.>.1.1.q.t.<.t.X.H c L <.#.O.r $.Q.t.w.",
"#.M B...D K R Q ( Q T W o.W S H C E K J P X.7 X.r.0.t.f.t.t.C.V.w.M.m.b.9.;.B.l.d /.y.X.<.w.4.4.3.9.9.r.<.@.X.O.o.6.9.x X.).K.t.",
"-...-...J Y :.Q R R Y R X.W J L C C m c c D , Z p.n.x.f.b.w.9.t.q.u.w.b.q.y.k.#.d L.y...4.u.3.4.u.4.w.1.,.~ o.{ X.1.0.j V T.S.0.",
"U.M ;.y.Y { 1.Q :.:.o.<.1.O.[ [ [ H D [ W W 2 P H.H.t.w.9.X.L [ O.9.4.9.y.e.#.z & L.B.9.f.p.1.w.7.@.9.<.1.,.0.<.r.S.h.V j c.Y.S.",
"M < 5 z 5 5 5 < > $ < > $ $ $ < v 5 & # & < O O $ < < & O X X X o . @ O O X X   X < v v u 5 1 < $ X @ O O 5 < & 5 f d t t f v B ",
";.-.#.#.L.-.5 ..B.#.;.;.;.;.#.#.X : ) &.-.#.I ) L L I ....#.=.-.l.&.N a -.U.U.I.U.I.J.y.X.#.9.e.j.e.-.-.z < ..-.=.&.X.` =.8.=.@.",
"|..X|.`.@X|.n L.@X~.).`.L.~.~..Xa ) OX+X+X.X|.oX~.K.D.A.J.J.J.U.I.OXI.F @XOXG.I.I.).|.~.K.D.N.n.G.L.J.oX9.5 |.|.C.Z.e.9.Z.D.Z.r.",
"D.D.D.D.`.`.5 L.K.;.9.9.;.;.B.`.B ..[.B.Z.n.D.K.Y.D.t.9.9.e.9.9.8.].I.t [.J.o.e.#.;.t.b.w.t.w.q.$.;.%.[.$.# Q.r.;.t.w.9.0.w.9.w.",
"O.w.$.O.b.n.O b.R.9.4.g.Z.F.F.^.m U Q.<.w.g.g.w.4.3.<.O.O.2.1.9.@.t.6.+ T.H.7.O.O.3.9.q.u.u.n.u.D.D.F. X~ $ T.3.^ 3.4.>.>.>.>.4.",
"w.q.t.w.q.b.@ O.!.w.q.q.q.w.n.K.7 W K.<.w.w.u.4.4.4.3.2.<.>.<.4.9.0.<.O H.T.0.~ O.4.u.M.M.m.4.2.>.%.w.F.Z 6 Y.3.O.3.>.>.3.>.>.2.",
"t.<.x.m.<.9.> K R.w.r.O.~ o.1.V.# o.h.<.1.>.3.2.O./ O.O.3.4.4.u.0.r.1.X p.Y.p.h.3.1.3.2.>.2.1.2.O.O.<.g.m r M.>.>.>.O.:.1.>.( :.",
"9.V.w.<.f.w.$ o.R.r.0.3.<.r.9.6.o O.r.<.9.<.3.>.>.>.o.O.1.4.0.u.0.r.1.X S.H.<.0.u.w.0.4.<.<.<.1.<.0.O.t.r 7 m.3.o.1.<.>.1.:.:.4.",
"0.7.0.@.r.E + @.x.,.o.5.6.r.z.r.= W E.1.,.7.c.<.6.,.1.7.0.4.1.0.r.x.j , x.c.| i.7.c.i.7.7.0.i.i.5.c.r.c.J = T.x.0.0.0.i.7.,.1.1.",
"j.@.| [ [ S * } 5.| [ { @.r.c.z.y E c.z.c.i.z.g.i.r.i.g.c.g.g.i.5.,.g = i.c.5.@.i.c.x.r.x.c.c.r.g.z.r.H.@.= 8.z.6.<.i.c.h.0.a.7.",
"S } 6.+.F L 9 = } _ F B ] =.6.6.0 g P S } E P } L J P E [ W W [ F F l 1 A P | ] } 6.c.c.i.z.r.*.6.8.i.r.P * ] z.,.{ @.@.E G E E ",
"F j 3 s t 9 y b b y = = y d q 9 7 9 y ; ; ; o + * # * ; 2 6 7 w 7 0 0 = + 8 k k * + q s 9 8 3 ; + + + * g y y = 1 ; 8 7 # 0 g y ",
"e.+.1 u m +.K.$XI.k.#.9.C.e.+.9.@.6.t.6.6.+.y v S D H W X.X.o.O.$.@.[ +.D z.z.6.[ 3 d U [ } U F b [ +.3 + X # 1 y x L m 0 { o.J ",
"Z r.n n <.L.Q.K.F.x.t.D.A.r.9.n.1.X.O.3.r.+.d @.L S H J U E T ~ [ [ C X.S 8.` b $.9 L T.H.S.j.y.z.I.).E.H.p.@.<.<.7.g.X.0 ,.@.D ",
"K K e X.n.9.#.<.<.<.3.9.$.$.3.$.m.$.o.X.o.[ w X.J H Z K K K K K H L H H m m u u H < $.|.H.z.y.z.x.9.=.A.).|.Q.H.g.0.r.Q 2 o.@.T ",
"U m w ~ w.t.w.r.t.9.9.3.3.n.b.X.~ W X.! +.<.w P U L L K K K ! K ~ ~ X.H [ m m m m $ X.Q.r.9.9.9.y.w.y.n.r.t.x.w.x.<.g.<.e o.Q K ",
"[ o.g L C.k.t.9.t.B.C.B.q.b.y.b.U 6.$.t.=.9.x z H C I +.` X.+.+.r.9.<.o.} X.[ [ [ 1 @.W.6.6.8.e.t.k.y.B.x.k.r.C.x.y.z.i.0 A ] { ",
"@.6.F U 6.X.6.9.t.9.t.q.9.b.w.b.t.t.=.X.X.=.t U j.F M I ` *.@.} U ` [ [ [ [ [ ] [ y r._.c.r.e.6.9.y.y.e.e.y.e.r.8.H.E.@.* | c.| ",
"+.,.C W r.r.g.t.H.t.b.b.b.B.t.Z.A.D.k.9.y.x.y =.6.S m v M L I ` U [ [ [ P H H S @.m <.x.6.5.O.6.e.=.=.k.k.$.6.t.0.@.} E ; { c.E ",
"9 e 1 i K J J D H u K U K B m Z L U U m m x X # & X # y s 1 < N y y w 7 > = $ = , @ $ # # # $ 2 t 4 5 4 3 @ @ @ # + + 8 * j G V ",
"i V D J D c c C i > Z Z D m m Z Z U U o.X.9.9.9.t.C.#.$ = X.#.H U P J J K P P K J J J H Z Z m U @ 5 b 4 t L +.u y <.W E c J P E ",
"S.Y.Y.M.u.0.w.u.$.c w.0.9.0.r.t.N.K.V.D.x.K. XQ.L.K.A.[ =.).f.r.f.f.x.A.T.T.H.S.p.x.V.f.f.r.r.x.L -.U.+.=.G./.+.L {.c.i.7.h.u.c.",
"u.4.1.0.3.u.p.0.1.V r.@.@.@.5.<.O.9.3.9.9.w.n.t.r.f.K.U #.Y.9.3.9.0.w.g.g.w.0.1.0.w.r.r.9.O.0.f.I L 8.*.8.6.c.@.@.).6.0.0.0.,.0.",
"1.1.h.u.@.1.0.w.1.x w.o.O.<.7.,.f.n.Z.9.V.f.$.k.3.9.w.L X.K.$.y.1.0.0.w.r.r.g.f.<.0.q.p.0.@.6.w._ L l.=.8.=.x.+.J S.<.r.<.0.u.a.",
"1.w.1.2.r.3.0.0.1.7 @.0.7.<.r.6.9.t.t.9.t.9.+.w.K.Q.T.m H b.X.$.#.1.O.X.9.r.r.r.w.6.0.9.9.9.<.9.N F e.j.r.=.g.6.D $.O.O.+.3.4.O.",
"4.w.<.3.0.1.<.<.Q 7 { Q { @.7.@.<.U W X.o.9.Z.H.~.V.T.U z U K O.o.U ~ r.1.~ ~ ~ O.o.<.@.o.O.o.r.h v *.8.=.+.5.J x $.o.~ T E Q <.",
"X.<.6.$.9.<.o.X.@.0 L @.@.[ @.6.r.[ =.G.r.n.K.x.K.A.D.H m 3.X.! o.X.O.r.@.9.x.O.$.3.w.1.<.<.@.6.L b ` U L @.f.+.i @.E o.O.<.X.2.",
"W Q X.U P W L P V * e V J V E ,.+.H m U m n H L P $.~ w m ~ x H c c x h u C J X.H H P C C W W o.2 2 m P S E [ y x U Z W S E U K ",
"< . X < , 1 4 y x y y = # # # o X o X O O X   @ t y u 2 w , @ m m i 1 0 i , X C <.P b 7 , 2 2 8 g w 9 , # w C h c c c c X > x u ",
"G.4 N W.E.k.e.C.#.5.@.[ W { { ] B +.8.k.H.v.v k.).r.Z.J.r.w.D.R.S.K.g.x.).6.o 6.Q.x.r.6.r.c.g.S.x.S.V.a.$.f.A.V.A.r.w.T.i 9._.g.",
"OXv -.OXJ.=.} I [ [ P [ @.W U @.*.+.@.} 8.G.b [.(.e.k.x.e.Q.).r.r.H.H.8.(.H.X @.6.[ [ [ +.@.U [ K @.O.$.~ O.K U W J I t.b E.|.$.",
"].B k.I.S I =.' +.r.$.@.6.<.@.@.@.F ` D ` k.y E.H.r.9.t.Z.A.p.<.t.@.r.o.c.x.X r.x.o.E U P K D +.X.<.Q X.W E b C J X.[ 9.x C.~.O.",
"I.@ e.w.O.$.o.<.>.<.O.Q <.:.E o.D i V Y [ 0.e t.R.3.w.r.4.1.r.o.@.9.:.Q Y.R o R.o.K E T R ^ T ~ R >.K Q E K j + D L U <.e <.).4.",
"#.= r.x.E X.~ T ~ ^ 1.1.W J Y Q { D D D D <.e $.~.q.m.w.0.g.0.<.:.1.:.u.u.i C c.Y Y ~ ~ U Y T ^ o.:.:.<.Q E [ W E { o.6.7 H T.0.",
"=.s 6.k.J P ~ W ~ K T :.Y D { J E Q W J K 6.i J ).t.f.9.O.r.@.6.0.1.X.0.g.y g.0.P ~ @.1.o.~ @.~ Y E ,.,.[ G F F [ L S } u c Q.f.",
"U.B F e.U I K U ~ J m J D D [ A D E ] ] [ 6.d x /.C.x.t.r.r.6.t.H.r.7.,.E.o.0.C.o.@.o.6.6.@.1.[ r.r.5.E } | +.} } 8.8.j.v < x.H.",
"} s 4 I B B b j w 9 2 9 4 8 0 9 k j l b N B 4 4 I [ ) +.=.` I } P H I S #.b e +.U I L P [ S L U b U F _ } _ _ L N F _ _ t O B I ",
"f s 3 f k L I L d < 9 b S L b b k h 0 y d d s f d M d < d d d f t 1 1 y y < < 9 8 8 9 8 8 @ O v N y + 1 t s 3 f ) M v L ` N +.` ",
"U.I.k.k.U./.[.OX~.h $.[./.).H.G.K.E.c.C.H.H.L./.I.I.I.t #.J.k.k.C.e.6.C.C.B.G.9.C.y.A.k.J.+.M [.{.y.@.z.P.[.B +.}.'.|.[.).L.~.).",
"G.k.j.k.K.C.t.Q.|.4 e.oXx.t.r.x.x.T.G.A.C.k.C.t.k.k.).$ ..}.k.;.k.B.Q.k.H.R.J.Q.K.t.G.C.).=.s |.(.r.H.H.k.OXf @.XX(.).I.I.R.Z.Z.",
"$.%.3.3.%.9.9.t.K.e K |.%.9.X.$.q.w.m.g.q.3.3.9.9.b.~.7 I L.%.#.e.e.t.t.q.9.q.q.3.q.t.q.k.t.+ K.D.o.t.n.D. XZ L E.k.9.%.$.O.%.O.",
"%.O.O.O.%.4.9.9.q.z Z ^.q.9.O.q.3.q.w.w.0.w.g.w.K.^.D.w B b.! ! 9.q.w.q.q.q.3.3.n.w.n.%.X.$.O C.^.D.K.D.K.^.u ! A.9.$.2.2.2.2.O.",
"/ ~ ~ ^ 4.w.g.w.9.u z L.m.q.q.q.2.4.4.>.>.4.9.3.O.m.w.w ~ D.I H X.O.O.3.q.q.q.w.w.~ 9.U H X.X 9.L.w.9.O.D.K., O.t.#./ >.2.2.( ( ",
"u.3.3.4.w.t.w.9.Z.w u R.N.t.b.q.q.3.>.>.O.>.O.O.O.<.q.O ! D.X.U U X.$.3.4.O./ / / Z ~ J +.9.O e.Q.q.%.O.9.q.@ U b.<.O.3.2.2.2.( ",
"4.4.u.w.i.0.0.6.r.# x E.0.9.9.w.m.4.4.0.a.0.7.i.r.7.g.o S C.I S K P [ [ ^ ~ K K Y J U J r.} X j.V.#.w.w.6.$., P V.7.1.1.>.>.( ( ",
"4.u.a.h.i.i.i.r.[ + L P.$.$.9.f.p.0.4.0.0.7.i.7.0.g.c.y S }.*.=.[ } W E T T ~ T { { Q F  .l X j.k.X.+.G.c.H.m m S.0.1.0.4.4.4.4.",
"a.a.g.i.7.5.*.5.G q F 6.5.@.=.0.H.T.T.c.c.c.c.i.7.c.5.k s j.l.v.W.T.c.i.7.7.O.@.E { ] _ F p %  .z.@.J 6.j.v.S y r.5.:.1.1.( 1.1.",
"i i i j l b A A N p 1 q F N F b V W E V V Y G j A { l ; + % q 3 8 8 9 0 e e 7 7 9 0 8 p p 8 % p s N 8 k l S g p V g j V V V V V "
};
