/* XPM */
static char *_9495b49dec241aed5035a31fb1d5efadaOFhtaWnp8IRTwU[] = {
/* columns rows colors chars-per-pixel */
"64 64 250 2 ",
"   c #160000",
".  c #1D0000",
"X  c #1D0900",
"o  c #240000",
"O  c #2C0000",
"+  c #280307",
"@  c #330000",
"#  c #3B0100",
"$  c #350C02",
"%  c #3D0900",
"&  c #3C070B",
"*  c #3C1308",
"=  c #3D0810",
"-  c #430200",
";  c #4B0200",
":  c #440A01",
">  c #4C0B01",
",  c #4B0309",
"<  c #450C0B",
"1  c #47070C",
"2  c #530301",
"3  c #5B0301",
"4  c #540B01",
"5  c #5C0B01",
"6  c #540B0A",
"7  c #5C0C09",
"8  c #56040A",
"9  c #441202",
"0  c #4B1102",
"q  c #49170A",
"w  c #531202",
"e  c #5C1302",
"r  c #541A00",
"t  c #5D1B02",
"y  c #53140C",
"u  c #5C150A",
"i  c #5B1B0C",
"p  c #551D0B",
"a  c #481514",
"s  c #5D1C14",
"d  c #571716",
"f  c #510C14",
"g  c #620301",
"h  c #6B0301",
"j  c #630C01",
"k  c #6B0C01",
"l  c #650B0C",
"z  c #710C01",
"x  c #710700",
"c  c #631301",
"v  c #6B1401",
"b  c #631C01",
"n  c #6B1C02",
"m  c #621309",
"M  c #641C0C",
"N  c #6B1B0B",
"B  c #6D140A",
"V  c #721401",
"C  c #7A1600",
"Z  c #741C01",
"A  c #7A1C01",
"S  c #721D0B",
"D  c #7B180B",
"F  c #640D12",
"G  c #6C1614",
"H  c #6C1B13",
"J  c #661915",
"K  c #721C14",
"L  c #741E1A",
"P  c #4B2307",
"I  c #5A2508",
"U  c #5E241A",
"Y  c #582716",
"T  c #5C3119",
"R  c #4D2E1A",
"E  c #642303",
"W  c #6C2302",
"Q  c #6C2A02",
"!  c #64230D",
"~  c #6B230A",
"^  c #6C2B0C",
"/  c #642B06",
"(  c #742301",
")  c #7B2401",
"_  c #742B02",
"`  c #7C2C02",
"'  c #74240A",
"]  c #7B240B",
"[  c #742B0B",
"{  c #7B2C0C",
"}  c #6A340C",
"|  c #743101",
" . c #7C3302",
".. c #7C3904",
"X. c #74330D",
"o. c #7C330C",
"O. c #7A3B0B",
"+. c #652313",
"@. c #6C2413",
"#. c #662D14",
"$. c #6D2B14",
"%. c #6B241A",
"&. c #6A2C1A",
"*. c #62271A",
"=. c #752413",
"-. c #7B2413",
";. c #742B13",
":. c #7B2B13",
">. c #72231B",
",. c #742D1A",
"<. c #7C2C1A",
"1. c #7A251B",
"2. c #6D321B",
"3. c #683419",
"4. c #743313",
"5. c #7C3413",
"6. c #7C3C15",
"7. c #74341C",
"8. c #7B341C",
"9. c #7D3B1D",
"0. c #743A19",
"q. c #672C22",
"w. c #6D3424",
"e. c #6A3724",
"r. c #743A22",
"t. c #7D3A23",
"y. c #783626",
"u. c #7D3F34",
"i. c #7E2B23",
"p. c #5B421A",
"a. c #7D410E",
"s. c #7C421C",
"d. c #7A4316",
"f. c #784429",
"g. c #7B4635",
"h. c #6F4024",
"j. c #7A5046",
"k. c #821E00",
"l. c #831A06",
"z. c #832401",
"x. c #8A2402",
"c. c #832C01",
"v. c #8A2C02",
"b. c #832D0B",
"n. c #8C2C0B",
"m. c #86250A",
"M. c #942A07",
"N. c #843302",
"B. c #8C3403",
"V. c #843B02",
"C. c #8B3A03",
"Z. c #83330B",
"A. c #8A340B",
"S. c #843A0B",
"D. c #8C3B0C",
"F. c #923402",
"G. c #943906",
"H. c #90350B",
"J. c #933A0C",
"K. c #9A3604",
"L. c #822B13",
"P. c #852B18",
"I. c #833414",
"U. c #8B3413",
"Y. c #843C13",
"T. c #8B3C14",
"R. c #83341C",
"E. c #833B1B",
"W. c #8B3C1B",
"Q. c #8C351B",
"!. c #923A11",
"~. c #943918",
"^. c #833C23",
"/. c #8B3B23",
"(. c #86372A",
"). c #903C21",
"_. c #84342F",
"`. c #82410D",
"'. c #8B410D",
"]. c #8C4504",
"[. c #94420D",
"{. c #934809",
"}. c #824214",
"|. c #8D4214",
" X c #8C441A",
".X c #8C4C1B",
"XX c #84471A",
"oX c #944314",
"OX c #9B4313",
"+X c #93431C",
"@X c #994A1B",
"#X c #975319",
"$X c #A94C17",
"%X c #A4551B",
"&X c #A6601B",
"*X c #844323",
"=X c #8C4423",
"-X c #834923",
";X c #84432C",
":X c #8C442C",
">X c #8C4C2B",
",X c #894B28",
"<X c #954423",
"1X c #934C24",
"2X c #9A4B23",
"3X c #9B4E2C",
"4X c #97462B",
"5X c #8B562B",
"6X c #9D5223",
"7X c #95522A",
"8X c #99532A",
"9X c #844333",
"0X c #894B36",
"qX c #944C33",
"wX c #954837",
"eX c #895637",
"rX c #925434",
"tX c #9B533A",
"yX c #9A5838",
"uX c #A14C28",
"iX c #A4562A",
"pX c #A35B35",
"aX c #A65938",
"sX c #AA5438",
"dX c #956132",
"fX c #A4623B",
"gX c #A96538",
"hX c #B5693C",
"jX c #A76A33",
"kX c #885644",
"lX c #985948",
"zX c #A65A45",
"xX c #AE5F50",
"cX c #956349",
"vX c #986A4D",
"bX c #AA6A46",
"nX c #B46B45",
"mX c #AC7049",
"MX c #A56855",
"NX c #B97856",
"BX c #B46E52",
"VX c #B47465",
"CX c #C1774D",
"ZX c #C37B59",
"AX c #CF7E63",
"SX c #B6845A",
"DX c #B9826C",
"FX c #C5835B",
"GX c #CA8869",
"HX c #D49569",
/* pixels */
"x.x.z.z.z.j k :.2 ; M ;.1.=.# <.2X` _ ( ( ` N.{.{.].V... .| _ W I 4.e # G F 3 g g g g h k v v V U.+X!.T.O.@ _ hX[.[.B.c.N.].{.{.",
"G.G.J.J.A.( ` ).n c R.:.<.:X2 zX$XN.N.B.B.C.C.[.].C.C.V.V.'.S.o.[ >X<.2 G F g z D l.m.n.U.U.Q.Q.) !.Z.o.`.> |.hXD.C.J.G.[.{.{.].",
"B.B.B.B.c.( ( W.4 ; W e e I.- <X!.z.v.H.A.M.v.F.N.N.N.N.B.Z.Z.{ 5 [ W - k l z D x C C C z k k k v Z n n _ - | 6X( ) v.N.N.C.a.a.",
"N.C.N.N. .W ( T.2 ; 4.n ~ *X# _ U.l.x.m.m.!.U.!.J.H.H.D.!.U.L.] W  X[ ; k j g g m.n.n.v.v.n.A.n.n.( n o.I.; n +XZ ) z.c.c.` ..].",
"W _ _ _ _ n W ;.> - ;.$.9.^.@ e V g k h k A A b.A.b.b.b.L.] N b e X.b @ ; 3 j k ).Q.U.n.b.A.b.{ L.S B ;.=.# ; B j j k k v v ( :.",
"E W ~ ~ ~ ~ M +.; @ > y *.+.@ 4 3 2 g 3 3 B N n ' ( W W ~ ~ m e - r > @ - 4 %.t.(.^.:.{ ` _ ( ' (.(.(._.J ; 2 7 3 3 3 g j k m N ",
"+.+.! i +.%.+.%.> - ; w s s : i m m N m m +.@.! ^ ! E E / ! I i Y 3.Y # - # f U y w w t t t E ^ N >.>.J 6 ; 2 8 F F F G G G G G ",
"# # @ O # - - - @ @ O @ # O O O - # - # # - # # % # # $ # # @ @ o @ O o O o O @ O O O @ @ @ @ # @ @ # - # @ # ; ; - - ; ; ; - ; ",
"#.O O r.t e 2 > 4 4 w > - # @ > +.> u d - s O O O @ O O @ # @ % @ - % : # @ @ o O O MXlX9Xb E w E Q w - X.t.8.~ N ^ ;X# 5 5.4 W ",
"cX9 # 7.7.$.b b =.8.8.8.7.&.+.7.u e H %.s 9X: @ f.s.s.XX>X-X9.^.;X9X;X9Xt.q.q.y # - MX9X^.:.E.{ .X.XO.| 1X1XE.E.E.>XbX> 7XnXS.+X",
"MX# O y.4 e 2 5 2 3 5 e M 4 > 4 ; ; ; 2 ; %.- ; 3X6.X. X X5.{ { { { ( 5.5.[ ^ e @ - (.' n v c.N.| Q t Q o.W e W E } 7X- gXjXW  .",
"MXO # lX; m j 3 3 3 3 j u 3 - ; 2 3 2 3 2 m - :.qX( W ` ` ( ( A ) A ( ` o.| I.[ # n wXL.z.V x.G.`..._ Y._ 5 ; b [ b 4.- 1XyXW ..",
"w.O y _.- 3 3 3 h g g g l 8 ; ; - 2 ; 3 2 2 @ ~ 3X5.Z.D.B.B.D.G.v.v.c.N.( W  .X.# 8./.v V A l.z.N.o.{ P.v 3 - 3 =.t b # b pXZ.Q.",
"f - y.6 3 3 h h h h g g l 3 2 2 ; 7 ; ; > 7 @ > 5.o.S.D.D.oX~.!.J.J.[.'. ._ a.} # zX^.2 Z H.F.z.` ` m.L.V g g j c ~ ;.; > nXuXZ.",
"! - i.2 3 3 z x h h h h h g 3 2 ; 6 # - # > @ - 9.6.`.`.V.N.N.N.c.V.S.`...a.} I @ MXw.4 [ T.c.c.A.c.n.m.l.x x k 3 =.5.; ; pXOXc.",
"rX@ $.y.; j S v z B B S K c 2 > - < # a : % O 9 eX5Xs.} Q w ; w E [ } } } } P O o cXw.&.;X5.W Y.( n ' ' =.B -.=.i.:X^.- ; 2X<XuX",
"# o O o O o o o O O O o + O . . o . . . O o o . . o o o o o O O O + . . o o @ o   o @ # O O O O @ o O o X o O # O @ # O @ # - ; ",
"#.r.T P eXT   P 0.I T T 3.I P P .   * 9 Y 9 9 $ $ $ @ $ q q Y I #.P o   3.;X0XkXj.kXeX4.r r / 3.e.3.R R X   q s U s w 0 p *.M c ",
"nXCXmXmXHXmX9 eXFXnXmXmXjXpXjXSXo 9 SXDXHXFXFXNXfXyX>X-X-X>X,X,X7XSXeXq GXNXT.fXrXMXCXhXiX X X.Xa.5X5XSXp.+ mXZX;Xs...| a..XT.B.",
"%XiX#X1XgXjX% yX8X_ 4.o._ ( `.hX# 0 NX-XY.V.OX@XiX+XS.` | ..| ` ` bX0X$ nXOXj ` b _ A.C.C.B.N.` / a./ jXP o gX` [ o.N. .....B.F.",
"n N.Q t `.XXo g.yXo.^ 9.|.@X#XbX- > tXn ` H.OX~.N.z.) ( ( ( ) ` W 0.T o pXuX) W W _ c.B.J. X XY..X#X.XNX0 O sXm.c ' ) ) ( ( A x.",
"x.N.|.....XXo / bXY.4.o.N.C.oX8X@ > tX;.Q.!.M.k.x.x.z.) A ) ) ` _ E T o 3X%XN.v b _ C.OX!.S.| ` ( `  XyX$ O 3Xn.v A z.) ` ) k.k.",
"K.x.oXD.`  .O : pXU.{ n k A z.T.O d _.H -.A z.x.A A A Z ) { I.Q.o.X.3.O J.$XF.F.` c.v.x.z.) ) ` ) n b 6.% - <Xv V Z A A ( Z C l.",
"M.F.c.( D.Z.O r iXT.{ Z A x.x.( @ *.y.M L.z.C A A V Z Z ( b.Z.U.) 4.&.@ OX$XA F.A.v.x.z.) ) ) ) ( ` W X.@ O ~.z.v Z A ( Z Z C k.",
"z.A b.c o.4 O i /.n e n A c.A.I.@ > tX( ) B.v.x.A ) ) z.c.` z.` o.t.% O W.C.V v.` +XH.) z.c.Z.I.( T.}.d.$ O <X+X{ [  .D._ b ) ) ",
"Q.k 4 > w # o q +.5 > 4 n U.Q.<.# : 9X5.T.I.N.c.Z.Z.S.T. X|.T. X~ s O + t.I.n b #.;X+XZ.W.7X=X5.[ X.X.-Xq O [ I.$.~ I.=X9.7.R.L.",
"- 6 d d % : O . - > - # 4 M +.*.O o a $ 9 : > 0 % % % % % % - : - % +   0 4 > - q q.;Xt.7.r.&.! y.;.2.e.$ o 4 (.J 6 e M > 1 8 2 ",
"; # o $ O O o $ # - O O # - @ O o . O o O o O o o o o o O O O # @ @ +   O @ # % . o @ - @ @ @ O @ @ O O o O @ # @ O # @ O @ - - ",
"1.L O # - b yXGXiXU.n [ W.b.c N H >.i.1.1.5 - # - - ; , 8 5 j k k m 1 d > <.,.i q o @ 5 2 e 5 2 ; 4 w O X + $ # @ - 4 # @ d d , ",
"- H - - [ iXfXyXuXG.Z.+X@XN.` W.Z k v D -.k 2 F 2 ; ; 2 3 3 g h h 8 # f ; -.e - d O 4 3X<XW.b.` T.2XfXdXg.h.E c @.$.8.4 # s F 2 ",
"4 > # 4 W.o.E E ) ) _ _ Z n W W <XD Z j k 2 @ 6 , , 1 , 2 2 3 g 3 3 1 1 ; ; # O @ o +.NXiX<XI.A.D.| Q XXvXmXgX3X8.;.I.4 @ y 7 3 ",
"> - # - { o.Y.o.B.v.` ` c.oX`.t 5 3 k 3 b >.# > 1 - - , 2 3 3 g g g f - 6 ; - # & + 4 aX[ ' _ ( N.V.].`.a.d.oXc.W.[ T.c - w 5 3 ",
"7 5 - 4 <XA.A.z.F.J.OX[.C.C.V.C.3 k.Z m.~ =.- # - - 6 6 ; g k j P.L G 7 5 2 2 ; 6 @ ~ aX( ( _ ` ].]...V.].V.N.oXZ.I.8.;.- ; 5 3 ",
"d J ; 4 ' c ( ) A.c.Z.N. .V.V.'.n.Q.A n e i @ > q.: @ - 8 7 l 3 3 5 4 3 2 6 6 6 6 # ,.MXXXo._ Q / a.a.|  .D.o.| Y.qXtX+.@ 5 (.5 ",
"f y - 0 $.^ s.-X1X0.XX9.d.d.a..X1X<XE.$.#.e.@ R T $ O < < - - ; ; ; > < 1 # & & a # d g.*.Y I P e.P P 0.h.r r r.p : q # O : _.y ",
"@ @ O @ : # : - 4 # 0 > : : # : - ; : : - 9 o o . o o o o O # - # # # @ O O o O O O o O O O O O o . o o O @ @ O @ O O @ O @ y @ ",
"- 2 2 6 2 ; ; 4 - @ 2 ; ; ; ; 2 5 5 4 b 4 E 0.E t.y.+.@ @ 6 6 - ; ; ; 2 4 4 > > > > ; - ; - ; ; O o @ O # - 4 # @ H 4 > - 2 4 3 ",
"4XuX<X).I.I.' -.=.2 (.;.-.{ P.T.~.<XT.3X+XiXZXaXyXpXqX5 J zXwX1.Q.T.+X<X3X3X4XW.I./.W.R.E.{ R.(.: U 9Xw M 4XaXc 5 BX^.R.:.).U.+X",
"v.n.x.A.c.T.I.E.~ - <.k c v A Z ( ` ) c.c.` '.N.N.Z.2X5 c sX=.[ ` c.N.C.C.N. .`  .V.Z. .c.n b.W.: % ! ~ 4.( Y.n n aX` b.c.c.z.z.",
"v.F.F.C.n ( ( I.' ; P.c v A ) Z A.+XJ.V.[.N.` C.N.W D.; e sX~ I.) c.N.B.N.V.V.C.( | B.N.` j ` o.- 9 2.t W ( W.c 2 2X` c.` c.G.F.",
"l.v.) ` c.` { 5.N - c =.-.V n.V ) W.` ` N.N.n B.%XiXiX; 2 E.5 N Z A v n b.b.o.Z.N.( ` b.) ) A :.- # $.t.;.b R.S 2 S c S v m.A V ",
"` B.( Z Z.X.' W 5 # 5 5 k j -.j n 5 2 n ( _ D.@XaX@XiXk # j 2 5 j 2 j 1.S 5 j 2 Z c n v v v S 1.- # i @.N j =.3 ; G 3 3 3 g j A ",
"Z { n n [ N 2 4 7 # 2 F J 2 K K i.5 N (.R.^.3X=X3XqX4X5 ; >.M 2 3 3 G _.L 1.(.N 1.' <.-.N S v =.- - > e 5 7 1.j ; G 8 7 L G j L ",
"# 4 e > > 4 - y > @ # , 8 - 8 J d - ; - # - e # - ! 4 $ - 4 - - ; ; - - @ # 5 - ; - 2 2 2 5 3 5 @ O # ; - 2 u - # > - ; 6 2 2 3 ",
"o o o o O o O O @ @ @ O O O @ O O O @ O O O o . O $ O O @ O O : # # O @ : O O r I > # O O @ @ O O @ O O O @ > # - % % : O o : # ",
"j.o $ vXcXf.2.g.w s s - < > < : # > Y w.g.g.$ h.vX3.h.g.3.f.eXrX-X5X-Xs.fX3.O r lXf.7.7.t.;X^.0Xg.0Xr.0.! 7.0X;Xf.3.e.g.: s.bX6.",
"DX& *.VXqXt 4 2 5 5 2 2 m 4 ; u m 5 5 M 7.;X- mXmX3.E.XXX.pXhXZ.o.+X1Xo.bXqX# M ;.5 2 2 5 3 2 3 ; m m H j k 3 ; m 2 4 ^.; yXBXQ ",
"MX1 9XtX- 3 ' 3 v -.B v K K j N j 3 2 - 2 R.@ cX7XQ 6.'.D.@XH.) C.Z ) e W./.# P.(.j 2 3 3 3 3 B F G g k 3 3 3 2 3 2 2 <.@ tXaXb ",
"kX@ 7.7.c n n v S K G 7 m G 3 3 3 - ; 2 5 -.# 6.fXW a.| _ z.F.V v ) n 3 3Xe @ xXj g 3 2 g k 3 c 2 1.3 h 3 8 ; # 2 2 2 ! # i BXQ ",
"> O t./.5 5 g j k m L L j 3 3 g l 2 2 2 2 =.# I gX_ XX..N.F.v.A Z x.v I.R.# 5 wX2 3 k k g 3 3 j G K k V F 8 2 6 2 g 5 b @ # aX| ",
"@.- N I.2 2 3 3 3 2 3 K g 3 k 3 3 8 7 2 3 1.# : nXI.d.W Z x.V l.M.z.j U.W.- R.:.3 g z D k j k g 2 3 V z g ; - 2 3 g 3 c # ; yX@X",
"9X> - N 5 5 3 5 2 ; - 2 ; ; 3 ; 2 8 f 8 3 >.# # MX:Xf.0.R.L.Z ).4X<.:.b zXw t.(.e 7 m >.G G %.2 _.P.A g 7 F y 7 7 L ' @.# @ 5.<X",
"* . o & % % @ @ O O o . o o O o @ @ @ @ # - .   % % $ P U 6 # 6 > % < o R o o a # & & & = a = & @ ; 2 ; ; 1 # # , > ; - O o - > ",
"o O o O @ : % % O o . O $ < @ @ % @ @ @ @ $ O $ O @ o . @ # @ # O o . O o X . . o o O o o . . = % O @ # @ # + < , # # - < < > > ",
"rX>X Xo.8XhXnXFXfX- ^ bXbXfX7X1XrX>X,X,X:X>XeX5XrXrXeX$ r wXt.^.I.X.o.}.d..X}.| }.S.}.E.:XE - MXNX4._ E.wXMX# - BXxXZXVXzXlXaXnX",
"+XZ.oXA.uXD.Z.gXNX@ | SX7Xo._ `.#X1X.X@XOX'..XO.}.}.fXo w nXR.Q oXB.jXV.&X{.&X%X%X].[.+XgXQ @ NXbX_ @XoXE.GX- M AXxXzXaXtXaX2XJ.",
"n ~ Z ' ' { 5.8.rX# - NX! ~ E b  .V.].C.v.` _ | N.'.7XO c 3Xb n b.Z.N..........._ N.D.o.Y.9.O rX1Xb N.OX%XNX- 4 sX!.) ( W ( ) A ",
":.A n n ' ] ;.^ y.@ : MXr.4.( _ ` N.C.C.B.F.'.'.@XgX7X@ - 4X5 4 <.Z.I.Z. .` _ ` oXA.E.n 4 ! O ,XgX#X%X[.6XbX@ w @Xc.( ( _ _ z.) ",
"v j g v c.T.W.R.;.@ - yX=XX.{ N.( ` ` ( A ) _ W n /.t.# > wX> - 3 k n { U.U.A.U.A.Z ( 5 - 4 @ &.fXd.V.W  XrX@ 0 I.n c W Q W ( Z ",
"B.x.z.z.v.A.N._  X@ - pX+XT.B.A.b.` ( ( C A n n n N &.O 6 0X6 2 5 k Z ] ] ( V v z g j k m J # &.rXo.( b _ 0.O > T._ W ~ ^ _ ( A ",
"B.B.F.B.B.N.` _ 6.@ - aX .` N.B.J.v.z.v.M.M.b.U.~.m.^.O ; wX; ; 2 3 3 j j 3 3 2 g 2 2 2 J d O y.=X( ) !.( ^ @ ; +Xc.) ) _ ( z.z.",
"z.v.H.H.A. .o.6.w @ # yXn n ) H.!.c.c.A.M.x.c.Z.m.Q.^.- - xXJ M 4 4 2 > 2 4 5 3 2 7 2 ; f O o e.9.e k uXZ.=X> - +X` ] <._ ` v.v.",
"Q./.W.R.' M e r % @ - w.i m N :.3X1X1X<X).).E.5.' 8.I $ O kXq.g.kX0Xu.w.&.U s d - 6 f < * o   * w.e 2 =.7.u.1 @ ;.E J %.$.~ ' ) ",
"- - - - ; - # - @ @ o O - - ; ; - 4 4 ; 3 k 4 @ ; > @ o o o o O O @ O @ O @ @ O @ @ O o o       @ - # # - & o @ - # # ; % - ; 2 "
};
