/* XPM */
static char *_0b72288c00f4cfda38bd02e4ac42f44heliv3lNBR1XbP1J[] = {
/* columns rows colors chars-per-pixel */
"64 64 188 2 ",
"   c #000500",
".  c #010B00",
"X  c #080E07",
"o  c #080F08",
"O  c #051102",
"+  c #0A1405",
"@  c #0C1805",
"#  c #0A150A",
"$  c #0E1909",
"%  c #121D0D",
"&  c #0E1A10",
"*  c #131D14",
"=  c #15220E",
"-  c #172212",
";  c #1B2515",
":  c #1D241B",
">  c #1E291A",
",  c #1D2915",
"<  c #222D1C",
"1  c #25311F",
"2  c #28361F",
"3  c #1F2921",
"4  c #232D22",
"5  c #282F28",
"6  c #263222",
"7  c #2A3525",
"8  c #2F3B27",
"9  c #2C352B",
"0  c #2D3929",
"q  c #333D2E",
"w  c #333D32",
"e  c #383D36",
"r  c #36432E",
"t  c #364133",
"y  c #394434",
"u  c #3E4A35",
"i  c #3D463B",
"p  c #3E493A",
"a  c #424C3D",
"s  c #45513E",
"d  c #4C573F",
"f  c #444D41",
"g  c #465142",
"h  c #495445",
"j  c #4D5945",
"k  c #4D554B",
"l  c #4E594B",
"z  c #525D4D",
"x  c #545D53",
"c  c #55614C",
"v  c #59654F",
"b  c #566252",
"n  c #5A6555",
"m  c #5C6955",
"M  c #5C655A",
"N  c #5E6A5A",
"B  c #626D5D",
"V  c #636F57",
"C  c #65715D",
"Z  c #6A765F",
"A  c #5F6960",
"S  c #5F7060",
"D  c #646D62",
"F  c #686F67",
"G  c #686F68",
"H  c #667262",
"J  c #6A7565",
"K  c #6D7A65",
"L  c #6C756A",
"P  c #6E796A",
"I  c #717C66",
"U  c #727D6C",
"Y  c #71776B",
"T  c #6E7870",
"R  c #747E72",
"E  c #7A7F79",
"W  c #76826D",
"Q  c #7A866F",
"!  c #7A886F",
"~  c #76886E",
"^  c #768172",
"/  c #7A8574",
"(  c #7D8974",
")  c #7C8679",
"_  c #7E8A7A",
"`  c #7F9177",
"'  c #7F9179",
"]  c #818D76",
"[  c #828D7C",
"{  c #80867C",
"}  c #829177",
"|  c #85927C",
" . c #89947D",
".. c #87997F",
"X. c #8B987F",
"o. c #7F8980",
"O. c #848E81",
"+. c #869282",
"@. c #8A9584",
"#. c #8D9A85",
"$. c #8C9689",
"%. c #8E9989",
"&. c #919D86",
"*. c #91978D",
"=. c #929D8C",
"-. c #8F9990",
";. c #949E92",
":. c #8EA185",
">. c #95A28D",
",. c #99A58E",
"<. c #9AA88F",
"1. c #96A88E",
"2. c #96A292",
"3. c #9AA594",
"4. c #96A890",
"5. c #9DAA95",
"6. c #9DA69A",
"7. c #9EA999",
"8. c #9FB199",
"9. c #9EB096",
"0. c #A1AD95",
"q. c #A1A79E",
"w. c #A2AD9C",
"e. c #A5B29D",
"r. c #A9B59E",
"t. c #A6B89E",
"y. c #A6B59B",
"u. c #A4ADA1",
"i. c #A9AFA5",
"p. c #AAAFA8",
"a. c #A6B2A1",
"s. c #AAB5A4",
"d. c #AEBAA5",
"f. c #AFBDA6",
"g. c #ACBAA4",
"h. c #ACB6AA",
"j. c #AEBAA9",
"k. c #A7B9A1",
"l. c #B1BDA6",
"z. c #B2BDAC",
"x. c #AFB9B0",
"c. c #B4BEB2",
"v. c #B9BFB3",
"b. c #AFC1A7",
"n. c #B4C1AD",
"m. c #BBC5AF",
"M. c #B5C5A8",
"N. c #B6C2B1",
"B. c #BAC5B4",
"V. c #BCC9B5",
"C. c #BBC5B9",
"Z. c #BECABA",
"A. c #C2CEB6",
"S. c #C2CDBC",
"D. c #C5D2BD",
"F. c #CAD5BF",
"G. c #C3CDC2",
"H. c #C6D2C1",
"J. c #CAD5C4",
"K. c #CCD9C5",
"L. c #CBD5C9",
"P. c #CEDACA",
"I. c #D2DEC6",
"U. c #D1DDCC",
"Y. c #D0D6CC",
"T. c #CFD9D0",
"R. c #D5DED2",
"E. c #D9DFD1",
"W. c #D4E2CD",
"Q. c #D9E5CF",
"!. c #D6E2D1",
"~. c #DAE5D3",
"^. c #DBE9D5",
"/. c #D9E3D9",
"(. c #DEEADB",
"). c #E1ECDC",
"_. c #E4F1DD",
"`. c #E9F5DF",
"'. c #E5EEE2",
"]. c #E5F2E1",
"[. c #EAF5E5",
"{. c #EBF9E6",
"}. c #EBF4E9",
"|. c #EEF9EA",
" X c #F2FDEC",
".X c #F5FFF2",
"XX c #F9FFF4",
"oX c #FBFFF8",
/* pixels */
"|  .@.&.#.I W 5.    +.3.=.2.  %.D.:.` ~ ~ ..:.b.g.y.4.:.:.#.' ~ +.7./ . >.) . 8 Z c c I ] I I W 0.M.r.l.t.  } ^.f.y.>. .#.y.b.f.",
"d.l.r.d.e.#.3.S._ K B.a.Z.z.  !.D.1.9.y.9.t.y.b.t.8.8.8.k.g.k.k.@.H.V.  e._ K #.>.>.<.y.r.r.l.l.| l.<.&.n.  V.`.1.9.t.a.f.n.n.s.",
"3.0.,.>.#.] +.z.n   %.B N j.  K.t.( >.0.:.4.>.>.#.+.+.@.=.>.>.&.h a.%.  _ @.| #.) @.@.W K K K V /  .C U g.  b.V.W  .=.4.5.3.:.@.",
"3.e.e.e.w.=.2.N.m   s.3.;.Z.  =.n.@.0.r.4.t.f.g.n.b.k.k.d.s.5.=.>.Z.7.O _ [ H j 5.e.w.&.>.y.0.=.>.@.[ 5.k.  +.N.#.>.3.2.2.3.e.k.",
"[ &.%.$.%.O.+.7.p   ;.h.u.h.. D  .V Y U C ] $.#.5.4.2.2.3.=.O./ ^ 2.%.  m [ R H n.j.a.w.u.s.e.5.7.#.@.s.3.  N +.H J P P U / #.3.",
"$.;.&.$.=.=.%.a.b   O.2.2.7.O ) U z U U J [ @.@.#.@.@.&.=.&.| / M _ O.  7 / w.S.B.z.a.a.5.&.$.>.s.f.8.a.3.  W J S H W _ _ / _ @.",
";.7.=.@.2.3.2.w.h   M ) h.$.  6.*.{ ;.;.*.q.q.0.6.2.=.;.2.3.*.$.7.u.7.# 7 y +.6./ U / +.+.[ #.3._ 6.s.3.P O ) T ' o.@.;.%.$.+.+.",
"  .       .         .     o     .               .                 .       .     O               .     .     #   .             . ",
"$.    c.$.-.L B / O.) H p . + k p.R L $.F *.                        t i +         @ R.~.Z.] ) U ^ 7.^ O 2.C.a.#.#.7.j.  & a.A %.",
"'.T   G.C.O.u.;.6.C.Z.B.N.2.;.G.O.-.p.i.;.Y.    z.v.v.S.J.S.B.v.L.C.L.P.c.j.j.;.$ 6 ).J.j.w.z.u.P.L.a.+.G.T.N.N.h.P.oX  (..X7.C.",
"/.; . s.R H $.z k J U ) 2.| P [ f k b k B x.  s E.v.w.v.A.i.3.0.3.$._ ;.6.3.a.[   % N.+.H / $.&.$.~ S 4.7.%.N 8.o.2.S.  U.!.P %.",
"|..   (.T ;.B / n L J ^ %._ n b x k w k D O.  p.F.{ Y #. .Y W ] O.$.) 7.a.w.z.5.O J U.w. .@.2.e.N.j.o.N.6.b O J 8./ N.O b.Z.o.4.",
"$.# ^ c.% b 0 B B D b V ^ m r y - t 9 A ^ R   =.Y.;.0.z.w.0.d.0.+.6.$.w.%.U 3.3.  w.n.W ( (  .&.4.4.+.4.W r   y >./ #.  _ ^.%.5.",
"^   Z.L a B J +.[ ] K W @.K j m h +.T T J ( . C s.0.r.r.0.l.m.d.s.V.f.c.>.+.B.z.  ~.0.v ] 3.5.>.-.@.e.g.#.( ^ ` _ #.t.  S _.V.7.",
"%.b c.D f B &.@./ ( K I | K c C f n y q > b   s g.z.d.e.k.0.1.g.7.h.a.f.w.a.n.W   _.0.C >.l.0.0.e.:.g.4.| ^ ` W W 9.y..   W.n.4.",
"G.. 2.w.m O.6.+.@.=. .#.e.=.Q +.o.A M o.L O.  b P.E.z.e.t.n 2 C @.>.3.w.w.s.)     W.d.>.l.l.#.0.4.@.5.+.e.>.5.7.a.D.J.    V.K.V.",
"                .   .     O               X                           .     #         .   .           .   @       .             ",
"$.6.R D V.7.  / w.{ @.=.=.=./ U     x E O.G 5 <   * w k D E $.-.a.T &   -.H.h.T.C.L.G.2.H S +.s.u.;.;.$.    b -.+.O.H D O.;.O.E ",
"'.{.{.].XX].  !.XXE.`.[.~.I.~.XX  * }.oXoXoX).oXY.J.D.A.V.V.Z.Z.L.|.H.  XX.Xf.J.S.(.[.^.K.Z.M.g.S.H.J.XX=.O XX[.C.B.w.2.c.H.c.a.",
"z.B.j.B.J.W.@ H.A. .| } W | r.`.  <  Xi.;.r.p.L.E.S.e.>.>.>.;.#.O.!.J.  ^.h.v ,.W +.1.4.4.8.9.1.C #.H {.+.  ~.,.[ w.w.>.3.5.3.3.",
"J &.C v 0.m.  r.F.X. .<.r.A.A.Q.X < I.E *.i.0.,.&.| Q ] }  . . .) 5.&.  W.A.! K S ` 1.1.1.y.y.9.Z.V.~.`.V   J.<.C #.5.&.#. .#.,.",
"&.&.l.,.5.r.  | W.<.<.<.<.0.d.F.X d F. .0.<.0.&.&.X.X.X.} } | X.} #.#.  A.A.1.d ~ } <.d.M.M.:.` W | 3.K.  . D.0.W @. .] @.| ]  .",
"r./ n.s.@.5.  r W.0.&.Z d V X.A.X Y m. . .I  .X.! ] ] } } :.9.t.0.r.} @ y.A.0.m.X.X.X.} ( ! ` :.W  . .N.O   J.U  . .[ ] #.[ / [ ",
"%.n.w.[ d.n.  ! W.e.,.&.X.<.=.#.X *.0.{ 0.] &.{ ] ! W } X.<.5.5.&.z.,.  A.F.| #.y.<.:.X.} ` ` #.( >./ 7.  . n.4.( [ [ +.%.] ( =.",
"7.;.2.) N.D   =.N.[ ^ #.=.7.j.s.  v E.*.[ i.l.*.&.#.&.0.7.3.4.6.i.v.    v.v.B u.2.h.w.7.%.@.a.5.+.C.6.C.i   R.N.w.6.6.i.6.) -.;.",
"h._ o.^ L 6 . R 6.R H P _ w.S.c.  M Y.v.v.q.J.i.z.p.j.v.V.j.j.N.;.3.    x.E.$./ 6.G.j.7.j.V.Z.u.u.x.x.L.{   h.c.;.$.x.G.c.u.C.u.",
"# T ;.$.x l   . ^ b #   n 2.2.2.    k e F Y V E k h z D P P P / h k X   f x D Y D a.Z.j.s.s.u.%.$.6.q.N.D   L G.6.L O.-.A x A x ",
"i   X       .           .           X         X .       .             X     X       .       .     #                 o     .   . ",
"x.-..   0 _ P.XXP.N. .$.B.2.U 3.*.q.i.i.v.@.    B M B E O.@.%.3.i.q.E ;.x v.C.;.E     k N D h $ . N T       .       M p   O.i.h ",
"i c.    7.U.!.A.H.a.r.D.A.e.e.m.,.E q.,.*.@.  *.B x b H U U ^ / E { i { f v.T e u.@ l J.G.N.j.5.s.P.|.P.S.d.@.O.=.7.S.K # 2.$.x ",
"N Z   | z.=.Q W ( ]  .@. .( Q ( A.*.Y E *.E X ;.H m n B C V N N f M z B 9 q     f   @.XXH.7.u.z.n.+.W A.).|.K.D.n.2.f./   #. ./ ",
"U =   W d.w.5.>.3.#.&. . .l.l.I M z { v  .q.  Z I V B H P P K W E E { k Y e e f f   P H.6.@.[ #.5.3.s.w.>.>.n.0.s.| n.3.  #.~ N ",
"_ @.  j D.s.s.%.=.C.z.a.g.u.w.z.y ,.] d.#.s.    b y P +.P R ;.[ v.r.;.@.O.O.) E O.+ O.R.;./ $.3.j.a.s.s.s.a.%.z.s.e.z.w.  7 J [ ",
"%.a.w n =.J +.$.z.] z.2.&.w.a.j.s.3.] W K #.  / n.z q b [ =.$.^ B L ( O.+.O.[ [ [   j.[.h.h.3.$.+.j.u.%.2.u.>.u.2.J.!.%.  ^ Z.[ ",
"@.[ p H j.7.B.n.J.C.w.S.z.c.z.S.n.Q.V.e.s.A.. >.3.N < , y b B P C U { / J b k j 3.  =.n.2.@.O.3.c.+.+.A.z.=.2.g.u.K J J . / K.B ",
"      + g y y < 7 . y a g       < a 1     .               . . >   . .             .     @   $     +                 .   .   0   ",
". $ r q >             < <     $   c r W ) >.w.#.z.D.=.. + ] P < m z g s j b z j z a a , q 8 . V         . j P     =.J N   s z h ",
"V.C.P.H.j.w.s.s.#.  S.s.7.7.g.s.D.V.A.A.l.z.XXS.J.S.G.m [ ].G.w.n.z.n.S.I.W.J.B.r.D.A.m.s.l.e.D.j 2.L.( $.A.).^ 7 .XN.w.a.Z.s.S.",
"z.7.3.6.2.s.h.w.2.  s.O.^ @.+.@.J =.O.+.%.s.7.w.;.s.U.z [ K.&.&.&.<.0.r.r.0.,.&.0.=.<.s.&.( 5.D.p < 2.2.w.+.Z./ ) ).+.s.w.7.[ 2.",
"@.7.s.s._ +.7.z.7.  N.U [ $.%.+.g.Z.g.w.z.3.( 7.[ ] &.  P R.$.s.=.<.y.0.3.5.e.l.( 0.y.0.>.Q w.0.N a j.) 2.+.B.Y   V.$.s._ w.a.j.",
"+.u.[ =.6.+.2.j.3.  =.7.u.[ u.#.;.h.=.2.w.=.J #.H.K.U.  @ z.J @.( &.Q Z 5.1.<.r.y.&.&.=.>.>.&.5.  0 s.6.j.O.s.5.O / =.+._ 3.=./ ",
"3.w.>.@.s.7.2.$.P . [ / [ _ 7.P { m B H R &.i.H.U.n.U.x   B V W @.v I 0.>.C I m W Z &.] W  .] n.    +.z.%./ +.p   2._ U g n H +.",
"/ %.2.;.2.=.] O.%.@ b #.=.B @.a.s.U @.H.a.v.).s.W.B.J.z   0.[ Q U Z 3.n. .#.J.} s.&.a.0.>.>. .w.b $ H U a $.D.P   %.N @.;.2.[ w.",
"U ) B n x B z b 6   + t h a P %.,.y   J     < = < / W   . W + s   +       @ j ) 6 < z ; 6 ) J +..   t j q H P +   P s H < J M z ",
"    %   O   +                     +     +   . . +     .   +     .               ,.a     .             O     ;           .     . ",
"S.    R.~.Z.2.H.[ a.=.^ / #.O.^ w O.7.V.W.S.  a.].w.V.A.w.r.K.~.S.D.C.j.|.7.. ;.).V.B.u.j.J.V.L.A.L.V.B.7.z.!.J.U.s.N.!.. d.{.z.",
"{.  =..XS.[ / a ^ J b Y _ J N %.+.$.6.J 3.U.   X).+.r.w.5.W.Q.4.3.C.U.2.].H.  +.=.F B R [ E N P c [ +.=./ $.n m U x N N.  L..X] ",
"(.  s.K.. g [ ^ +.w.2.@.3.w.+.=.=.a D w B z.  U.V.3.] 0.l.f.b.( w.^ ;.N c.Z.. s.Z.J L N n b f +.^ %.R / H P   y k _ L 3.+ Z.!.P ",
"H.  7.k.@.#.^ 5.5.=.#./ 2.4.H [ s   4 C Y i.  i.K.] 0.2._ } 8.J ( O.{ m H.B   /.O.i F G L R T ) Y *.z L L N     x D x =.  ;./.@.",
"J   z.g.z _ / P / [ 7.e.P b m +.O.B k h x 3.  { ).;.a.0.4.4.%.#.R *.( s.v.  . L.k M _ ) E D D _ O.+.*.w.L R ;.D x $.O.c.    Y.q.",
"$.. 3.S.f b R R ^ N T 3.M N O.D R { / z J l.  a _.7.s.&./ 3.( | r.+./ 3.a.  N.7.f P -.3.O.R $._ z B ] 3.^ l 4 b E l i L . . ~.s.",
"G.  w h.A A A D $.k 9 G l k L f g Y [ Y E 0.    (.B.d.r.4.8.1.g.K.d.@.@. XH s.K.[ =.+.6.;.;.h.J z.z.w.x o.o.$.o.E w.7.N..   z.J.",
"T     l 3 4 o             . #           . 8     j H j P 5.m r W u 6 z   @..   ( k b y n H y p N . m 8 m P m b h O > p S     . = ",
"      .   3 5 9   X X   9 w   .       +   +             O   O               O O O   .   . @ O         .   O .   6   .   z O V r ",
"T.G.x.h.G.(.}.oX'.  o..XR.'.R.G.P.J.V.B.V.Z.!.!.H.).J.O ~ H.a.V.n.r.>.n.K.b.H.' k.N.N.n.P.H O {. X5.` g.Z.].  P |.).{._.^.D.W.).",
"Z.c.h.c.G.u.i.L..X  h.|.c.h.-.h.j.K.Z.z.V.j.n.7.j.w.].  H |.n.+.n.k.W.t.V.^.V.W.K.k.n.B.{.#.  |.W.e.n.B.k.XX  W |.U.^.P.D.J.V.t.",
"/ ] @.&.+.O.&.3.H.. u {.) #.z / 3.6.a.a.2._ _ #.#.s.).  j E.[ Y 4.5.8.9.5.>.%.#.%.:.a.4.n.j.. J.V.m :.8.h.XX    !.8.' ' ^ ~ ~ W ",
"@.] U Q @.&.&.&.7.    _.r.[ )  ._ 5.8.3.1.a.h.7.A./.A.X   S.v V 4.5.5.5.>.>.4.4.g.k.Z.@.m o.O g.W.N.N.V.K.W.@ h Z.$.' @.o.o.:.` ",
"I V z C #.y.s.e.=.  O D.r.0.>.X.+.:.%._ ' :.=.+.R v.w.  U D.a 5 C W +.>.4.5.8.s.n.J >.b 1 S O ;.W.9.5.T n.P.  P a.~ T o.o.' +.' ",
"d.<.&.>.0.y.0.>.A.  . W.B.y.<.l.1.#.( W ^ ^ W P Y &.q.  F J. .M V W %.5.5.;._ ^ +.6 ^ b o.b.O 2.P.4./ A :.3.  x Z.-.o.4.>.#.>.+.",
"3.3.0.0.w.,.>.&.d.    W.r. .=.3.b.5.>.1.0.w.w.w.3.w.z.  X z.a ; j z C U ^ P M l n f R k z.[   s.N.o.3.b.=.;.  i G.;.+.=.#.+.$.+.",
"0.e.h.z.z.z.d.j.W   a U.&.@.2.s.j.:.#.8.e.>.2.e.w.z.L.  q oX .O.Y J B D J P P J ) w.[ l O.    C.Z.m / L.x.L.  . L.u.;.h.u.5.a.a.",
"Z.V.z.i.=.+.@.$.N   b 7.$.+. .s.D.I.K.B.N.V.B.s.3.m.@.+   z.z.L.[.E.D.z.h.u.w.7.R *.R D G   X { N.$.p u.h.Y.f   v.*.*.w.w.2.6.5.",
"          . 6 f y     . q 0 y   O v v O   h g     Y                                           . . y       f     9   . : % O O   "
};
