/* XPM */
static char *result[] = {
/* columns rows colors chars-per-pixel */
"64 64 158 2 ",
"   c #010102",
".  c #0B0504",
"X  c #0A0907",
"o  c #0D0A0A",
"O  c #120606",
"+  c #1D0101",
"@  c #140807",
"#  c #1E0907",
"$  c #120708",
"%  c #1B0609",
"&  c #140B0C",
"*  c #1C0D0C",
"=  c #1E100E",
"-  c #160F11",
";  c #1A0E10",
":  c #161111",
">  c #1D1211",
",  c #1D1618",
"<  c #1D1B1A",
"1  c #240201",
"2  c #290404",
"3  c #220805",
"4  c #20070A",
"5  c #29060A",
"6  c #220D0D",
"7  c #2A0B0E",
"8  c #23110E",
"9  c #29130E",
"0  c #250E10",
"q  c #2C0E12",
"w  c #241413",
"e  c #2A1615",
"r  c #251917",
"t  c #2B1916",
"y  c #251719",
"u  c #2C1718",
"i  c #251B1B",
"p  c #2C1C1B",
"a  c #321B17",
"s  c #311719",
"d  c #321D1C",
"f  c #20201F",
"g  c #2D201E",
"h  c #34211E",
"j  c #3A221E",
"k  c #2D1F20",
"l  c #341F20",
"z  c #1D2122",
"x  c #242222",
"c  c #2D2222",
"v  c #2C2927",
"b  c #2D2B2B",
"n  c #342323",
"m  c #3B2523",
"M  c #342925",
"N  c #3E2926",
"B  c #342628",
"V  c #3C2728",
"C  c #352C2B",
"Z  c #3D2A2A",
"A  c #2F302F",
"S  c #33302F",
"D  c #372F30",
"F  c #343332",
"G  c #3B3435",
"H  c #393837",
"J  c #3E3638",
"K  c #3C3B3B",
"L  c #402724",
"P  c #422926",
"I  c #412729",
"U  c #432C2B",
"Y  c #492E2B",
"T  c #45302E",
"R  c #4B312D",
"E  c #432E31",
"W  c #473132",
"Q  c #4B3334",
"!  c #453C37",
"~  c #403739",
"^  c #4E3739",
"/  c #433B3C",
"(  c #4C3C3A",
")  c #50393D",
"_  c #3F403F",
"`  c #41403F",
"'  c #4C423B",
"]  c #50453F",
"[  c #463E41",
"{  c #444142",
"}  c #4B4343",
"|  c #4D4748",
" . c #4E4849",
".. c #504747",
"X. c #554A43",
"o. c #594D46",
"O. c #524B4C",
"+. c #554F50",
"@. c #565253",
"#. c #5A5455",
"$. c #5B575A",
"%. c #5D595B",
"&. c #615854",
"*. c #625C5D",
"=. c #625E60",
"-. c #656163",
";. c #6A6465",
":. c #666468",
">. c #6A6568",
",. c #6E696A",
"<. c #736C6C",
"1. c #7D716F",
"2. c #736E71",
"3. c #747272",
"4. c #7B7372",
"5. c #7E7977",
"6. c #7C767A",
"7. c #7D797B",
"8. c #807572",
"9. c #847977",
"0. c #827C7C",
"q. c #88807F",
"w. c #7E7B80",
"e. c #837F81",
"r. c #848185",
"t. c #898485",
"y. c #8B8789",
"u. c #8D888A",
"i. c #928887",
"p. c #948C8C",
"a. c #9E958E",
"s. c #8D8C94",
"d. c #958F92",
"f. c #959295",
"g. c #9A9494",
"h. c #95959C",
"j. c #9B979A",
"k. c #9B999D",
"l. c #A99D96",
"z. c #A09A9A",
"x. c #ADA49E",
"c. c #9E9CA2",
"v. c #A29EA3",
"b. c #A4A1A5",
"n. c #ABA4A3",
"m. c #A5A4AA",
"M. c #A9A6AB",
"N. c #ADAAAD",
"B. c #B2A9A7",
"V. c #B2ACAD",
"C. c #B9B1AF",
"Z. c #A6A6B0",
"A. c #ACABB2",
"S. c #B1AEB2",
"D. c #B4B0B2",
"F. c #B4B3BB",
"G. c #B8B7BF",
"H. c #BBB9C2",
/* pixels */
"n m N m j j N m N j N P P P P N m N m m N j j P m P N P P N j N N j j N j m m m m m N m P N N N N P N P P P P Z P P Z P P P Z N ",
"h &   & @ o o & & : & : : : : : - - & & & : & - - & & & & & & = = & & @ & & & & & & & & - & * : : : : : - & - & o - & & &   & m ",
"h @ . : = = > w w r r r t r p r t w t w r w r p t t w w 9 t * j j > t t t r t p h t t t t t t r p p p p a t r r y w * = = O - m ",
"h & r h h g j U P P Y Y Y R R R Y Y R R R R R R R R U U P P j j j L P P P R R R R R R R R R R R Y R R Y Y Y P R U j h j h r - m ",
"h & w h h h j P P U R R R R Q R R T R R R R T R Y Y P P L P j h h j P j P P Y Y T R R Y R T R Y R R R R R Y U P P h h h d r & m ",
"d & w u a h h r g g g h h h p N Y P g g g g p g g t h P j L h a h j P N L h t t g g p g p p N U N r c n c p p p w h h h p w & n ",
"p & w p t h t 9 j j m N P U r h U m w m j m m m j t g P j P h h a h N j j t g P N m m N m w P U n p Y P P m m m t t a a r w & j ",
"n & 0 r t g t t j m P P R R h n R N t m P P P P P j t j j j h h h h j j P t h P m P m P N r P U n p R Y U L L j t t p u u w & h ",
"d & = r r a t r j m m R R P r N Y m r m m m m m P p p m j j g a a h j j m p d P m L m N n r P Y m , N R R j j j t t t t t 8 X j ",
"h & = t t t r r j j m P p p m U T U n h g h m P P a g m m h g a a h j j m p j P m m h g n n U T T N p p L L j j t t t t t = X h ",
"p & 8 r t 9 w t j j j r n U T N h m N P m g h P P d p N n m g p h g j j M p h P m h p N N N h d j T U m t h j j t r 9 9 w = & h ",
"d & 8 r w t r p h j n m T N + i ~ D i h P m i h m d p N n n p d h g h M N p h N n r m U d c G { f + N Y m M j h f 9 t r g r o h ",
"l * > p t 9 r t d m m P Z @ @.4.q.u.;.v h P g g P p h m m m p p h g M m m g h N p h U a S <.p.0.5.@.& N P m M h g w t t w = & j ",
"d & > t t w t g d n n U h c 0.g.5.u.u...3 P h r m h h m m m p p h g N j P g h m p n U + +.u.t.9.g.0.i n T h g j t g 9 t t 8 o h ",
"h & ; u t t r g p p n Y n c 4.7.g.2.<./ r T j g g g h m l m g h a h j j m h t p p N U r ' <.3.g.5.4.i n Y j g g g r w t r w o h ",
"d * 8 r w w u j h m m U n i 9.5.,.b.<.G h U N P j N m m m m p p h g j h m m N P P N P g G 4.b.;.0.7.w B R j j j h t w w t > & M ",
"n & w e w w e d j m L Y n c t.0.*.0.5.C d U P Y P N m B m m p d d p m n m m P N U P U c G 4.0.*.0.t.c h Y m m h d u w w r w o h ",
"d ; * t w w r p r p m Y B C <.r.2.j.7.G p W N p p r n V m n g a d d n m Z c r p p N T p ~ e.j.2.r.<.D h R m p p p t 8 9 r 8 o h ",
"n * > t t t p p d n n Y m p t.0.9.N.d. .w W V c m n n Z m m k p d n m m Z c n N n Z E 1 #.d.M.6.0.r.p B T n h j g p t t t = & n ",
"d ; > t 9 9 p p d n n Y n B h.f.7.M.p.O.e Q Z c P n g V m m k p h c B m V n n P n Z Q 1 #.d.m.e.f.j.c m R n n a p t 9 t r w & n ",
"j : w e t 9 p g d B n Y m D e.b.v.M.r.O.e W P n P n n N n m k p n l m j m n n P n U W 0 #.r.M.v.b.0.G n Y n B a n p 9 r r 8 & n ",
"h & = r t 9 p c p n j Y n G f.d.M.k.3.-.2 Q Z n I n n m m m g d d n m m N n n P n Z Q + ,.2.z.M.d.f.C m Q m B u c p 9 r r r o m ",
"m * > r w e p g s V m E l / v.b.u.:.w.#.e Q Z n I n n V m m k d l k n m N n n N n U Q 7 $.6.>.u.M.v.G n E m B a k p 9 r r w & M ",
"l - 8 p r r g h s n n Q n / v.n.V.e.0.+.u ^ Z B U n n V n V k p l l m m N n B Z B Y Q e #.e.t.S.b.b.G B Q n n p n p e r t > & N ",
"n - > p r r p n t B n Q l / S.f.D.S.y.*.7 ^ U n P m B m V m p d n l V V m n m U n U ^ 2 -.u.S.V.f.V.J n Q n B r n p w w p w & Z ",
"d & * t w w p h t B n Q l [ N.d.M.V.f.*.q ^ P B P B m V m m p l n p m m V n B P B U ^ 5 =.d.V.N.f.M./ l R B V p n p w w t ; & Z ",
"n & = w w w g n e B m Q l [ m.c.F.V.g.;.1 ^ P B P B n I B B p p d p V n m n V Z B E ^ 1 <.j.S.F.v.m.K h Q m B e n k w w t > & Z ",
"n : = r w w p c t c m Q l [ m.A.H.S.j.>.1 ^ Z B Z V n n x x c d l h x z c n V Z B U ^ + <.z.S.G.A.m.[ d R m n t k p w w w > & Z ",
"n * = w w w p n e n m Q l [ Z.F.G.N.v.=.2 ^ Z B E C h M b F x d l x A A v g V E B Z ^ + <.v.A.H.F.m./ d Q m n p n g 8 w w = & Z ",
"n & * t w 8 i n r B n Q l [ m.A.H.A.j.%.q Q V B E V n C b b c p l c b b b l V G B Z ^ 1 =.j.S.H.A.b./ h R n M w c p * w w w & C ",
"h * ; r w * p n e C m E n / k.S.H.j.f.2.1 ^ V B E B n C b F v p l c D A D l C E B E )   6.d.c.H.F.f./ d W n V e n k * w w w & U ",
"m & * w w * r n e n d U u O.e.Z.m.e.V.*.1 ^ Z n Z B n B K _ v p n k H _ F k V U B P ^ + -.N.w.m.m.e.O.q U n n e c i 6 w w ; & E ",
"n * * w w 8 r g e B l V e [ m.s.h.v.c.*.2 ^ V c L B n C K { C p d p K { H c V V B V ^ 1 -.k.c.c.s.m.[ w G d n t p i w w w = & U ",
"d - * t r 8 i g w B n Z e _ v.m.c.c.m.$.7 ^ V n V M g B K { b e l k H _ F c V V n V ^ 1 %.N.c.c.m.c.J w U d n w k p 6 w t * & E ",
"n & ; w 8 8 p c 0 B l U e [ c.m.M.c.g.+.e ^ V n I n p C H H b t d c F H F l B V c V Q e $.f.b.M.m.k./ t P n B e c p 0 w r > & E ",
"n ; * t w 9 p g e n p m y J k.m.A.c.y.$.5 Y m k V n c C v F v t d c C b F p l V l m Q 1 *.y.c.A.v.h.G w V p d e k p w w e = & E ",
"h ; = t e 9 e p w k p n i D h.c.m.v.y.$.5 E m n V l l k x F < r d i z F c p B V k V E 1 =.u.m.b.c.h.C y V p k w p a 9 e t ; * U ",
"d & & r e 9 u p e p d m i C f.k.k.k.e.#.3 E m p V l n 0 b K : p l : k _ i k n m l V E 1 $.e.k.k.c.d.v r m d p e p r 7 e w @ & E ",
"d & * r w 9 t r e p p m r c y.c.j.0.y.$.+ U m k m k k p b G & t u y k F u k l l k m U + $.y.e.k.v.y.k p m d p 9 y t 7 t w * & E ",
"d & * 8 w 8 t p 9 d e m p M t.n.b.g.j.} 0 U l p l p p u b G 4 t p e k F k p d m p n U w ..k.g.n.n.e.B r m u p e p t w w w ; & Z ",
"d & * w w 8 t p 8 p p l w C p.B.n.x.p...6 U l p l p p k c D * t e w p D p p p d p n P 4 o.p.n.n.n.i.C w m u r 9 y t 6 w 8 * & Z ",
"d & * w ; 6 w r 8 p t l 6 ~ a.B.D.C.l.#.+ P l r l e p e x D w w p t k b p y p l y l U . &.l.C.C.B.a.G % m r t r y w 8 w w * & Z ",
"e & @ w w 6 r w w p u d 0 B g.n.n.B.x.#.O Z p r l y p y z A < w p > < b c y u l y d U   *.x.V.n.n.g.c w d u g 8 w r 6 > w * & Z ",
"p & # w 8 w w w 6 p e d w n <.9.9.8.8.' 4 m d y d w t i , x k ; e > < z v y y d y d V + } 8.1.9.9.<.c w d t r 9 w e 7 8 > * & m ",
"t & & w 8 8 r w 9 r r d p n 7 1 1 q 7 n d l d e s t y y x b > 9 e w i v k y e u w d l l l 7 q 1 1 7 n p a w w 9 w 9 8 8 8 * & m ",
"w & @ 8 8 6 8 8 8 y 8 s d n Z U Y P Z m m d s w d w w u w r * w e > w y w y t u y p l l L I Z U P U l d p w w 9 w = 7 w * @ o m ",
"w & & * 6 * 8 0 * w w e e p m n B m m p d l u w t 6 w p w w : 8 e > w t y y 8 t w p d l l m m B m m p u t 8 w = = = * 6 6 & & m ",
"r & @ 8 * = > > w i w e e w w t e e u w s d w y p r w r w r = 8 9 = w w w w r p y w s d w t e p d e , u t 8 r w , = * 6 * $ & m ",
"8 & @ 6 6 * 8 p g t w r e w w e s e e 8 d s e n m n w w w w & 8 t ; w w r w n N n u p u w e e e e 9 w e e 8 p p p 8 6 6 = @ & m ",
"6 & @ * * 6 6 * * 8 w 9 w = e e e s e 8 u t t w * 6 t w w 8 & w e & w w w r 8 * w e u e 8 e s s e e 6 r w 8 6 # * 8 * 6 = @ & m ",
"* O & * * * * r p p 9 8 w 0 t u e e t * e t w p n p w w 8 r * 8 e @ w w 8 w p h p w e e w e u e e t 6 r 9 r r p r = * * * @ & m ",
"* O @ * * 6 @ < g w = 8 w * t u u u t w e e w r m p * w w 9 & 6 e * w w w * g j i 0 t e w t u u e e * w 8 8 r g w * * * * @ O m ",
"& $ @ * * 6 * * 3 * 6 8 w ; t e e e y ; e u w * 6 6 * w > 8 & 8 e * w w 8 = * 7 & w u e 8 t e e e e * w w 6 * 3 * * * 6 * @ @ m ",
"@ O & * # * * * 8 8 8 w 0 * w e w e e > e e 8 * e 8 = w w w & 8 9 @ w 6 w * w e * w e e = w e w e e * 0 r 8 6 8 * * * * * @ & m ",
"@ . $ * * * * * 8 = = w w ; w e w t w * e e 9 * 9 = * 8 6 w @ 8 9 & 8 w 8 * 6 e @ e q e = w r e e w * w 8 6 = 8 * * * * # O & j ",
"& O @ # * * * n M n 6 w 6 n Z Z T Z T n 0 s 8 m T V w 8 8 ; * 8 e * > 0 6 r C U m 0 u e n T U U Z G l 6 w 6 n B n * * 6 @ @ $ m ",
"% . @ @ * # * w 8 r w e w e e u u s e a e s e e t e w 6 w 8 # 8 9 * 0 w 6 w t e e e e a s e s e e e e e w w w w w * * * @ @ & m ",
"O . & @ * * * w w 8 w e e u e w e u s q e e 9 9 e t w w 9 9 & 8 8 * w w w w e 9 9 7 e e 9 a s e e e u e e w w > w * # * * @ @ d ",
"$ . @ # * # 6 w w w w e y y e e e s a e 9 e e e 0 e w 8 w 8 = 9 9 * w 6 * w w e e e e e s e e e e e e w e w 8 w w 6 * * # @ & j ",
"O . @ * 6 ; * w 8 w w w w e u u e d u u a e e e e w w w w w = 9 9 8 e w w 0 e w t t e p s a a s u u t w e w w w w * * 6 * @ @ m ",
"O   O # # # # * 8 w w 6 7 0 w 0 e 6 7 7 6 4 # 6 6 0 * % # 6 * 9 9 @ # % % % 6 6 # 4 4 6 6 w 0 6 0 w 0 0 8 6 6 8 * # @ # % . & j ",
"O . & i c f i i y > p c c c c n M M M M M M n n n n n B v h g 8 a g M M M M M n M n M B Z M V M B c c c c g g i i i c c i & & j ",
"o   , F G G { } |  .} ' / ` ' ' ' ] ..o.X.X.X.X.X.X.X.o.X.X.] t r ! ' ' ' ' ' ' ' ' ( ' ] ' ' / ' ! / / / ~ H K / J G G S < & j ",
". o , , , : < < x x f , : : : : : : < i i < < i < i i i i r f < - = : o o X                               . o o & o . X o o & d "
};
