/* XPM */
static char *f9c751b17a74469ae0b64edc2da591b37MdA84eLf30EsKRk[] = {
/* columns rows colors chars-per-pixel */
"64 64 4 1 ",
"  c None",
". c black",
"X c red",
"o c #FFCC00",
/* pixels */
"                                                                ",
"                                                                ",
"                                                                ",
"                                                                ",
"                                                                ",
"                                                                ",
"                                                                ",
"                                                                ",
"                                                                ",
"                                                                ",
"                                                                ",
"                                                                ",
"  ............................................................  ",
"  ............................................................  ",
"  ............................................................  ",
"  ............................................................  ",
"  ............................................................  ",
"  ............................................................  ",
"  ............................................................  ",
"  ............................................................  ",
"  ............................................................  ",
"  ............................................................  ",
"  ............................................................  ",
"  ............................................................  ",
"  ............................................................  ",
"  XXXXXXXXXXXXXXXXXXXXXXXXXXXXXXXXXXXXXXXXXXXXXXXXXXXXXXXXXXXX  ",
"  XXXXXXXXXXXXXXXXXXXXXXXXXXXXXXXXXXXXXXXXXXXXXXXXXXXXXXXXXXXX  ",
"  XXXXXXXXXXXXXXXXXXXXXXXXXXXXXXXXXXXXXXXXXXXXXXXXXXXXXXXXXXXX  ",
"  XXXXXXXXXXXXXXXXXXXXXXXXXXXXXXXXXXXXXXXXXXXXXXXXXXXXXXXXXXXX  ",
"  XXXXXXXXXXXXXXXXXXXXXXXXXXXXXXXXXXXXXXXXXXXXXXXXXXXXXXXXXXXX  ",
"  XXXXXXXXXXXXXXXXXXXXXXXXXXXXXXXXXXXXXXXXXXXXXXXXXXXXXXXXXXXX  ",
"  XXXXXXXXXXXXXXXXXXXXXXXXXXXXXXXXXXXXXXXXXXXXXXXXXXXXXXXXXXXX  ",
"  XXXXXXXXXXXXXXXXXXXXXXXXXXXXXXXXXXXXXXXXXXXXXXXXXXXXXXXXXXXX  ",
"  XXXXXXXXXXXXXXXXXXXXXXXXXXXXXXXXXXXXXXXXXXXXXXXXXXXXXXXXXXXX  ",
"  XXXXXXXXXXXXXXXXXXXXXXXXXXXXXXXXXXXXXXXXXXXXXXXXXXXXXXXXXXXX  ",
"  XXXXXXXXXXXXXXXXXXXXXXXXXXXXXXXXXXXXXXXXXXXXXXXXXXXXXXXXXXXX  ",
"  XXXXXXXXXXXXXXXXXXXXXXXXXXXXXXXXXXXXXXXXXXXXXXXXXXXXXXXXXXXX  ",
"  XXXXXXXXXXXXXXXXXXXXXXXXXXXXXXXXXXXXXXXXXXXXXXXXXXXXXXXXXXXX  ",
"  oooooooooooooooooooooooooooooooooooooooooooooooooooooooooooo  ",
"  oooooooooooooooooooooooooooooooooooooooooooooooooooooooooooo  ",
"  oooooooooooooooooooooooooooooooooooooooooooooooooooooooooooo  ",
"  oooooooooooooooooooooooooooooooooooooooooooooooooooooooooooo  ",
"  oooooooooooooooooooooooooooooooooooooooooooooooooooooooooooo  ",
"  oooooooooooooooooooooooooooooooooooooooooooooooooooooooooooo  ",
"  oooooooooooooooooooooooooooooooooooooooooooooooooooooooooooo  ",
"  oooooooooooooooooooooooooooooooooooooooooooooooooooooooooooo  ",
"  oooooooooooooooooooooooooooooooooooooooooooooooooooooooooooo  ",
"  oooooooooooooooooooooooooooooooooooooooooooooooooooooooooooo  ",
"  oooooooooooooooooooooooooooooooooooooooooooooooooooooooooooo  ",
"  oooooooooooooooooooooooooooooooooooooooooooooooooooooooooooo  ",
"  oooooooooooooooooooooooooooooooooooooooooooooooooooooooooooo  ",
"  oooooooooooooooooooooooooooooooooooooooooooooooooooooooooooo  ",
"                                                                ",
"                                                                ",
"                                                                ",
"                                                                ",
"                                                                ",
"                                                                ",
"                                                                ",
"                                                                ",
"                                                                ",
"                                                                ",
"                                                                ",
"                                                                "
};
