/* XPM */
static char *dfd4a84d501b47c7b31bbce96166be07qJq1VHjJEVpRMvtX[] = {
/* columns rows colors chars-per-pixel */
"64 64 3 1 ",
"  c #808080",
". c #008751",
"X c white",
/* pixels */
"                                                                ",
"                                                                ",
"                                                                ",
"                                                                ",
"                                                                ",
"                                                                ",
"                                                                ",
"                                                                ",
"                                                                ",
"                                                                ",
"                                                                ",
"                                                                ",
"  ....................XXXXXXXXXXXXXXXXXXXX....................  ",
"  ....................XXXXXXXXXXXXXXXXXXXX....................  ",
"  ....................XXXXXXXXXXXXXXXXXXXX....................  ",
"  ....................XXXXXXXXXXXXXXXXXXXX....................  ",
"  ....................XXXXXXXXXXXXXXXXXXXX....................  ",
"  ....................XXXXXXXXXXXXXXXXXXXX....................  ",
"  ....................XXXXXXXXXXXXXXXXXXXX....................  ",
"  ....................XXXXXXXXXXXXXXXXXXXX....................  ",
"  ....................XXXXXXXXXXXXXXXXXXXX....................  ",
"  ....................XXXXXXXXXXXXXXXXXXXX....................  ",
"  ....................XXXXXXXXXXXXXXXXXXXX....................  ",
"  ....................XXXXXXXXXXXXXXXXXXXX....................  ",
"  ....................XXXXXXXXXXXXXXXXXXXX....................  ",
"  ....................XXXXXXXXXXXXXXXXXXXX....................  ",
"  ....................XXXXXXXXXXXXXXXXXXXX....................  ",
"  ....................XXXXXXXXXXXXXXXXXXXX....................  ",
"  ....................XXXXXXXXXXXXXXXXXXXX....................  ",
"  ....................XXXXXXXXXXXXXXXXXXXX....................  ",
"  ....................XXXXXXXXXXXXXXXXXXXX....................  ",
"  ....................XXXXXXXXXXXXXXXXXXXX....................  ",
"  ....................XXXXXXXXXXXXXXXXXXXX....................  ",
"  ....................XXXXXXXXXXXXXXXXXXXX....................  ",
"  ....................XXXXXXXXXXXXXXXXXXXX....................  ",
"  ....................XXXXXXXXXXXXXXXXXXXX....................  ",
"  ....................XXXXXXXXXXXXXXXXXXXX....................  ",
"  ....................XXXXXXXXXXXXXXXXXXXX....................  ",
"  ....................XXXXXXXXXXXXXXXXXXXX....................  ",
"  ....................XXXXXXXXXXXXXXXXXXXX....................  ",
"  ....................XXXXXXXXXXXXXXXXXXXX....................  ",
"  ....................XXXXXXXXXXXXXXXXXXXX....................  ",
"  ....................XXXXXXXXXXXXXXXXXXXX....................  ",
"  ....................XXXXXXXXXXXXXXXXXXXX....................  ",
"  ....................XXXXXXXXXXXXXXXXXXXX....................  ",
"  ....................XXXXXXXXXXXXXXXXXXXX....................  ",
"  ....................XXXXXXXXXXXXXXXXXXXX....................  ",
"  ....................XXXXXXXXXXXXXXXXXXXX....................  ",
"  ....................XXXXXXXXXXXXXXXXXXXX....................  ",
"  ....................XXXXXXXXXXXXXXXXXXXX....................  ",
"  ....................XXXXXXXXXXXXXXXXXXXX....................  ",
"  ....................XXXXXXXXXXXXXXXXXXXX....................  ",
"                                                                ",
"                                                                ",
"                                                                ",
"                                                                ",
"                                                                ",
"                                                                ",
"                                                                ",
"                                                                ",
"                                                                ",
"                                                                ",
"                                                                ",
"                                                                "
};
