/* XPM */
static char *a2luZHBuZ18xODQ0MTEy[] = {
/* columns rows colors chars-per-pixel */
"64 64 89 1 ",
"  c #010101",
". c #080707",
"X c #080807",
"o c #0D0C0B",
"O c #100F0D",
"+ c #12110F",
"@ c #151412",
"# c #181714",
"$ c #1A1916",
"% c #1E1D19",
"& c #201F1B",
"* c #23221D",
"= c #262520",
"- c #292722",
"; c #2C2A24",
": c #312F29",
"> c #34322C",
", c #38362F",
"< c #3D3B33",
"1 c #423F37",
"2 c #45423A",
"3 c #49463D",
"4 c #4C493F",
"5 c #4E4B41",
"6 c #504D43",
"7 c #555247",
"8 c #565449",
"9 c #59554A",
"0 c #5D5A4E",
"q c #615D52",
"w c #656155",
"e c #686457",
"r c #696559",
"t c #6D695C",
"y c #706B5E",
"u c #757162",
"i c #797566",
"p c #7C7768",
"a c #7E7969",
"s c #7E796A",
"d c #827C6D",
"f c #837D6D",
"g c #837E6E",
"h c #847E6E",
"j c #847F6F",
"k c #85806F",
"l c #86806F",
"z c #868170",
"x c #878272",
"c c #888372",
"v c #898473",
"b c #8B8675",
"n c #8C8675",
"m c #8C8775",
"M c #8F8978",
"N c #928C7B",
"B c #96907E",
"V c #989280",
"C c #999380",
"Z c #999381",
"A c #9B9582",
"S c #9D9784",
"D c #A09986",
"F c #A29B88",
"G c #A49E8A",
"H c #A59F8B",
"J c #A69F8B",
"K c #A7A08C",
"L c #A7A18C",
"P c #A8A18D",
"I c #AAA28E",
"U c #AAA38E",
"Y c #ABA490",
"T c #AFA893",
"R c #B4AD97",
"E c #B9B29B",
"W c #BAB29B",
"Q c #BEB7A0",
"! c #C1B9A2",
"~ c #C2BBA3",
"^ c #C3BCA4",
"/ c #C4BCA5",
"( c #C6BEA6",
") c #D3CAB1",
"_ c #DCD3B8",
"` c #DFD6BB",
"' c #E1D8BD",
"] c white",
"[ c black",
/* pixels */
"]]]]]]]]]]]]]]]]]]]]]]]]]]]]]]IYV]]]]]]]]]]]]]]]]]]]]]]]]]]]]]]]",
"]]]]]]]]]]]]]]]]]]]]]]]]]]]]]E^/QM]]]]]]]]]]]]]]]]]]]]]]]]]]]]]]",
"]]]]]]]]]]]]]]]]]]]]]]]]]]]]MGILLgt]]]]]]]]]]]]]]]]]]]]]]]]]]]]]",
"]]]]]]]]]]]]]]]]]]]]]]]]]]]]pkhxMt8]]]]]]]]]]]]]]]]]]]]]]]]]]]]]",
"]]]]]]]]]]]]]]]]]]]]]]]]]]]]5420xtr]]]]]]]]]]]]]]]]]]]]]]]]]]]]]",
"]]]]]]]]]]]]]]]]]]]]]]]]]]]]rgyukkt]]]]]]]]]]]]]]]]]]]]]]]]]]]]]",
"]]]]]]]]]]]]]]]]]]]]]]]]]]]]0urtta]]]]]]]]]]]]]]]]]]]]]]]]]]]]]]",
"]]]]]]]]]]]]]]]]]]]]]]]]]]]]5<3que]]]]]]]]]]]]]]]]]]]]]]]]]]]]]]",
"]]]]]]]]]]]]]]]]]]]]]]]]]]]]]3578I]]]]]]]]]]]]]]]]]]]]]]]]]]]]]]",
"]]]]]]]]]]]]]]]]]]]]]]]]]]]],p05I`9=]]]]]]]]]]]]]]]]]]]]]]]]]]]]",
"]]]]]]]]]]]]]]]]]]]]]]]]]]>; bce_'4*>><2]]]]]]]]]]]]]]]]]]]]]]]]",
"]]]]]]]]]]]]]]]]]]]]]]]>>;*% Nu V):%=*=;*]]]]]]]]]]]]]]]]]]]]]]]",
"]]]]]]]]]]]]]]]]]]]]]]]%%%%* BS5!R&***%@%]]]]]]]]]]]]]]]]]]]]]]]",
"]]]]]]]]]]]]]]]]]]]]]]]@@$$* IG !/ =%%$@%*]]]]]]]]]]]]]]]]]]]]]]",
"]]]]]]]]]]]]]]]]]]]]]]$++@#* Ab RE -%$#@$&]]]]]]]]]]]]]]]]]]]]]]",
"]]]]]]]]]]]]]]]]]]]]]]#++@#* gi SS -$@@o@*;]]]]]]]]]]]]]]]]]]]]]",
"]]]]]]]]]]]]]]]]]]]]]]@++@$* qt di *+Ooo@@*]]]]]]]]]]]]]]]]]]]]]",
"]]]]]]]]]]]]]]]]]]]]]]$oX@@% 28*t5 *+Ooo@$&*]]]]]]]]]]]]]]]]]]]]",
"]]]]]]]]]]]]]]]]]]]]]$@X.o+@+$;,a4  @   XXo%]]]]]]]]]]]]]]]]]]]]",
"]]]]]]]]]]]]]]]]]]]]]%ooXoo+++%*eIGtX;%%%&&#]]]]]]]]]]]]]]]]]]]]",
"]]]]]]]]]]]]]]]]]]]]]@oX]ooo+X;exAFm%=;;&%%@@]]]]]]]]]]]]]]]]]]]",
"]]]]]]]]]]]]]]]]]]]]]+o.]ooo+O@werqe*o@@@O@@#]]]]]]]]]]]]]]]]]]]",
"]]]]]]]]]]]]]]]]]]]]$+oo]]ooo+ 2841-oOoO@@@#]]]]]]]]]]]]]]]]]]]]",
"]]]]]]]]]]]]]]]]]]]]$oX+]]oOooXX>+  Oo@%]]]]]]]]]]]]]]]]]]]]]]]]",
"]]]]]]]]]]]]]]]]]]]]@oXo]++ooXoo XOoXo%]]]]]]]]]]]]]]]]]]]]]]]]]",
"]]]]]]]]]]]]]]]]]]]]@Oo]]OoO@@@XOooooo#]]]]]]]]]]]]]]]]]]]]]]]]]",
"]]]]]]]]]]]]]]]]]]]]@oo]]O@OOooooooooo#]]]]]]]]]]]]]]]]]]]]]]]]]",
"]]]]]]]]]]]]]]]]]]]@@Oo]]O+@@+XooOooOo#]]]]]]]]]]]]]]]]]]]]]]]]]",
"]]]]]]]]]]]]]]]]]]]$@oo]]@O+Oooo++Oo+O@]]]]]]]]]]]]]]]]]]]]]]]]]",
"]]]]]]]]]]]]]]]]]]]@+oO]]@oOOoo@@+++oO+>]]]]]]]]]]]]]]]]]]]]]]]]",
"]]]]]]]]]]]]]]]]]]]$@oo]]@@Ooo@o+O@@@+@>]]]]]]]]]]]]]]]]]]]]]]]]",
"]]]]]]]]]]]]]]]]]]]$@@O]#@Ooo+@. o++@@@#]]]]]]]]]]]]]]]]]]]]]]]]",
"]]]]]]]]]]]]]]]]]]]@. @]@+OO+@+XXo+@++@$]]]]]]]]]]]]]]]]]]]]]]]]",
"]]]]]]]]]]]]]]]]]]]$<82]$@@@$@OXXX+O+++%]]]]]]]]]]]]]]]]]]]]]]]]",
"]]]]]]]]]]]]]]]]]]]]pp2]$$$$@@oXXXO@O+@%]]]]]]]]]]]]]]]]]]]]]]]]",
"]]]]]]]]]]]]]]]]]]]]e82]@@$$$OXXoXo@@+@%]]]]]]]]]]]]]]]]]]]]]]]]",
"]]]]]]]]]]]]]]]]]]]]67]]]@@@+ooXXooo@@#]]]]]]]]]]]]]]]]]]]]]]]]]",
"]]]]]]]]]]]]]]]]]]]]]5]]]@@OoooXXoooo@$]]]]]]]]]]]]]]]]]]]]]]]]]",
"]]]]]]]]]]]]]]]]]]]]]]]]]$@OOoooXoooo%]]]]]]]]]]]]]]]]]]]]]]]]]]",
"]]]]]]]]]]]]]]]]]]]]]]]]]]@+++o+oXoo@%]]]]]]]]]]]]]]]]]]]]]]]]]]",
"]]]]]]]]]]]]]]]]]]]]]]]]]]#@@++$oXoo@*]]]]]]]]]]]]]]]]]]]]]]]]]]",
"]]]]]]]]]]]]]]]]]]]]]]]]]]%+#$+$oXoX$]]]]]]]]]]]]]]]]]]]]]]]]]]]",
"]]]]]]]]]]]]]]]]]]]]]]]]]]@+#$@$Oooo%]]]]]]]]]]]]]]]]]]]]]]]]]]]",
"]]]]]]]]]]]]]]]]]]]]]]]]]]]@$#+++ooO*]]]]]]]]]]]]]]]]]]]]]]]]]]]",
"]]]]]]]]]]]]]]]]]]]]]]]]]]]$@++#Ooo@*]]]]]]]]]]]]]]]]]]]]]]]]]]]",
"]]]]]]]]]]]]]]]]]]]]]]]]]]]$++##ooX$]]]]]]]]]]]]]]]]]]]]]]]]]]]]",
"]]]]]]]]]]]]]]]]]]]]]]]]]]]$@#$+oOo@&]]]]]]]]]]]]]]]]]]]]]]]]]]]",
"]]]]]]]]]]]]]]]]]]]]]]]]]]]$+###ooO@$]]]]]]]]]]]]]]]]]]]]]]]]]]]",
"]]]]]]]]]]]]]]]]]]]]]]]]]]*$++%]ooO#$]]]]]]]]]]]]]]]]]]]]]]]]]]]",
"]]]]]]]]]]]]]]]]]]]]]]]]]]]$#$$]ooo@$]]]]]]]]]]]]]]]]]]]]]]]]]]]",
"]]]]]]]]]]]]]]]]]]]]]]]]]]%@@$%]ooo@#]]]]]]]]]]]]]]]]]]]]]]]]]]]",
"]]]]]]]]]]]]]]]]]]]]]]]]]]#+%%$]ooo+$]]]]]]]]]]]]]]]]]]]]]]]]]]]",
"]]]]]]]]]]]]]]]]]]]]]]]]]]%$@+#@ooOO@]]]]]]]]]]]]]]]]]]]]]]]]]]]",
"]]]]]]]]]]]]]]]]]]]]]]]]]]*@@*$#oo+@@]]]]]]]]]]]]]]]]]]]]]]]]]]]",
"]]]]]]]]]]]]]]]]]]]]]]]]]]**-%+%ooo@]]]]]]]]]]]]]]]]]]]]]]]]]]]]",
"]]]]]]]]]]]]]]]]]]]]]]]]]]&*%$*%oo+@]]]]]]]]]]]]]]]]]]]]]]]]]]]]",
"]]]]]]]]]]]]]]]]]]]]]]]]]]]&;;*%OX+$]]]]]]]]]]]]]]]]]]]]]]]]]]]]",
"]]]]]]]]]]]]]]]]]]]]]]]]]]]O*=$%Ooo$]]]]]]]]]]]]]]]]]]]]]]]]]]]]",
"]]]]]]]]]]]]]]]]]]]]]]]]]]]<=@o]+o@$]]]]]]]]]]]]]]]]]]]]]]]]]]]]",
"]]]]]]]]]]]]]]]]]]]]]]]]]]=;%,,],**]]]]]]]]]]]]]]]]]]]]]]]]]]]]]",
"]]]]]]]]]]]]]]]]]]]]]]]]]]*%$,4]<,5]]]]]]]]]]]]]]]]]]]]]]]]]]]]]",
"]]]]]]]]]]]]]]]]]]]]]]]]]]=*%@-]::33]]]]]]]]]]]]]]]]]]]]]]]]]]]]",
"]]]]]]]]]]]]]]]]]]]]]]]]]]]]#@;]]$$]]]]]]]]]]]]]]]]]]]]]]]]]]]]]",
"]]]]]]]]]]]]]]]]]]]]]]]]]]]]]$=]]]]]]]]]]]]]]]]]]]]]]]]]]]]]]]]]"
};
