/* XPM */
static char *result[] = {
/* columns rows colors chars-per-pixel */
"21 64 228 2 ",
"   c #000200",
".  c #070A01",
"X  c #0C0C06",
"o  c #090B09",
"O  c #160802",
"+  c #0C130B",
"@  c #06120B",
"#  c #141304",
"$  c #14150C",
"%  c #1B150C",
"&  c #15190C",
"*  c #191B0E",
"=  c #091512",
"-  c #121B11",
";  c #1C1C14",
":  c #1A1B19",
">  c #141313",
",  c #2B0000",
"<  c #231902",
"1  c #221D12",
"2  c #311D16",
"3  c #1E2215",
"4  c #1E201B",
"5  c #222215",
"6  c #24251C",
"7  c #2A251C",
"8  c #252A1D",
"9  c #292A1D",
"0  c #2A2314",
"q  c #33291C",
"w  c #392619",
"e  c #21301F",
"r  c #2E2607",
"t  c #1D2823",
"y  c #252522",
"u  c #2B2623",
"i  c #2A2C22",
"p  c #272C28",
"a  c #332B25",
"s  c #372F28",
"d  c #3E2F2B",
"f  c #2E3226",
"g  c #213728",
"h  c #333225",
"j  c #393225",
"k  c #35352A",
"l  c #3B342C",
"z  c #35392C",
"x  c #3A3B2E",
"c  c #3C3E25",
"v  c #3B3D32",
"b  c #373936",
"n  c #4B2309",
"m  c #542605",
"M  c #442815",
"N  c #572D15",
"B  c #52331F",
"V  c #472A21",
"C  c #433A2B",
"Z  c #4A3628",
"A  c #533325",
"S  c #5B3C2B",
"D  c #563A29",
"F  c #463C34",
"G  c #4A3D34",
"H  c #4B3531",
"J  c #583D33",
"K  c #562D22",
"L  c #3C4135",
"P  c #3F413B",
"I  c #754510",
"U  c #5A452A",
"Y  c #424235",
"T  c #4C4134",
"R  c #424439",
"E  c #4B443B",
"W  c #47493D",
"Q  c #4A4A3E",
"!  c #594235",
"~  c #51453C",
"^  c #5C453A",
"/  c #55493E",
"(  c #5B4B37",
")  c #5E513E",
"_  c #644132",
"`  c #614C34",
"'  c #67483D",
"]  c #67443B",
"[  c #72463A",
"{  c #67573B",
"}  c #70513C",
"|  c #69482E",
" . c #3F4543",
".. c #4C4C42",
"X. c #474641",
"o. c #524740",
"O. c #554C44",
"+. c #5B4D44",
"@. c #594F4A",
"#. c #4D5145",
"$. c #4B5149",
"%. c #545245",
"&. c #5C5445",
"*. c #5B524A",
"=. c #54544B",
"-. c #4F4F50",
";. c #734D43",
":. c #744E4B",
">. c #6C5544",
",. c #6E5942",
"<. c #695048",
"1. c #645648",
"2. c #7B5549",
"3. c #765749",
"4. c #6A5A54",
"5. c #715F54",
"6. c #7A5A53",
"7. c #7A5F5D",
"8. c #74634B",
"9. c #6A6357",
"0. c #716255",
"q. c #73645B",
"w. c #776B5B",
"e. c #796F67",
"r. c #82523C",
"t. c #94643E",
"y. c #8B584B",
"u. c #875E52",
"i. c #9B5D43",
"p. c #8B635A",
"a. c #836857",
"s. c #99665B",
"d. c #8C7153",
"f. c #A16B5C",
"g. c #996D65",
"h. c #89766D",
"j. c #9B786B",
"k. c #927D74",
"l. c #9E7F77",
"z. c #886862",
"x. c #A16D68",
"c. c #A1766B",
"v. c #A8756B",
"b. c #A77569",
"n. c #B57A68",
"m. c #AB7B72",
"M. c #A77E72",
"N. c #B17D76",
"B. c #9C835F",
"V. c #AE855E",
"C. c #948078",
"Z. c #AC8B6C",
"A. c #A78268",
"S. c #AA8877",
"D. c #B98377",
"F. c #B38279",
"G. c #B88779",
"H. c #B48B71",
"J. c #C5927E",
"K. c #C99177",
"L. c #99978F",
"P. c #B68F8C",
"I. c #AB9B89",
"U. c #B99A8C",
"Y. c #B89896",
"T. c #A98F8A",
"R. c #BAA695",
"E. c #C48D84",
"W. c #C68B84",
"Q. c #D38F88",
"!. c #CD9787",
"~. c #C59289",
"^. c #CB948B",
"/. c #CC9B8C",
"(. c #C49583",
"). c #D29D8A",
"_. c #D79F81",
"`. c #CA9791",
"'. c #C29C94",
"]. c #CD9A94",
"[. c #CB9898",
"{. c #D29C94",
"}. c #DF9C97",
"|. c #C6A88D",
" X c #D7A28A",
".X c #CAA497",
"XX c #D4A393",
"oX c #D6A39C",
"OX c #DAA29C",
"+X c #DBAD9B",
"@X c #D8A798",
"#X c #C7B29E",
"$X c #E7B39D",
"%X c #E4AB96",
"&X c #C09EA2",
"*X c #D6ABA3",
"=X c #DCABA4",
"-X c #DAACAB",
";X c #D6A3A3",
":X c #DAB5AA",
">X c #D8B3B5",
",X c #CCA5AB",
"<X c #E0AEA5",
"1X c #E4B2A3",
"2X c #E3B5AB",
"3X c #E9BBAE",
"4X c #E5BAAD",
"5X c #E4BCB3",
"6X c #E7BEB9",
"7X c #EABBB3",
"8X c #F1BEB6",
"9X c #F5BBAE",
"0X c #DDC09D",
"qX c #EAC1B4",
"wX c #E6C3BB",
"eX c #EAC4BE",
"rX c #EAC8C4",
"tX c #F2CCC7",
"yX c #FBD5CD",
"uX c #F5D3C9",
"iX c #FDDBD3",
"pX c #FDDCDB",
"aX c #F8D4D2",
"sX c #FDE1DD",
"dX c #FFE9E7",
"fX c #FFE6E5",
"gX c #FFF3E9",
"hX c white",
/* pixels */
"hXhXhXhXhXhXhX'.*X#XhXhXhXhXhXhXhXhXhXhXhX",
"hXhXhXhXhXh.Y.*X8XiX7XhXhXhXhXhXhXhXhXhXhX",
"hXhXhXhXhXO.k.D.OXyXyXhXhXhXhXhXhXhXhXhXhX",
"hXhXhXhXhXG 6.s.m.U.@XhXhXhXhXhXhXhXhXhXhX",
"hXhXhXhXhX] :.g.z.g.G.hXhXhXhXhXhXhXhXhXhX",
"hXhXhXhXhX3.S c.{.].9XhXhXhXhXhXhXhXhXhXhX",
"hXhXhXhXhXhXD 2.v.6.!.hXhXhXhXhXhXhXhXhXhX",
"hXhXhXhXhXhXB D ;.s.f.hXhXhXhXhXhXhXhXhXhX",
"hXhXhXhXhXhXS V [ n.J.hXhXhXhXhXhXhXhXhXhX",
"hXhXhXhXhXk.] A , i.3XpXpXaXhXhXhXhXhXhXhX",
"hXhXhXhX&XP.:._ y.).tXpXdXdXfXdXsXhXhXhXhX",
"hXhX>X>X,XY.P.W.Q.<X2X5XtXpXpXpXgXhXhXhXhX",
"hXrX>X-X-X;X`.}.}.OX;X=X6XtXaXaXsXuXhXhXhX",
"l.'.'.[.OX;X`.Q.[.{.=X2X6XwXtXqX7XaXhXhXhX",
"a.c.F.E.{.oX*X;X].~.=X5XwXwX7X).+XaXwXhXhX",
"3.u.c.P./.;X=X5X*XN.E.=X6XeX3XJ.A.5XyXhXhX",
"( ^ a.m.~.`.-XrX<Xc.s.W.;XoX_.K.y.'.yXqXhX",
"<.^ Z 2.m.W.`.-X<X~.s.s.b.f.n.K.| j.qXqXhX",
">.! w J [ u.g.W.=X<X{./.J.(.K.K.hX[ (.3XhX",
"( ^ w M w ;.v.E.{.].{.<X2X$X9X XhXK r.1X8X",
"hX! 2 a | p.H.F.^.^.W.~./.!.$XXXhXhXp.3X4X",
"hXD 2 H ' S 2.v.~.{.{.{.!.J.%X).hXhXv.7X5X",
"hX! O J p.2.;.x.N.~.`./.).).$X).hXhXN.7X:X",
"hX6.V J S.G.s.v.W.J.W.{.).).2XhXhXhXF.8X*X",
"hX6.<.5.6.g.a.p.N.M.c.F.|.+X+XG.hXhXS.3X/.",
"hX^ } t.< p i s *.=...p &.0.5.1.hXhXP.}.hX",
"hXH | I @ - & b v L ..a Y +.*.+.hXT.<X{.hX",
"hXZ N A t # * y a Y R y +.9.*.s hX7.`.oXhX",
"hXH m j $...p = i a L #.W 0.5.f g V x.[.hX",
"hXD N - p b -.4.E L Y #.W 5.+.a i H :.6.hX",
"hXm M t u o k @.R #.Q R *.+.5 6 a hXhXhXhX",
"hXn 2 b R b $   5 9 L R O.F ; ; hXhXhXhXhX",
"hXn i X...Y k 7 1 a T 0.&.E & 6 hXhXhXhXhX",
"hXM i v P W Y k + a l w.+.z 9 z hXhXhXhXhX",
"hXhX7 x ..#...R 9   . f L 9 x F hXhXhXhXhX",
"hXhXq z #.......F # o 4 l z k F hXhXhXhXhX",
"hXhX0 z R ..O.~ z 6 5 u k f k &.hXhXhXhXhX",
"hXhXp R L #.*.E h $ ; 6 y 6 %.w.hXhXhXhXhX",
"hXhXk ..X...o.7.G   $ : y 3 #.9.hXhXhXhXhX",
"hXhXz @.*.q.q.*.v   & X & h k hXhXhXhXhXhX",
"hXhXv 0.9.Y *.#.v   4 8 8 ~ &.8 hXhXhXhXhX",
"hXhXhXY &.h.k.7.o.u # x l C O.R hXhXhXhXhX",
"hXhXhX  v e.h.4.@.v 0 G a G 5.F hXhXhXhXhX",
"hXhXhX> i z G o.R k % o.7 Q 1.hXhXhXhXhXhX",
"hXhXhXk & & & v ..6   l l v hXhXhXhXhXhXhX",
"hXhXhXh ~ G T *.W &   i x k hXhXhXhXhXhXhX",
"hXhXhX> l k Y #.8 o > u ~ P hXhXhXhXhXhXhX",
"hXhXX         k 6   ; & 5 hXhXhXhXhXhXhXhX",
"hXhX6 5 6 y y b $ .   6 h hXhXhXhXhXhXhXhX",
"hXhXi 8 3 : : v +   1 1 v hXhXhXhXhXhXhXhX",
"hXhXo $ . $ 3 f 6   7 l e hXhXhXhXhXhXhXhX",
"hXhXhXy k 5 & 3 ; 9 7 z X.hXhXhXhXhXhXhXhX",
"hXhXhX> & + $ 9 ;   * * t hXhXhXhXhXhXhXhX",
"hXhXhXq w % # j i   + f k hXhXhXhXhXhXhXhX",
"hXhXhXhX` U % a j r w h hXhXhXhXhXhXhXhXhX",
"hXhXhXhX{ ,.Z q ( Z U 1.hXhXhXhXhXhXhXhXhX",
"hXhXhXhX%.{ 8.hXT T ,.hXhXhXhXhXhXhXhXhXhX",
"hXhXhXw.9.{ d.hXC L 8.hXhXhXhXhXhXhXhXhXhX",
"hXhXhXe.w.d.B.hXC { w.hXhXhXhXhXhXhXhXhXhX",
"hXhXhXhXe.H.Z.hX( 8.Z.hXhXhXhXhXhXhXhXhXhX",
"hXhXhXC.Z.B.A.hXd.d.S.hXhXhXhXhXhXhXhXhXhX",
"hXhXhX#X0XR.S.C.Z.Z.Z.hXhXhXhXhXhXhXhXhXhX",
"hXhX9.I.R.0XH.C.|.|.0XhXhXhXhXhXhXhXhXhXhX",
"hXhXhXhXhXhXhXL.I.I.I.hXhXhXhXhXhXhXhXhXhX"
};
